<?xml version="1.0" standalone="no"?>
<!DOCTYPE svg PUBLIC "-//W3C//DTD SVG 1.1//EN" "http://www.w3.org/Graphics/SVG/1.1/DTD/svg11.dtd" >
<svg xmlns="http://www.w3.org/2000/svg" xmlns:xlink="http://www.w3.org/1999/xlink" version="1.1">
<metadata>
Created by FontForge 20170731 at Mon May 31 19:55:55 2021
 By Aleksey,,,
Copyright (c) 1995 ParaGraph Intl., (c) 1998 ParaType Inc., ParaType Ltd. All rights reserved.
</metadata>
<defs>
<font id="FuturaPTCond-BoldObl" horiz-adv-x="1024" >
  <font-face 
    font-family="Futura PT Cond Bold Italic"
    font-weight="400"
    font-style="italic"
    font-stretch="condensed"
    units-per-em="2048"
    panose-1="2 11 8 6 2 2 4 9 2 3"
    ascent="1563"
    descent="-485"
    x-height="915"
    cap-height="1366"
    bbox="-455 -512 2060 1866"
    underline-thickness="102"
    underline-position="-307"
    slope="-7"
    unicode-range="U+0020-FB02"
  />
<missing-glyph horiz-adv-x="477" 
 />
    <glyph glyph-name="afii10017.var.accented" unicode="&#x410;`" horiz-adv-x="927" 
d="M864 0h-282l-23 229h-268l-76 -229h-266l481 1366h281zM358 440h187q-3 36 -9 114t-8.5 114.5t-7 114.5t-4 115t1.5 116q-25 -127 -47 -211q-14 -56 -31 -111.5t-45.5 -141.5t-36.5 -110zM453 1530l192 262l166 -102l-233 -234z" />
    <glyph glyph-name="afii10022.var.accented" unicode="&#x415;`" horiz-adv-x="716" 
d="M750 1366l-31 -254h-268l-37 -295h237l-33 -258h-235l-39 -307h272l-30 -252h-539l168 1366h535zM348 1530l193 262l166 -102l-234 -234z" />
    <glyph glyph-name="afii10026.var.accented" unicode="&#x418;`" horiz-adv-x="1026" 
d="M47 0l168 1366h266l-75 -618q-11 -82 -50 -205l424 823h250l-168 -1366h-266l78 625q3 25 12 69t21 91t12 49l-422 -834h-250zM502 1530l192 262l166 -102l-233 -234z" />
    <glyph glyph-name="afii10032.var.accented" unicode="&#x41e;`" horiz-adv-x="1093" 
d="M1059 889q0 -276 -72 -481q-30 -87 -76.5 -162t-108.5 -136.5t-144.5 -97t-174.5 -35.5q-98 0 -185.5 53.5t-137.5 139.5q-72 122 -72 324q0 207 45 372q26 102 70.5 191t108.5 165t155 120t197 44q80 0 146 -28.5t111.5 -76.5t77 -112.5t46 -135t14.5 -144.5zM774 874
q0 41 -6 81.5t-20 84.5t-45 71.5t-74 27.5q-44 0 -83 -31t-64.5 -76.5t-46 -104t-30.5 -105.5t-16 -89q-16 -101 -16 -231q0 -40 6 -80.5t20.5 -84.5t45 -71.5t73.5 -27.5q45 0 84 31t64.5 76t45.5 103.5t30 105t16 89.5q16 101 16 231zM537 1530l192 262l166 -102
l-233 -234z" />
    <glyph glyph-name="afii10037.var.accented" unicode="&#x423;`" horiz-adv-x="905" 
d="M123 1366h283l67 -338q4 -19 11.5 -58t11.5 -60.5t9 -61t9 -82.5q40 132 84 254l127 346h291l-582 -1366h-270l196 471zM442 1530l193 262l166 -102l-234 -234z" />
    <glyph glyph-name="afii10045.var.accented" unicode="&#x42b;`" horiz-adv-x="1282" 
d="M1118 0h-266l168 1366h266zM215 1366h266l-65 -535h2q201 0 309 -108q102 -102 102 -270q0 -96 -30.5 -181t-87.5 -143q-126 -129 -383 -129h-281zM387 598l-45 -365h8q93 0 146 41q67 53 67 164q0 76 -43 117q-45 43 -133 43zM631 1530l192 262l166 -102l-233 -234z" />
    <glyph glyph-name="afii10047.var.accented" unicode="&#x42d;`" horiz-adv-x="886" 
d="M51 41l39 283q65 -78 158 -78q87 0 153 59q47 41 83.5 117.5t47.5 152.5h-325l35 242h317q4 36 4 55q0 134 -65 199q-51 51 -129 51q-95 0 -174 -59l38 278q100 39 205 39q168 0 273 -108q141 -145 141 -447q0 -74 -8.5 -152t-30.5 -178t-70.5 -196t-117.5 -166
q-84 -84 -175.5 -115.5t-207.5 -31.5q-61 0 -104.5 11.5t-86.5 43.5zM367 1530l192 262l166 -102l-233 -234z" />
    <glyph glyph-name="afii10048.var.accented" unicode="&#x42e;`" horiz-adv-x="1513" 
d="M416 831h147q15 114 66.5 228.5t126.5 191.5q129 135 317 135q159 0 260 -96q146 -139 146 -428q0 -134 -23 -266.5t-81 -266.5t-144 -218q-137 -134 -328 -134q-176 0 -272 123q-65 83 -87.5 216.5t-15.5 258.5h-143l-72 -575h-266l168 1366h266zM1049 1139
q-54 0 -101 -47q-70 -70 -112 -258q-35 -152 -35 -322q0 -67 12.5 -133.5t40.5 -99.5q34 -41 84 -41q57 0 102 43q71 67 112.5 240t41.5 335q0 180 -61 246q-34 37 -84 37zM745 1530l193 262l166 -102l-234 -234z" />
    <glyph glyph-name="afii10049.var.accented" unicode="&#x42f;`" horiz-adv-x="960" 
d="M10 0l326 594q-81 37 -127 102q-59 83 -59 211q0 214 116 334q69 72 167 98.5t245 26.5h287l-168 -1366h-267l70 565l-283 -565h-307zM672 1149h-25q-109 0 -162 -51q-59 -56 -59 -162q0 -85 49 -129q47 -41 131 -41h19zM469 1530l193 262l165 -102l-233 -234z" />
    <glyph glyph-name="afii10023.var.accented" unicode="&#x401;`" horiz-adv-x="716" 
d="M750 1366l-31 -254h-268l-37 -295h237l-33 -258h-235l-39 -307h272l-30 -252h-539l168 1366h535zM309 1530l193 262l129 -76l-234 -233zM342 1661q0 -46 -35.5 -80.5t-81.5 -34.5q-38 0 -63 26.5t-25 65.5q0 45 35 80t80 35q38 0 64 -26t26 -66zM838 1661
q0 -47 -35.5 -81t-83.5 -34q-38 0 -62 26.5t-24 65.5q0 45 35 80t80 35q38 0 64 -26t26 -66z" />
    <glyph glyph-name="afii10065.var.accented" unicode="&#x430;`" horiz-adv-x="798" 
d="M772 915l-110 -915h-254l12 104q-79 -122 -180 -122q-59 0 -100.5 34t-60.5 90t-26.5 108t-7.5 108q0 123 23 235q12 61 32.5 120t54 120t85.5 98t114 37q112 0 152 -129l14 112h252zM487 565q0 137 -59 137q-36 0 -62.5 -42t-39.5 -103.5t-19 -112.5t-6 -86
q0 -147 66 -147q35 0 60.5 43.5t37.5 107.5t17 115t5 88zM760 1309l-260 -250l-115 74l205 262z" />
    <glyph glyph-name="afii10070.var.accented" unicode="&#x435;`" horiz-adv-x="751" 
d="M455 315h213q-8 -69 -40 -140t-81 -116q-83 -77 -211 -77q-125 0 -199 77q-94 102 -94 283q0 132 44.5 269.5t133.5 224.5q96 96 228 96q100 0 169 -66q91 -89 91 -274q0 -68 -19 -180h-399q-12 -59 -12 -117q0 -72 24 -100q21 -21 53 -21q47 0 72 45q19 37 27 96z
M311 569h183q4 32 4 49q0 49 -17 82q-19 37 -57 37t-62 -28q-20 -21 -33.5 -63.5t-17.5 -76.5zM735 1309l-260 -250l-115 74l205 262z" />
    <glyph glyph-name="afii10074.var.accented" unicode="&#x438;`" horiz-adv-x="827" 
d="M135 915h242l-37 -305q-10 -112 -59 -260q32 62 54.5 106.5t30.5 61t13 25.5l194 372h228l-113 -915h-242l37 299q19 147 54 274q-41 -111 -103 -227l-184 -346h-227zM774 1309l-260 -250l-115 74l205 262z" />
    <glyph glyph-name="afii10080.var.accented" unicode="&#x43e;`" horiz-adv-x="790" 
d="M743 592q0 -82 -11.5 -162t-40.5 -163t-73 -144.5t-116.5 -101t-163.5 -39.5q-66 0 -117 21t-83.5 56t-53 85t-29 103t-8.5 115q0 97 23.5 193t70.5 182.5t128.5 140.5t185.5 54q144 0 216 -95.5t72 -244.5zM485 567q0 135 -59 135q-34 0 -60.5 -42t-39.5 -103t-19 -113
t-6 -86q0 -147 64 -147q35 0 60.5 43.5t37.5 108t17 116t5 88.5zM756 1309l-260 -250l-115 74l205 262z" />
    <glyph glyph-name="afii10085.var.accented" unicode="&#x443;`" horiz-adv-x="735" 
d="M797 915l-545 -1337h-246l191 440l-152 897h252l45 -333q16 -121 18 -189l183 522h254zM729 1309l-260 -250l-115 74l205 262z" />
    <glyph glyph-name="afii10093.var.accented" unicode="&#x44b;`" horiz-adv-x="1116" 
d="M977 0h-254l113 915h254zM135 915h254l-41 -335h17q150 0 229 -52q104 -70 104 -211q0 -149 -100 -237q-91 -80 -250 -80h-325zM299 180h12q67 0 103 33q35 32 35 94q0 50 -31 72q-26 20 -88 20h-4zM918 1309l-261 -250l-114 74l205 262z" />
    <glyph glyph-name="afii10095.var.accented" unicode="&#x44d;`" horiz-adv-x="661" 
d="M20 47l31 240q49 -72 131 -72q64 0 105 41q19 20 35 53.5t22 65.5h-217l23 184h212q0 78 -40 121q-35 37 -95 37q-72 0 -125 -60l29 238q77 39 158 39q143 0 225 -86q100 -103 100 -309q0 -36 -4 -77t-17 -112t-47 -142t-85 -124q-55 -58 -115.5 -80t-140.5 -22
q-107 0 -185 65zM633 1309l-260 -250l-115 74l205 262z" />
    <glyph glyph-name="afii10096.var.accented" unicode="&#x44e;`" horiz-adv-x="1165" 
d="M346 573h111q14 72 48 141.5t79 116.5q98 101 243 101q125 0 201 -76q90 -90 90 -274q0 -135 -37 -271.5t-114 -220.5q-101 -108 -256 -108q-115 0 -187 67q-94 89 -94 311h-108l-46 -360h-253l112 915h254zM801 702q-23 0 -43 -20q-25 -25 -41 -68.5t-21 -74.5
q-20 -98 -20 -195q0 -88 31 -119q14 -14 32 -14q23 0 41 18q40 39 60 142q20 95 20 190q0 101 -26 127q-12 14 -33 14zM942 1309l-260 -250l-115 74l205 262z" />
    <glyph glyph-name="afii10097.var.accented" unicode="&#x44f;`" horiz-adv-x="804" 
d="M0 0l215 346q-57 21 -92 72q-39 56 -39 143q0 158 92 252q57 59 139.5 80.5t202.5 21.5h260l-112 -915h-254l43 346l-181 -346h-274zM471 487l29 236h-8q-80 0 -115 -33q-37 -32 -37 -100q0 -53 37 -80q33 -23 88 -23h6zM762 1309l-260 -250l-115 74l205 262z" />
    <glyph glyph-name="afii10071.var.accented" unicode="&#x451;`" horiz-adv-x="751" 
d="M455 315h213q-8 -69 -40 -140t-81 -116q-83 -77 -211 -77q-125 0 -199 77q-94 102 -94 283q0 132 44.5 269.5t133.5 224.5q96 96 228 96q100 0 169 -66q91 -89 91 -274q0 -68 -19 -180h-399q-12 -59 -12 -117q0 -72 24 -100q21 -21 53 -21q47 0 72 45q19 37 27 96z
M311 569h183q14 78 -13 131q-19 37 -57 37t-62 -28q-20 -21 -33.5 -63.5t-17.5 -76.5zM604 1329l-246 -254l-82 58l205 262zM90 1214q0 44 35.5 79.5t79.5 35.5q38 0 64 -27t26 -65q0 -40 -32.5 -76.5t-82.5 -36.5q-38 0 -64 26t-26 64zM573 1214q0 45 34 80t79 35
q38 0 65 -27t27 -65q0 -41 -32 -77t-84 -36q-46 0 -67.5 28.5t-21.5 61.5z" />
    <glyph glyph-name="fi" unicode="fi" horiz-adv-x="903" 
d="M604 1493l-31 -246q-23 15 -43 15t-35 -9t-23.5 -20.5t-14.5 -31.5t-8.5 -33.5t-4.5 -34.5l-28 -218h114l-24 -213h-115l-86 -702h-254l86 702h-92l27 213h92l41 310q11 91 26 126q9 20 21 40q37 59 104.5 90.5t141.5 31.5q44 0 106 -20zM948 1233q0 -72 -55 -126
t-127 -54q-59 0 -99 42t-40 101q0 72 55 126t127 54q61 0 100 -41t39 -102zM877 915l-113 -915h-254l113 915h254z" />
    <glyph glyph-name="fl" unicode="fl" horiz-adv-x="901" 
d="M604 1493l-31 -246q-23 15 -43 15t-35 -9t-23.5 -20.5t-14.5 -31.5t-8.5 -33.5t-4.5 -34.5l-28 -218h114l-24 -213h-115l-86 -702h-254l86 702h-92l27 213h92l41 310q11 91 26 126q9 20 21 40q37 59 104.5 90.5t141.5 31.5q44 0 106 -20zM946 1493l-182 -1493h-254
l184 1493h252z" />
    <glyph glyph-name=".notdef" horiz-adv-x="477" 
 />
    <glyph glyph-name=".null" horiz-adv-x="0" 
 />
    <glyph glyph-name="nonmarkingreturn" horiz-adv-x="682" 
 />
    <glyph glyph-name="space" unicode=" " horiz-adv-x="477" 
 />
    <glyph glyph-name="exclam" unicode="!" horiz-adv-x="581" 
d="M532 1366l-116 -956h-264l118 956h262zM424 170q0 -76 -59 -134.5t-136 -58.5q-63 0 -106 44.5t-43 107.5q0 76 58.5 134.5t135.5 58.5q64 0 107 -43.5t43 -108.5z" />
    <glyph glyph-name="quotedbl" unicode="&#x22;" horiz-adv-x="825" 
d="M840 1366l-47 -549h-187l-47 549h281zM467 1366l-47 -549h-187l-47 549h281z" />
    <glyph glyph-name="numbersign" unicode="#" horiz-adv-x="1228" 
d="M1300 1014l-61 -226h-207l-51 -182h209l-62 -227h-210l-107 -379h-260l108 379h-184l-108 -379h-256l106 379h-209l62 227h211l51 182h-209l63 226h209l99 352h256l-99 -352h185l98 352h260l-98 -352h204zM772 788h-184l-51 -182h184z" />
    <glyph glyph-name="dollar" unicode="$" horiz-adv-x="886" 
d="M901 1217l-166 -162q-43 51 -87 76.5t-105 25.5q-75 0 -122.5 -44t-47.5 -118q0 -23 8 -42.5t18 -32.5t30 -26t33 -20t38 -18q55 -26 82 -39t72.5 -38t68.5 -43.5t53 -49t44.5 -61t25 -71.5t10.5 -89q0 -176 -109.5 -315t-277.5 -173l-20 -163h-148l21 163
q-98 16 -170 51.5t-138 108.5l150 201q66 -70 117.5 -102.5t128.5 -32.5q83 0 137.5 54.5t54.5 137.5q0 34 -11.5 60t-39.5 48t-50.5 34.5t-68.5 35.5q-43 21 -68.5 34t-63.5 36t-60.5 41.5t-49.5 47t-41 57t-24 66.5t-10 81q0 177 112.5 303.5t266.5 146.5l18 152h147
l-18 -152q70 -10 139 -53t121 -116z" />
    <glyph glyph-name="percent" unicode="%" horiz-adv-x="1470" 
d="M698 1124q0 -56 -10 -114t-34.5 -120t-60.5 -109.5t-94 -78t-130 -30.5q-115 0 -176.5 80.5t-61.5 191.5q0 48 9.5 101t34 113t61 107t96.5 78t135 31q60 0 106.5 -22t72.5 -59.5t39 -80t13 -88.5zM483 1102q0 7 -1 17.5t-5 28.5t-14 30t-25 12q-26 0 -46 -32t-29 -77
t-13 -79.5t-4 -53.5q0 -90 45 -90q26 0 45.5 32.5t28.5 78t13.5 80.5t4.5 53zM1233 1366l-760 -1366h-178l764 1366h174zM1399 438q0 -56 -10 -114t-34.5 -120t-61 -109.5t-94.5 -78t-130 -30.5q-115 0 -176.5 80.5t-61.5 191.5q0 71 20.5 144t59.5 138t106 106.5t150 41.5
q116 0 174 -75t58 -175zM1184 416q0 7 -1 17.5t-5 28.5t-14 30t-25 12q-26 0 -46 -32t-29 -77t-13 -79.5t-4 -53.5q0 -90 45 -90q26 0 45.5 32.5t28.5 78t13.5 80.5t4.5 53z" />
    <glyph glyph-name="ampersand" unicode="&#x26;" horiz-adv-x="1099" 
d="M930 565l117 -205q-85 -88 -168 -143l116 -217h-286l-43 80q-103 -98 -267 -98q-136 0 -221 88q-104 107 -104 266q0 127 69 244q59 99 176 186q-61 117 -61 248q0 159 96 266q98 106 264 106q132 0 207 -71q76 -71 76 -185q0 -139 -90 -253q-79 -100 -190 -156l147 -299
q76 54 162 143zM535 920q59 44 86 88q30 48 30 96q0 32 -16 51q-20 23 -51 23q-33 0 -56 -23q-32 -28 -32 -92q0 -76 39 -143zM561 274l-135 287q-86 -70 -86 -168q0 -72 39 -114q34 -39 92 -39q48 0 90 34z" />
    <glyph glyph-name="quotesingle" unicode="'" horiz-adv-x="452" 
d="M467 1366l-49 -549h-185l-47 549h281z" />
    <glyph glyph-name="parenleft" unicode="(" horiz-adv-x="620" 
d="M430 1509l242 -55q-305 -584 -305 -1175q0 -314 88 -629l-254 -62q-103 326 -103 672q0 665 332 1249z" />
    <glyph glyph-name="parenright" unicode=")" horiz-adv-x="620" 
d="M184 1448l256 61q101 -310 101 -669q0 -335 -85.5 -653t-246.5 -599l-240 58q305 584 305 1175q0 305 -90 627z" />
    <glyph glyph-name="asterisk" unicode="*" horiz-adv-x="888" 
d="M854 1219l-229 -66l118 -188l-112 -68l-107 186l-155 -188l-97 76l164 188l-209 62l41 127l217 -76l23 231l131 -16l-37 -223l221 77z" />
    <glyph glyph-name="plus" unicode="+" 
d="M983 578h-317v-318h-252v318h-318v233h318v319h252v-319h317v-233z" />
    <glyph glyph-name="comma" unicode="," horiz-adv-x="503" 
d="M438 248l-336 -553h-178l246 553h268z" />
    <glyph glyph-name="hyphen" unicode="-" horiz-adv-x="548" 
d="M436 391h-344l29 221h344z" />
    <glyph glyph-name="period" unicode="." horiz-adv-x="503" 
d="M385 170q0 -76 -59.5 -135.5t-135.5 -59.5q-64 0 -106.5 45t-42.5 109q0 76 59 134.5t136 58.5q64 0 106.5 -43.5t42.5 -108.5z" />
    <glyph glyph-name="slash" unicode="/" horiz-adv-x="962" 
d="M1075 1493l-977 -1888h-225l983 1888h219z" />
    <glyph glyph-name="zero" unicode="0" horiz-adv-x="886" 
d="M860 885q0 -165 -36.5 -351t-104.5 -313q-59 -108 -144 -176t-194 -68q-301 0 -301 490q0 211 41 391q15 70 38 138t61.5 140.5t85 126t112.5 88.5t141 35q301 0 301 -501zM610 938q0 207 -86 207q-26 0 -48.5 -19.5t-39 -56.5t-29.5 -74t-23 -90.5t-15.5 -85.5
t-11.5 -79.5t-7 -53.5q-22 -154 -22 -254q0 -205 86 -205q26 0 49 19t40 56.5t29.5 73.5t23 90.5t15.5 85t11.5 80.5t7.5 54q20 140 20 252z" />
    <glyph glyph-name="one" unicode="1" horiz-adv-x="886" 
d="M713 1366l-168 -1366h-260l139 1128h-127l29 238h387z" />
    <glyph glyph-name="two" unicode="2" horiz-adv-x="886" 
d="M395 891h-245q5 88 18 156.5t42 134.5t73 109t114 69t162 26q324 0 324 -292q0 -178 -133 -383q-8 -12 -30.5 -44.5t-33.5 -50.5q-108 -167 -242 -380h312l-29 -236h-704q387 588 391 596q46 70 72.5 112.5t64.5 112.5t56.5 132.5t19.5 117.5q0 127 -88 127
q-130 0 -144 -307z" />
    <glyph glyph-name="three" unicode="3" horiz-adv-x="886" 
d="M418 981h-232q9 81 22.5 136.5t43.5 109.5q46 80 124.5 119.5t176.5 39.5q136 0 217.5 -75t81.5 -209q0 -64 -11 -121t-34.5 -110.5t-65.5 -96t-100 -67.5q92 -29 131 -95.5t39 -169.5q0 -202 -124 -333.5t-325 -131.5q-143 0 -229 77.5t-86 219.5q0 45 8 84h248
q-8 -40 -8 -65q0 -44 23 -73.5t65 -29.5t72.5 30t45 77.5t21 90t6.5 81.5q0 36 -10 61t-24.5 38.5t-40.5 21t-49 9t-58 1.5l27 229q41 0 64 1.5t57 12t55 31.5q55 55 55 189q0 41 -19 70.5t-59 29.5q-30 0 -51.5 -18.5t-33 -49.5t-16.5 -58t-7 -56z" />
    <glyph glyph-name="four" unicode="4" horiz-adv-x="886" 
d="M834 555l-29 -233h-111l-41 -322h-256l39 322h-389l25 210l458 834h291l-98 -811h111zM526 1055l-258 -500h197z" />
    <glyph glyph-name="five" unicode="5" horiz-adv-x="886" 
d="M866 1366l-28 -233h-328l-64 -224q120 -11 185 -43q87 -43 127.5 -127.5t40.5 -189.5q0 -120 -32.5 -222.5t-94.5 -181t-160 -123.5t-221 -45q-124 0 -252 64l74 235q71 -65 157 -65q74 0 131 44t84 109t27 138q0 103 -66 151.5t-172 48.5q-48 0 -110 -10l188 674h514z
" />
    <glyph glyph-name="six" unicode="6" horiz-adv-x="886" 
d="M739 1366l-321 -539q46 38 87 57t91 19q48 0 87.5 -20t65 -52t42.5 -74.5t24.5 -85.5t7.5 -87q0 -82 -15.5 -164t-50 -162.5t-84 -142.5t-124 -100t-164.5 -38q-109 0 -183 51t-106.5 133t-32.5 189q0 77 12 153.5t41 159t53 143t74 151.5t75.5 135.5t86 143.5t78.5 130
h256zM555 508q0 156 -82 156q-38 0 -68.5 -33t-46.5 -81.5t-24 -94t-8 -80.5q0 -24 3 -48t10.5 -52.5t25.5 -46t43 -17.5q40 0 71 33.5t46 83.5t22.5 96t7.5 84z" />
    <glyph glyph-name="seven" unicode="7" horiz-adv-x="886" 
d="M944 1366l-674 -1366h-274l555 1130h-361l29 236h725z" />
    <glyph glyph-name="eight" unicode="8" horiz-adv-x="886" 
d="M850 1073q0 -92 -41 -172q-30 -63 -71.5 -100t-108.5 -66q108 -47 150 -111.5t42 -183.5q0 -125 -55 -230.5t-156 -169t-227 -63.5q-149 0 -244.5 94t-95.5 242q0 90 28.5 176t84.5 146q48 53 168 100q-80 36 -115 96t-35 150q0 163 111 284t272 121q138 0 215.5 -87
t77.5 -226zM588 1075q0 38 -14 68.5t-48 30.5q-28 0 -48.5 -20.5t-30.5 -52t-14.5 -60t-4.5 -54.5q0 -113 61 -113q27 0 48 23t31 57t15 65t5 56zM549 444q0 26 -3.5 50t-12 50.5t-28 43t-46.5 16.5q-37 0 -66 -26.5t-44 -67t-22.5 -80.5t-7.5 -74q0 -35 6.5 -64.5t29 -55
t57.5 -25.5q33 0 60.5 25.5t43.5 63t24.5 75.5t8.5 69z" />
    <glyph glyph-name="nine" unicode="9" horiz-adv-x="886" 
d="M199 0l321 537q-90 -76 -176 -76q-49 0 -88.5 20t-65 52t-42.5 75t-24 86.5t-7 87.5q0 104 25.5 206.5t75.5 193.5t137.5 147.5t199.5 56.5q108 0 182 -50.5t107 -132t33 -187.5q0 -68 -11.5 -139.5t-27.5 -132t-46.5 -134t-55.5 -126t-67.5 -128t-69 -119.5t-74.5 -122
t-70 -115h-256zM612 991q0 24 -3 47.5t-10.5 51.5t-25.5 45.5t-43 17.5q-40 0 -70.5 -33.5t-46 -83.5t-23 -96t-7.5 -82q0 -158 82 -158q39 0 69.5 33t46 82t23.5 94.5t8 81.5z" />
    <glyph glyph-name="colon" unicode=":" horiz-adv-x="503" 
d="M461 780q0 -78 -58.5 -135t-136.5 -57q-64 0 -106.5 43t-42.5 108q0 76 58.5 134.5t135.5 58.5q64 0 107 -43.5t43 -108.5zM385 176q0 -76 -59 -135t-136 -59q-64 0 -106.5 44.5t-42.5 108.5q0 76 59 134.5t136 58.5q64 0 106.5 -43.5t42.5 -108.5z" />
    <glyph glyph-name="semicolon" unicode=";" horiz-adv-x="503" 
d="M500 784q0 -76 -59 -134t-136 -58q-63 0 -106 44t-43 107q0 77 59 136t135 59q65 0 107.5 -44.5t42.5 -109.5zM438 248l-336 -553h-178l246 553h268z" />
    <glyph glyph-name="less" unicode="&#x3c;" 
d="M954 129l-886 449v210l886 449v-250l-620 -305l620 -305v-248z" />
    <glyph glyph-name="equal" unicode="=" 
d="M983 762h-887v219h887v-219zM983 412h-887v221h887v-221z" />
    <glyph glyph-name="greater" unicode="&#x3e;" 
d="M1010 575l-887 -446v250l620 305l-620 305v248l887 -449v-213z" />
    <glyph glyph-name="question" unicode="?" horiz-adv-x="835" 
d="M375 987h-250q15 117 43 180q43 103 137 160t209 57q155 0 242.5 -93t87.5 -249q0 -79 -28.5 -166.5t-74.5 -154.5q-59 -84 -166 -119l-22 -176h-262l41 336q28 -4 41 -4q48 0 85 25t57 65.5t30 84.5t10 89q0 127 -76 127q-36 0 -60.5 -29t-33.5 -63t-10 -70zM559 170
q0 -77 -58 -135t-134 -58q-64 0 -107 43.5t-43 108.5q0 77 58.5 135t134.5 58q64 0 106.5 -43.5t42.5 -108.5z" />
    <glyph glyph-name="at" unicode="@" horiz-adv-x="1501" 
d="M1141 197l20 -156q-192 -66 -430 -66q-288 0 -465.5 163t-177.5 448q0 213 112 398.5t299.5 295t399.5 109.5q160 0 290 -61.5t209 -183.5t79 -284q0 -176 -95 -332q-55 -88 -135.5 -151.5t-169.5 -63.5q-55 0 -96 31.5t-47 83.5q-49 -61 -121.5 -96t-150.5 -35
q-113 0 -181.5 79.5t-68.5 194.5q0 105 54.5 210.5t151 176t203.5 70.5q63 0 114.5 -25.5t76.5 -78.5l26 84l174 -2l-125 -394q-2 -7 -8 -25t-9 -28t-6 -25.5t-3 -27.5q0 -51 43 -51q46 0 104 67q53 60 84 148.5t31 171.5q0 185 -122.5 288t-311.5 103q-169 0 -314.5 -87
t-231 -233.5t-85.5 -314.5q0 -189 109 -319q124 -148 385 -148q197 0 389 66zM940 721q0 56 -30 91.5t-85 35.5q-87 0 -150 -79t-63 -169q0 -56 31.5 -91.5t87.5 -35.5q89 0 149 78.5t60 169.5z" />
    <glyph glyph-name="A" unicode="A" horiz-adv-x="927" 
d="M864 0h-282l-23 229h-268l-76 -229h-266l481 1366h281zM358 440h187q-3 36 -9 114t-8.5 114.5t-7 114.5t-4 115t1.5 116q-25 -127 -47 -211q-14 -56 -31 -111.5t-45.5 -141.5t-36.5 -110z" />
    <glyph glyph-name="B" unicode="B" horiz-adv-x="878" 
d="M215 1366h285q79 0 140.5 -16.5t117.5 -71.5q92 -90 92 -250q0 -80 -20 -139t-70 -111q-58 -61 -133 -78q81 -28 125 -94q45 -69 45 -178q0 -186 -115 -301q-125 -127 -352 -127h-283zM455 1143l-43 -338q82 0 129 51q26 28 40.5 71t14.5 81q0 61 -31 96q-36 39 -110 39z
M387 596l-45 -363q79 0 137 54q58 56 58 153q0 78 -43 121q-35 35 -95 35h-12z" />
    <glyph glyph-name="C" unicode="C" horiz-adv-x="856" 
d="M752 317l-39 -282q-96 -49 -207 -49q-168 0 -273 108q-66 67 -102.5 176.5t-36.5 245.5q0 127 26.5 256.5t88 257t149.5 209.5q147 141 367 141q93 0 172 -39l-39 -284q-63 65 -149 65q-88 0 -164 -73q-76 -76 -120 -227.5t-44 -284.5q0 -146 59 -224q52 -67 138 -67
q98 0 174 71z" />
    <glyph glyph-name="D" unicode="D" horiz-adv-x="985" 
d="M215 1366h223q86 0 146.5 -9t120.5 -38q68 -33 116.5 -87.5t75 -122.5t38 -137.5t11.5 -146.5q0 -189 -56 -369t-173 -300q-151 -156 -410 -156h-260zM344 250h16q67 -1 122 37t90 96.5t59.5 131.5t34.5 140.5t10 126.5q0 332 -223 344z" />
    <glyph glyph-name="E" unicode="E" horiz-adv-x="716" 
d="M750 1366l-31 -254h-268l-37 -295h237l-33 -258h-235l-39 -307h272l-30 -252h-539l168 1366h535z" />
    <glyph glyph-name="F" unicode="F" horiz-adv-x="702" 
d="M752 1366l-31 -252h-270l-35 -291h241l-30 -260h-244l-70 -563h-266l168 1366h537z" />
    <glyph glyph-name="G" unicode="G" horiz-adv-x="1058" 
d="M1022 1063l-272 -102q0 36 -3.5 64t-14.5 59t-35.5 48t-61.5 17q-60 0 -108.5 -53.5t-76 -130.5t-46 -172t-25 -168t-6.5 -127q0 -275 155 -275q156 0 199 295h-170l29 242h434q-9 -85 -15.5 -136.5t-21.5 -124.5t-35 -132q-26 -79 -67.5 -147.5t-97.5 -124t-130.5 -87
t-158.5 -31.5q-87 0 -156.5 31.5t-115 84t-76 123t-43.5 145t-13 153.5q0 190 45 360q21 79 53 150.5t79.5 138.5t104.5 115.5t132.5 78t159.5 29.5q150 0 241.5 -85.5t116.5 -237.5z" />
    <glyph glyph-name="H" unicode="H" horiz-adv-x="1011" 
d="M1016 1366l-166 -1366h-266l73 604h-268l-76 -604h-266l168 1366h266l-61 -506h268l62 506h266z" />
    <glyph glyph-name="I" unicode="I" horiz-adv-x="475" 
d="M481 1366l-168 -1366h-266l168 1366h266z" />
    <glyph glyph-name="J" unicode="J" horiz-adv-x="624" 
d="M631 1366l-117 -946q-20 -160 -57 -238q-44 -95 -130 -150t-192 -55q-108 0 -190 43l32 271q56 -76 132 -76q33 0 57.5 14t38 31.5t23.5 50t13 53t7 56.5l117 946h266z" />
    <glyph glyph-name="K" unicode="K" horiz-adv-x="911" 
d="M977 1366l-334 -637l191 -729h-273l-162 694l-86 -694h-266l168 1366h266l-75 -610l301 610h270z" />
    <glyph glyph-name="L" unicode="L" horiz-adv-x="663" 
d="M625 256l-33 -256h-545l168 1366h266l-135 -1110h279z" />
    <glyph glyph-name="M" unicode="M" horiz-adv-x="1302" 
d="M1229 1366l-27 -1366h-272l53 983q-21 -124 -78 -315l-200 -668h-205q-4 56 -17.5 211.5t-21 264.5t-12.5 212q-1 25 -5 96t-4 109q0 28 4 90l-161 -983h-287l287 1366h350l33 -807l206 807h357z" />
    <glyph glyph-name="N" unicode="N" horiz-adv-x="1044" 
d="M1049 1366l-168 -1366h-250l-230 823q0 -117 -8 -176l-80 -647h-266l168 1366h252l229 -825q-2 33 -2 98q0 59 4 90l80 637h271z" />
    <glyph glyph-name="O" unicode="O" horiz-adv-x="1093" 
d="M1059 889q0 -276 -72 -481q-30 -87 -76.5 -162t-108.5 -136.5t-144.5 -97t-174.5 -35.5q-98 0 -185.5 53.5t-137.5 139.5q-72 122 -72 324q0 207 45 372q26 102 70.5 191t108.5 165t155 120t197 44q80 0 146 -28.5t111.5 -76.5t77 -112.5t46 -135t14.5 -144.5zM774 874
q0 41 -6 81.5t-20 84.5t-45 71.5t-74 27.5q-44 0 -83 -31t-64.5 -76.5t-46 -104t-30.5 -105.5t-16 -89q-16 -101 -16 -231q0 -40 6 -80.5t20.5 -84.5t45 -71.5t73.5 -27.5q45 0 84 31t64.5 76t45.5 103.5t30 105t16 89.5q16 101 16 231z" />
    <glyph glyph-name="P" unicode="P" horiz-adv-x="876" 
d="M215 1366h324q53 0 79.5 -1.5t65.5 -12t74 -31.5q74 -45 108.5 -125.5t34.5 -175.5q0 -148 -68 -257.5t-185.5 -161t-264.5 -40.5l-70 -561h-266zM410 788h16q108 0 159.5 52.5t51.5 160.5q0 76 -30.5 111t-104.5 35h-47z" />
    <glyph glyph-name="Q" unicode="Q" horiz-adv-x="1107" 
d="M825 -117l-98 164q-106 -70 -227 -70q-160 0 -269 105q-143 136 -143 426q0 55 4 112.5t19 146.5t40 168t73 164.5t112 147.5q142 139 323 139q79 0 148.5 -31t118.5 -81q133 -138 133 -420q0 -193 -41 -362q-42 -175 -139 -302l118 -198zM668 522l57 -114q51 222 51 450
q0 185 -61 246q-35 37 -82 37q-60 0 -105 -45q-71 -69 -116 -254q-37 -148 -37 -326q0 -174 65 -244q31 -34 84 -34q43 0 74 22l-94 152z" />
    <glyph glyph-name="R" unicode="R" horiz-adv-x="954" 
d="M215 1366h289q191 0 284 -66q121 -87 121 -276q0 -264 -237 -403l157 -621h-278l-160 629l-78 -629h-266zM455 1153l-45 -375q14 -2 41 -2q95 0 146.5 65t51.5 163q0 75 -34.5 112t-108.5 37h-51z" />
    <glyph glyph-name="S" unicode="S" horiz-adv-x="788" 
d="M766 1321l-33 -264q-92 88 -182 88q-67 0 -109.5 -44t-42.5 -112q0 -40 18.5 -75.5t48 -63.5t65.5 -56.5t72 -61t65.5 -69.5t48 -88.5t18.5 -111.5q0 -128 -52.5 -238t-154 -179t-231.5 -69q-131 0 -225 70l32 258q98 -74 187 -74q78 0 128 48.5t50 126.5q0 33 -6 47
q-13 34 -64 75q-33 30 -65 52q-69 52 -109 95t-66 106t-26 143q0 118 48 222.5t142.5 172t215.5 67.5q117 0 227 -65z" />
    <glyph glyph-name="T" unicode="T" horiz-adv-x="684" 
d="M795 1366l-31 -250h-209l-137 -1116h-266l137 1116h-209l31 250h684z" />
    <glyph glyph-name="U" unicode="U" horiz-adv-x="1005" 
d="M1012 1366l-125 -1018q-9 -70 -22.5 -116t-47.5 -93q-60 -85 -161.5 -123.5t-219.5 -38.5q-104 0 -180.5 29.5t-124 98.5t-47.5 174q0 19 10 106l121 981h266l-110 -907q-11 -96 -11 -103q0 -133 113 -133q21 0 39 4t31.5 9.5t24.5 17.5t19 20t14.5 26.5t10 27.5
t7.5 32.5t5.5 32t4.5 34t4 32.5l112 907h267z" />
    <glyph glyph-name="V" unicode="V" horiz-adv-x="978" 
d="M1090 1366l-541 -1366h-217l-221 1366h286l78 -528q21 -147 21 -256v-115q3 11 35.5 142.5t56.5 197.5q2 5 6 15.5t6 15.5l213 528h277z" />
    <glyph glyph-name="W" unicode="W" horiz-adv-x="1400" 
d="M1503 1366l-444 -1366h-232l-57 522q-14 122 -14 209q0 80 12 240q-41 -207 -123 -434l-192 -537h-232l-104 1366h272l35 -600q4 -102 4 -152q0 -66 -12 -192q6 24 18 70.5t19.5 75.5t18.5 68.5t22 72.5q36 110 107.5 329t107.5 328h209l53 -686q8 -106 8 -162
q0 -16 -1 -48t-1 -48q3 30 33 188q1 5 11.5 58t18.5 80q1 4 10 30t13 41l162 547h278z" />
    <glyph glyph-name="X" unicode="X" horiz-adv-x="892" 
d="M981 1366l-369 -661l224 -705h-310q-5 17 -26.5 95t-32.5 120.5t-22 104.5t-11 102q-13 -35 -29 -73.5t-28.5 -68t-33.5 -73.5t-32 -66.5t-35.5 -72.5t-33.5 -68h-299l370 705l-202 661h299q7 -24 28 -94t31.5 -108.5t20.5 -96t10 -102.5q15 50 41.5 109t42.5 90.5
t59 109t51 92.5h287z" />
    <glyph glyph-name="Y" unicode="Y" horiz-adv-x="901" 
d="M1012 1366l-408 -782l-74 -584h-266l72 584l-225 782h292l68 -313q13 -57 29 -187q29 81 78 193l137 307h297z" />
    <glyph glyph-name="Z" unicode="Z" horiz-adv-x="919" 
d="M993 1366l-596 -1110h424l-33 -256h-808l583 1108h-391l31 258h790z" />
    <glyph glyph-name="bracketleft" unicode="[" horiz-adv-x="745" 
d="M799 1493l-33 -252h-266l-170 -1386h270l-31 -250h-538l231 1888h537z" />
    <glyph glyph-name="backslash" unicode="\" horiz-adv-x="1112" 
d="M135 1493h219l750 -1888h-225z" />
    <glyph glyph-name="bracketright" unicode="]" horiz-adv-x="745" 
d="M733 1493l-231 -1888h-535l31 252h266l170 1386h-270l31 250h538z" />
    <glyph glyph-name="asciicircum" unicode="^" 
d="M1038 686h-266l-233 479l-234 -479h-264l334 680h330z" />
    <glyph glyph-name="underscore" unicode="_" 
d="M967 -303h-1024v205h1024v-205z" />
    <glyph glyph-name="grave" unicode="`" 
d="M690 1133l-133 -74l-199 250l193 86z" />
    <glyph glyph-name="a" unicode="a" horiz-adv-x="798" 
d="M772 915l-110 -915h-254l12 104q-79 -122 -180 -122q-59 0 -100.5 34t-60.5 90t-26.5 108t-7.5 108q0 123 23 235q12 61 32.5 120t54 120t85.5 98t114 37q112 0 152 -129l14 112h252zM487 565q0 137 -59 137q-36 0 -62.5 -42t-39.5 -103.5t-19 -112.5t-6 -86
q0 -147 66 -147q35 0 60.5 43.5t37.5 107.5t17 115t5 88z" />
    <glyph glyph-name="b" unicode="b" horiz-adv-x="798" 
d="M459 1493l-84 -690q72 129 184 129q49 0 85.5 -22.5t57 -55.5t33 -79.5t16 -86t3.5 -84.5q0 -125 -23 -237q-10 -47 -24.5 -94.5t-40.5 -101.5t-57 -94.5t-76 -67.5t-95 -27q-101 0 -149 122l-13 -104h-253l184 1493h252zM496 557q0 21 -2.5 41.5t-8.5 46t-20 41.5
t-35 16q-35 0 -61 -43.5t-38.5 -106.5t-18 -114.5t-5.5 -87.5q0 -139 62 -139q36 0 62.5 42.5t39.5 104t19 113t6 86.5z" />
    <glyph glyph-name="c" unicode="c" horiz-adv-x="567" 
d="M582 907l-29 -225q-24 31 -68 31q-49 0 -86 -33t-56.5 -84t-28.5 -101t-9 -96q0 -178 115 -178q38 0 80 27l-29 -234q-74 -32 -147 -32q-75 0 -131 32t-87 87t-46 117.5t-15 133.5q0 122 38.5 245t111.5 212q102 125 262 125q62 0 125 -27z" />
    <glyph glyph-name="d" unicode="d" horiz-adv-x="806" 
d="M848 1493l-186 -1493h-254l12 104q-79 -122 -180 -122q-59 0 -100.5 34t-60.5 90t-26.5 108t-7.5 108q0 123 23 235q10 48 24 94.5t38.5 99t55 91t74.5 64.5t94 26q112 0 152 -129l90 690h252zM487 565q0 137 -59 137q-36 0 -62.5 -42t-39.5 -103.5t-19 -112.5t-6 -86
q0 -147 66 -147q35 0 60.5 43.5t37.5 107.5t17 115t5 88z" />
    <glyph glyph-name="e" unicode="e" horiz-adv-x="751" 
d="M455 315h213q-8 -69 -40 -140t-81 -116q-83 -77 -211 -77q-125 0 -199 77q-94 102 -94 283q0 132 44.5 269.5t133.5 224.5q96 96 228 96q100 0 169 -66q91 -89 91 -274q0 -68 -19 -180h-399q-12 -59 -12 -117q0 -72 24 -100q21 -21 53 -21q47 0 72 45q19 37 27 96z
M311 569h183q4 32 4 49q0 49 -17 82q-19 37 -57 37t-62 -28q-20 -21 -33.5 -63.5t-17.5 -76.5z" />
    <glyph glyph-name="f" unicode="f" horiz-adv-x="491" 
d="M604 1493l-31 -246q-23 15 -43 15t-35 -9t-23.5 -20.5t-14.5 -31.5t-8.5 -33.5t-4.5 -34.5l-28 -218h114l-24 -213h-115l-86 -702h-254l86 702h-92l27 213h92l41 310q11 91 26 126q9 20 21 40q37 59 104.5 90.5t141.5 31.5q44 0 106 -20z" />
    <glyph glyph-name="g" unicode="g" horiz-adv-x="806" 
d="M780 915l-121 -962q-5 -45 -8.5 -66.5t-13 -55t-25.5 -62.5q-51 -95 -142.5 -143t-203.5 -48q-133 0 -205.5 72.5t-72.5 206.5q0 37 2 39h221q0 -21 2 -36.5t9 -34.5t24.5 -29.5t44.5 -10.5q23 0 41 10.5t30.5 32t21 40.5t15 50.5t9 46.5t6.5 43l16 107
q-22 -31 -37.5 -49.5t-39 -40.5t-51 -32.5t-58.5 -10.5q-47 0 -84.5 23.5t-59 59.5t-35.5 84t-19 90.5t-5 84.5q0 60 8.5 132.5t31 158.5t55.5 155t88.5 115.5t123.5 46.5q62 0 100.5 -32.5t65.5 -94.5l14 110h252zM487 563q0 139 -61 139q-35 0 -61.5 -41.5t-40 -102
t-19.5 -111.5t-6 -85q0 -21 2.5 -42t8.5 -47t21 -42t36 -16q35 0 60.5 42.5t37.5 105t17 113.5t5 87z" />
    <glyph glyph-name="h" unicode="h" horiz-adv-x="794" 
d="M459 1493l-88 -721q48 75 103.5 117.5t131.5 42.5q72 0 105.5 -46.5t33.5 -121.5q0 -33 -14 -152l-74 -612h-254l66 522q6 47 6 94q0 60 -47 60q-21 0 -36.5 -10.5t-23.5 -23t-14.5 -36.5t-8 -37t-4.5 -38q-1 -6 -1 -9l-64 -522h-253l184 1493h252z" />
    <glyph glyph-name="i" unicode="i" horiz-adv-x="415" 
d="M461 1233q0 -72 -55 -126t-127 -54q-59 0 -99.5 42t-40.5 101q0 72 55.5 126t127.5 54q61 0 100 -41t39 -102zM389 915l-113 -915h-253l112 915h254z" />
    <glyph glyph-name="j" unicode="j" horiz-adv-x="411" 
d="M457 1233q0 -72 -55.5 -126t-127.5 -54q-59 0 -99 42t-40 101q0 72 55 126t127 54q61 0 100.5 -41t39.5 -102zM385 915l-164 -1337h-254l164 1337h254z" />
    <glyph glyph-name="k" unicode="k" horiz-adv-x="784" 
d="M801 915l-250 -405l182 -510h-266l-131 477l-60 -477h-253l184 1493h252l-113 -930l184 352h271z" />
    <glyph glyph-name="l" unicode="l" horiz-adv-x="417" 
d="M459 1493l-183 -1493h-253l184 1493h252z" />
    <glyph glyph-name="m" unicode="m" horiz-adv-x="1173" 
d="M389 915l-18 -147q53 77 109.5 120.5t133.5 43.5q123 0 138 -156q106 156 235 156q72 0 105.5 -47t33.5 -121q0 -37 -8 -111l-80 -653h-254l64 518q8 62 8 92q0 68 -49 68q-12 0 -22.5 -3.5t-18.5 -11t-14 -14.5t-10.5 -20.5t-7.5 -21.5t-5 -24t-3 -23t-3 -23t-2 -19
l-64 -518h-254l66 535q1 9 2.5 23.5t2.5 26.5t1 23q0 66 -45 66q-25 0 -42.5 -13t-26.5 -38t-12.5 -42.5t-6.5 -45.5l-66 -535h-253l112 915h254z" />
    <glyph glyph-name="n" unicode="n" horiz-adv-x="794" 
d="M389 915l-18 -143q48 75 103.5 117.5t131.5 42.5q72 0 105.5 -46.5t33.5 -121.5q0 -33 -14 -152l-74 -612h-254l66 522q6 47 6 94q0 60 -47 60q-21 0 -36.5 -10.5t-23.5 -23t-14.5 -36.5t-8 -37t-4.5 -38q-1 -6 -1 -9l-64 -522h-253l112 915h254z" />
    <glyph glyph-name="o" unicode="o" horiz-adv-x="790" 
d="M743 592q0 -82 -11.5 -162t-40.5 -163t-73 -144.5t-116.5 -101t-163.5 -39.5q-66 0 -117 21t-83.5 56t-53 85t-29 103t-8.5 115q0 97 23.5 193t70.5 182.5t128.5 140.5t185.5 54q144 0 216 -95.5t72 -244.5zM485 567q0 135 -59 135q-34 0 -60.5 -42t-39.5 -103t-19 -113
t-6 -86q0 -147 64 -147q35 0 60.5 43.5t37.5 108t17 116t5 88.5z" />
    <glyph glyph-name="p" unicode="p" horiz-adv-x="796" 
d="M387 915l-14 -112q72 129 184 129q49 0 85.5 -22.5t57 -55.5t33 -79.5t16 -86t3.5 -84.5q0 -125 -23 -237q-10 -47 -24.5 -94.5t-40.5 -101.5t-57 -94.5t-76 -67.5t-95 -27q-101 0 -149 122l-64 -526h-254l164 1337h254zM494 557q0 21 -2.5 41.5t-8.5 46t-20 41.5t-35 16
q-35 0 -61 -43.5t-38.5 -106.5t-18 -114.5t-5.5 -87.5q0 -139 64 -139q35 0 61.5 42.5t39 104t18.5 113t6 86.5z" />
    <glyph glyph-name="q" unicode="q" horiz-adv-x="798" 
d="M772 915l-164 -1337h-254l66 526q-79 -122 -180 -122q-59 0 -100.5 34t-60.5 90t-26.5 108t-7.5 108q0 123 23 235q10 48 24 94.5t38.5 99t55 91t74.5 64.5t94 26q112 0 152 -129l14 112h252zM487 565q0 137 -59 137q-36 0 -62.5 -42t-39.5 -103.5t-19 -112.5t-6 -86
q0 -147 66 -147q35 0 60.5 43.5t37.5 107.5t17 115t5 88z" />
    <glyph glyph-name="r" unicode="r" horiz-adv-x="561" 
d="M600 948l-31 -248q-30 5 -37 5q-46 0 -79.5 -11.5t-53 -29t-33 -49.5t-19 -61.5t-11.5 -76.5l-60 -477h-253l112 915h254l-14 -112q56 69 102.5 102t122.5 43z" />
    <glyph glyph-name="s" unicode="s" horiz-adv-x="634" 
d="M651 854l-123 -186q-54 61 -112 61q-32 0 -53 -22t-21 -54q0 -20 18 -38.5t45 -32t58 -34.5t58 -45t45 -65t18 -92q0 -148 -93 -256t-239 -108q-133 0 -258 104l135 182q60 -57 117 -57q37 0 62.5 24t25.5 62q0 26 -26 48t-62.5 42.5t-73 47.5t-62.5 75t-26 113
q0 140 98 224.5t240 84.5q127 0 229 -78z" />
    <glyph glyph-name="t" unicode="t" horiz-adv-x="462" 
d="M514 915l-25 -213h-102l-88 -702h-252l86 702h-86l27 213h86l33 261h251l-32 -261h102z" />
    <glyph glyph-name="u" unicode="u" horiz-adv-x="792" 
d="M766 915l-74 -606q-7 -64 -19.5 -103.5t-45.5 -82.5q-50 -66 -129 -103.5t-164 -37.5q-118 0 -198.5 66t-80.5 181q0 8 11 115l69 571h254l-65 -524q-9 -79 -9 -104q0 -68 52 -68q15 0 27.5 6.5t20.5 19.5t13.5 25t9 32t5.5 32t3.5 32t2.5 25l65 524h252z" />
    <glyph glyph-name="v" unicode="v" horiz-adv-x="739" 
d="M801 915l-373 -915h-233l-146 915h248q6 -52 20 -161.5t23.5 -194t15.5 -162.5q34 103 104 295.5t81 222.5h260z" />
    <glyph glyph-name="w" unicode="w" horiz-adv-x="1169" 
d="M1231 915l-361 -915h-206q-3 17 -14.5 92t-15 101t-12.5 89.5t-12.5 101t-8 90t-5.5 99.5q-15 -56 -32 -113t-40 -123t-37.5 -106.5t-44.5 -121t-41 -109.5h-208l-144 915h244q48 -368 57 -538l185 538h215q3 -30 14.5 -128.5t16.5 -145t11.5 -124t8.5 -140.5
q15 54 43 129l149 409h238z" />
    <glyph glyph-name="x" unicode="x" horiz-adv-x="778" 
d="M803 915l-281 -423l205 -492h-266l-49 133q-36 101 -47 143q-12 -24 -23 -44.5t-16.5 -29t-20 -31t-18.5 -28.5l-90 -143h-260l319 492l-172 423h258l33 -84q22 -54 37 -137q31 71 69 127l62 94h260z" />
    <glyph glyph-name="y" unicode="y" horiz-adv-x="735" 
d="M797 915l-545 -1337h-246l191 440l-152 897h252l45 -333q16 -121 18 -189l183 522h254z" />
    <glyph glyph-name="z" unicode="z" horiz-adv-x="688" 
d="M715 915l-365 -704h250l-27 -211h-604l373 702h-256l25 213h604z" />
    <glyph glyph-name="braceleft" unicode="{" horiz-adv-x="1032" 
d="M938 1489l-27 -223q-12 2 -37 2q-85 0 -120 -15q-20 -8 -33 -27t-17.5 -35t-9.5 -44q-5 -32 -18.5 -149.5t-29.5 -209t-38 -135.5q-12 -24 -31.5 -44t-34.5 -30.5t-46 -29.5q55 -38 75.5 -77.5t20.5 -106.5q0 -24 -4 -74q-2 -16 -16 -128.5t-23 -185.5q-8 -57 -8 -69
q0 -47 35 -63.5t92 -16.5q12 0 33.5 1t29.5 1l-26 -221q-86 -4 -130 -4q-70 0 -117 7.5t-90.5 29.5t-65 68.5t-21.5 117.5q0 29 8 100l45 346q2 14 2 45q0 60 -19.5 91.5t-74.5 42.5l26 213q63 15 94 53t39 104l48 377q21 167 105 230t257 63q21 0 63 -2t64 -2z" />
    <glyph glyph-name="bar" unicode="|" 
d="M643 -512h-252v2048h252v-2048z" />
    <glyph glyph-name="braceright" unicode="}" horiz-adv-x="1030" 
d="M838 649l-25 -213q-64 -14 -94.5 -53.5t-38.5 -106.5l-45 -378q-20 -161 -101.5 -227t-246.5 -66q-97 0 -144 4l29 221h64q76 0 111 23.5t42 95.5q0 18 2 26l39 320q13 98 44 153t110 103q-54 38 -74.5 79t-20.5 107q0 67 25 226t25 227q0 80 -133 80q-10 0 -30 -1
t-28 -1l27 221q98 4 147 4q65 0 112.5 -9.5t87 -33.5t59.5 -69.5t20 -112.5q0 -11 -1 -23t-2.5 -26t-2.5 -23l-47 -371q-5 -45 -5 -57q0 -102 95 -119z" />
    <glyph glyph-name="asciitilde" unicode="~" horiz-adv-x="1366" 
d="M1145 1526l143 -82q-3 -7 -13 -27.5t-14.5 -29.5t-14 -26.5t-16.5 -28.5t-16.5 -25t-19.5 -25q-43 -50 -103.5 -79t-125.5 -29t-193 53t-188 53q-57 0 -89 -32.5t-63 -94.5l-139 90q23 61 47.5 105.5t61 87.5t86.5 65.5t112 22.5q71 0 200.5 -53.5t190.5 -53.5
q55 0 88.5 27t65.5 82z" />
    <glyph glyph-name="uni00A0" unicode="&#xa0;" horiz-adv-x="477" 
 />
    <glyph glyph-name="exclamdown" unicode="&#xa1;" horiz-adv-x="581" 
d="M508 778q0 -76 -58 -134t-135 -58q-64 0 -106.5 43t-42.5 108q0 77 58 136t134 59q65 0 107.5 -44.5t42.5 -109.5zM436 498l-117 -955h-264l117 955h264z" />
    <glyph glyph-name="cent" unicode="&#xa2;" horiz-adv-x="886" 
d="M760 1135l-29 -230q-35 27 -63 27q-45 0 -81 -35.5t-56.5 -88t-31 -104.5t-10.5 -92q0 -31 4.5 -58t16 -53t34.5 -41.5t56 -15.5q37 0 78 23l-29 -229q-63 -33 -98 -35l-21 -156h-147l23 164q-53 16 -93 70q-42 49 -65 121t-23 143q0 85 16.5 176t50 179t91.5 155.5
t133 93.5l25 188h147l-20 -176q49 -8 92 -26z" />
    <glyph glyph-name="sterling" unicode="&#xa3;" horiz-adv-x="886" 
d="M895 1053l-238 -68q5 30 5 55q0 68 -31 99q-26 26 -78 26q-60 0 -94 -39q-41 -48 -41 -145q0 -26 3 -56t6 -47.5t11 -62t11 -61.5h229l-21 -164h-190q14 -47 14 -90q0 -73 -28 -135.5t-64 -104.5q50 -10 115 -43q60 -31 110 -31q76 0 125 72l138 -111q-50 -78 -103 -118
q-69 -52 -164 -52q-69 0 -178 37q-5 2 -38 13.5t-46 15.5t-41 9t-53 5q-76 0 -160 -57l-88 145q92 65 168 88q62 97 62 216q0 73 -27 141h-174l20 164h123q-26 105 -26 215q0 198 118 311q108 106 301 106q166 0 250 -86q76 -79 76 -206q0 -27 -2 -41z" />
    <glyph glyph-name="currency" unicode="&#xa4;" horiz-adv-x="1366" 
d="M1356 279l-137 -138l-209 209q-136 -94 -289 -94q-144 0 -289 92l-209 -207l-137 138l209 208q-90 128 -90 283q0 148 92 281l-213 211l139 139l211 -211q133 90 287 90q149 0 283 -88l208 207l138 -137l-207 -207q47 -74 70.5 -141t23.5 -146q0 -144 -92 -281zM1006 768
q0 119 -83.5 203t-201.5 84q-119 0 -203 -84.5t-84 -202.5t84 -202.5t203 -84.5q118 0 201.5 84t83.5 203z" />
    <glyph glyph-name="yen" unicode="&#xa5;" horiz-adv-x="886" 
d="M1006 1366l-263 -467h164l-18 -139h-223l-62 -107h273l-17 -139h-272l-64 -514h-268l63 514h-280l16 139h283l-37 107h-231l16 139h170l-154 467h293l90 -358q2 -8 7 -37t10 -43q3 8 35 80l170 358h299z" />
    <glyph glyph-name="brokenbar" unicode="&#xa6;" 
d="M643 686h-254v850h254v-850zM643 -512h-254v850h254v-850z" />
    <glyph glyph-name="section" unicode="&#xa7;" horiz-adv-x="874" 
d="M838 1243v-49q0 -29 -2 -43h-232v39q0 23 -1.5 39t-7 38t-20 34t-36.5 12q-46 0 -71.5 -48t-25.5 -98q0 -48 23 -89t61 -73t78 -60.5t83 -64.5t67 -71q39 -67 39 -191q0 -131 -46 -245t-143 -180q80 -77 80 -242q0 -154 -99 -263.5t-251 -109.5q-127 0 -201 79.5
t-74 207.5q0 17 1 49t1 49h234q-4 -29 -4 -88q0 -94 67 -94q47 0 72 49.5t25 101.5q0 49 -19.5 85.5t-51 59.5t-69 44.5t-75.5 49t-69.5 63.5t-51 98t-19.5 143q0 127 52 236.5t151 181.5q-92 102 -92 221q0 71 25 142t69 129.5t112 94.5t148 36q121 0 197 -76t76 -197z
M563 614q0 144 -92 144q-40 0 -70 -32t-45 -80.5t-21.5 -92.5t-6.5 -82q0 -149 90 -149q145 0 145 292z" />
    <glyph glyph-name="dieresis" unicode="&#xa8;" horiz-adv-x="970" 
d="M887 1208q0 -61 -46.5 -105t-107.5 -44q-50 0 -82.5 34.5t-32.5 84.5q0 60 45 105.5t105 45.5q51 0 85 -35t34 -86zM532 1208q0 -60 -45.5 -104.5t-105.5 -44.5q-51 0 -84 34t-33 85q0 60 45 105.5t105 45.5q51 0 84.5 -35t33.5 -86z" />
    <glyph glyph-name="copyright" unicode="&#xa9;" horiz-adv-x="1560" 
d="M1518 682q0 -144 -56 -276t-150.5 -227.5t-226 -152.5t-276.5 -57t-277 56.5t-227.5 152t-152 227.5t-56.5 277t56.5 277t152 227.5t227.5 152t277 56.5t276.5 -57t226 -152.5t150.5 -227.5t56 -276zM1378 682q0 157 -74 292.5t-205.5 216.5t-289.5 81q-159 0 -291 -80
t-207 -215t-75 -293t75 -293.5t207.5 -216t290.5 -80.5q118 0 224.5 48t181.5 128t119 187.5t44 224.5zM967 449v-168q-53 -17 -90 -17q-174 0 -284 124.5t-110 299.5q0 166 109.5 290t273.5 124q45 0 101 -17v-163q-42 10 -74 10q-100 0 -155.5 -70.5t-55.5 -173.5
q0 -99 56.5 -176.5t150.5 -77.5q31 0 78 15z" />
    <glyph glyph-name="ordfeminine" unicode="&#xaa;" horiz-adv-x="583" 
d="M606 1366l-74 -604h-176l4 41q-48 -51 -102 -51q-36 0 -62 20.5t-40 56.5t-20.5 76t-6.5 86q0 62 10.5 124.5t32.5 124t64 100t98 38.5q31 0 51.5 -12.5t40.5 -40.5l6 41h174zM524 698l-12 -90h-430l12 90h430zM408 1161q0 70 -31 70q-19 0 -34 -23.5t-23 -59.5
t-11.5 -70t-3.5 -64q0 -111 35 -111q63 0 68 258z" />
    <glyph glyph-name="guillemotleft" unicode="&#xab;" horiz-adv-x="798" 
d="M782 831l-225 -352l141 -344l-145 -78l-182 422l284 422zM473 831l-225 -352l141 -344l-145 -78l-183 422l285 422z" />
    <glyph glyph-name="logicalnot" unicode="&#xac;" 
d="M932 0h-252v319h-635v228h887v-547z" />
    <glyph glyph-name="uni00AD" unicode="&#xad;" horiz-adv-x="548" 
d="M436 391h-344l29 221h344z" />
    <glyph glyph-name="registered" unicode="&#xae;" horiz-adv-x="1560" 
d="M1090 297h-199l-131 346v-346h-185v799h193q58 0 108 -11.5t92 -36t66.5 -69t24.5 -105.5q0 -82 -29.5 -133t-93.5 -82zM760 758h12q55 0 77.5 25t22.5 85q0 45 -21 66.5t-75 21.5h-16v-198zM1378 682q0 157 -74 292.5t-205.5 216.5t-289.5 81q-159 0 -291 -80t-207 -215
t-75 -293t75 -293.5t207.5 -216t290.5 -80.5q118 0 224.5 48t181.5 128t119 187.5t44 224.5zM1518 682q0 -144 -56 -276t-150.5 -227.5t-226 -152.5t-276.5 -57t-277 56.5t-227.5 152t-152 227.5t-56.5 277t56.5 277t152 227.5t227.5 152t277 56.5t276.5 -57t226 -152.5
t150.5 -227.5t56 -276z" />
    <glyph glyph-name="macron" unicode="&#xaf;" 
d="M897 1251l-20 -164h-578l20 164h578z" />
    <glyph glyph-name="degree" unicode="&#xb0;" 
d="M897 1047q0 -128 -92.5 -218t-220.5 -90t-221 90t-93 218t92.5 217.5t221.5 89.5q128 0 220.5 -89.5t92.5 -217.5zM745 1047q0 66 -47.5 112.5t-113.5 46.5q-67 0 -114.5 -46t-47.5 -113t47.5 -112.5t114.5 -45.5q65 0 113 46.5t48 111.5z" />
    <glyph glyph-name="plusminus" unicode="&#xb1;" 
d="M965 727h-318v-317h-254v317h-317v234h317v319h254v-319h318v-234zM965 106h-889v234h889v-234z" />
    <glyph glyph-name="twosuperior" unicode="&#xb2;" horiz-adv-x="577" 
d="M301 1071h-168q5 146 64.5 227.5t197.5 81.5q211 0 211 -182q0 -49 -17.5 -99t-38 -85t-53.5 -84q-8 -11 -12 -17l-145 -215h192l-18 -151h-463l246 354q82 119 107 175q28 61 28 108q0 69 -49 69q-75 0 -82 -182z" />
    <glyph glyph-name="threesuperior" unicode="&#xb3;" horiz-adv-x="579" 
d="M319 1124h-159q15 128 68 191t175 63q82 0 136.5 -47.5t54.5 -128.5q0 -74 -29 -137.5t-90 -93.5q98 -35 98 -156q0 -124 -79 -202t-203 -78q-91 0 -152 44.5t-61 131.5q0 21 4 61h172q-6 -42 -6 -43q0 -25 12.5 -41t36.5 -16q25 0 42.5 16.5t26 42.5t12 49.5t3.5 46.5
q0 22 -6.5 36.5t-15 22t-26 11t-28.5 4t-34 0.5h-5h-4l19 148q80 0 111.5 26t31.5 103q0 23 -10.5 39t-32.5 16q-56 0 -62 -109z" />
    <glyph glyph-name="acute" unicode="&#xb4;" 
d="M872 1309l-260 -250l-114 74l204 262z" />
    <glyph glyph-name="mu" unicode="&#xb5;" horiz-adv-x="1071" 
d="M932 0h-254l14 115q-33 -73 -88 -105q-48 -30 -123 -30q-80 0 -129 51q-41 41 -59 112l-68 -565h-256l164 1337h256l-51 -419q-10 -78 -10 -125q0 -91 51 -142q53 -49 131 -49q89 0 139 45q23 21 38 47.5t24.5 63.5t13.5 61t10 72l56 446h253z" />
    <glyph glyph-name="mu" unicode="&#x3bc;" horiz-adv-x="1071" 
d="M932 0h-254l14 115q-33 -73 -88 -105q-48 -30 -123 -30q-80 0 -129 51q-41 41 -59 112l-68 -565h-256l164 1337h256l-51 -419q-10 -78 -10 -125q0 -91 51 -142q53 -49 131 -49q89 0 139 45q23 21 38 47.5t24.5 63.5t13.5 61t10 72l56 446h253z" />
    <glyph glyph-name="paragraph" unicode="&#xb6;" horiz-adv-x="1345" 
d="M1307 1366l-25 -195h-147l-170 -1376h-215l172 1376h-177l-170 -1376h-215l109 860h-27q-142 0 -233.5 80t-91.5 221q0 84 33 163t94 134q123 113 391 113h672z" />
    <glyph glyph-name="periodcentered" unicode="&#xb7;" horiz-adv-x="571" 
d="M508 707q0 -92 -70 -161t-162 -69q-76 0 -128 51.5t-52 128.5q0 92 70 163t162 71q79 0 129.5 -52.5t50.5 -131.5z" />
    <glyph glyph-name="cedilla" unicode="&#xb8;" 
d="M602 -152l-217 -243l-104 59l170 250z" />
    <glyph glyph-name="onesuperior" unicode="&#xb9;" horiz-adv-x="577" 
d="M498 1366l-101 -819h-176l82 665h-80l19 154h256z" />
    <glyph glyph-name="ordmasculine" unicode="&#xba;" horiz-adv-x="583" 
d="M129 999q0 208 104 312q67 67 166 67q78 0 127 -49q68 -68 68 -207q0 -194 -102 -301q-63 -69 -164 -69q-80 0 -133 53q-66 68 -66 194zM522 608h-436l12 90h437zM381 1227q-16 0 -29 -13q-20 -23 -35 -98q-12 -64 -12 -129q0 -62 14 -76q8 -8 17 -8q17 0 29 12
q22 22 36 103q13 76 13 129q0 52 -11 67q-8 13 -22 13z" />
    <glyph glyph-name="guillemotright" unicode="&#xbb;" horiz-adv-x="798" 
d="M739 479l-284 -422l-125 78l223 344l-139 352l145 70zM430 479l-285 -422l-125 78l224 344l-140 352l146 70z" />
    <glyph glyph-name="onequarter" unicode="&#xbc;" horiz-adv-x="1452" 
d="M1386 340l-18 -152h-70l-22 -188h-176l24 188h-247l16 134l289 497h194l-59 -479h69zM1221 1366l-809 -1366h-156l809 1366h156zM498 1366l-101 -819h-176l82 665h-80l19 154h256zM1174 596l-140 -256h109z" />
    <glyph glyph-name="onehalf" unicode="&#xbd;" horiz-adv-x="1449" 
d="M1106 526h-166q2 70 15 123t42 96t80 66t123 23q97 0 154 -43t57 -138q0 -69 -28 -129.5t-80 -136.5q-62 -91 -156 -235h192l-20 -152h-463l248 354q31 45 43.5 65t39 65.5t38.5 83t12 69.5q0 72 -49 72q-75 0 -82 -183zM1221 1366l-809 -1366h-156l809 1366h156z
M498 1366l-101 -819h-176l82 665h-80l19 154h256z" />
    <glyph glyph-name="threequarters" unicode="&#xbe;" horiz-adv-x="1452" 
d="M1389 340l-19 -152h-72l-22 -188h-174l22 188h-245l16 134l289 497h192l-57 -479h70zM1221 1366l-807 -1366h-156l809 1366h154zM319 1124h-159q15 128 68 191t175 63q82 0 136.5 -47.5t54.5 -128.5q0 -74 -29 -137.5t-90 -93.5q98 -35 98 -156q0 -124 -79 -202t-203 -78
q-91 0 -152 44.5t-61 131.5q0 21 4 61h172q-6 -42 -6 -43q0 -25 12.5 -41t36.5 -16q25 0 42.5 16.5t26 42.5t12 49.5t3.5 46.5q0 22 -6.5 36.5t-15 22t-26 11t-28.5 4t-34 0.5h-5h-4l19 148q80 0 111.5 26t31.5 103q0 23 -10.5 39t-32.5 16q-56 0 -62 -109zM1176 596
l-142 -256h109z" />
    <glyph glyph-name="questiondown" unicode="&#xbf;" horiz-adv-x="835" 
d="M625 778q0 -76 -58 -134t-135 -58q-64 0 -106.5 43t-42.5 108q0 77 58 136t134 59q65 0 107.5 -44.5t42.5 -109.5zM467 -80h250q-15 -117 -43 -180q-43 -103 -137 -160t-209 -57q-155 0 -241.5 93.5t-86.5 250.5q0 80 27 167.5t73 153.5q58 82 168 117l21 176h262
l-41 -334q-18 3 -39 3q-48 0 -85 -25t-58 -65.5t-31 -85t-10 -89.5q0 -125 75 -125q28 0 49 16t33 41.5t17.5 51.5t5.5 51z" />
    <glyph glyph-name="Agrave" unicode="&#xc0;" horiz-adv-x="927" 
d="M864 0h-282l-23 229h-268l-76 -229h-266l481 1366h281zM358 440h187q-3 36 -9 114t-8.5 114.5t-7 114.5t-4 115t1.5 116q-25 -127 -47 -211q-14 -56 -31 -111.5t-45.5 -141.5t-36.5 -110zM682 1530l-133 -74l-205 234l178 102z" />
    <glyph glyph-name="Aacute" unicode="&#xc1;" horiz-adv-x="927" 
d="M864 0h-282l-23 229h-268l-76 -229h-266l481 1366h281zM358 440h187q-3 36 -9 114t-8.5 114.5t-7 114.5t-4 115t1.5 116q-25 -127 -47 -211q-14 -56 -31 -111.5t-45.5 -141.5t-36.5 -110zM455 1530l192 262l166 -102l-233 -234z" />
    <glyph glyph-name="Acircumflex" unicode="&#xc2;" horiz-adv-x="927" 
d="M864 0h-282l-23 229h-268l-76 -229h-266l481 1366h281zM358 440h187q-3 36 -9 114t-8.5 114.5t-7 114.5t-4 115t1.5 116q-25 -127 -47 -211q-14 -56 -31 -111.5t-45.5 -141.5t-36.5 -110zM846 1595l-123 -112l-135 127l-172 -127l-84 127l280 205z" />
    <glyph glyph-name="Atilde" unicode="&#xc3;" horiz-adv-x="927" 
d="M864 0h-282l-23 229h-268l-76 -229h-266l481 1366h281zM358 440h187q-3 36 -9 114t-8.5 114.5t-7 114.5t-4 115t1.5 116q-25 -127 -47 -211q-14 -56 -31 -111.5t-45.5 -141.5t-36.5 -110zM762 1733l131 -9q-11 -40 -20 -67t-26.5 -63t-37.5 -57.5t-51.5 -37.5t-69.5 -16
q-44 0 -113 31.5t-96 31.5q-45 0 -63 -57h-131q9 40 17 68t24.5 63.5t36 57.5t50.5 37.5t70 15.5q45 0 109.5 -35t97.5 -35q10 0 18 1.5t15 6.5t11 7.5t9 12t6.5 12.5t6.5 16t6 16z" />
    <glyph glyph-name="Adieresis" unicode="&#xc4;" horiz-adv-x="927" 
d="M864 0h-282l-23 229h-268l-76 -229h-266l481 1366h281zM358 440h187q-3 36 -9 114t-8.5 114.5t-7 114.5t-4 115t1.5 116q-25 -127 -47 -211q-14 -56 -31 -111.5t-45.5 -141.5t-36.5 -110zM877 1632q0 -61 -46.5 -105t-107.5 -44q-50 0 -82.5 34.5t-32.5 84.5
q0 60 45 105.5t105 45.5q51 0 85 -35t34 -86zM522 1632q0 -60 -45.5 -104.5t-105.5 -44.5q-51 0 -84 34t-33 85q0 60 44.5 105.5t104.5 45.5q51 0 85 -35t34 -86z" />
    <glyph glyph-name="Aring" unicode="&#xc5;" horiz-adv-x="927" 
d="M864 0h-282l-23 229h-268l-76 -229h-266l481 1366h281zM358 440h187q-3 36 -9 114t-8.5 114.5t-7 114.5t-4 115t1.5 116q-25 -127 -47 -211q-14 -56 -31 -111.5t-45.5 -141.5t-36.5 -110zM406 1659q0 82 57 139t139 57t139.5 -57t57.5 -139t-57.5 -139.5t-139.5 -57.5
t-139 57.5t-57 139.5zM518 1659q0 -37 23.5 -60.5t60.5 -23.5t60.5 23.5t23.5 60.5t-23.5 60.5t-60.5 23.5t-60.5 -23.5t-23.5 -60.5z" />
    <glyph glyph-name="AE" unicode="&#xc6;" horiz-adv-x="1193" 
d="M1124 0h-540l-21 227h-280l-68 -227h-266l473 1366h549l24 -254h-264l33 -283h266l31 -258h-264l39 -315h256zM354 442h191q-15 140 -27 289q-8 90 -8 135q0 24 1 73t1 73q-32 -171 -68 -285z" />
    <glyph glyph-name="Ccedilla" unicode="&#xc7;" horiz-adv-x="856" 
d="M752 317l-39 -282q-96 -49 -207 -49q-168 0 -273 108q-66 67 -102.5 176.5t-36.5 245.5q0 127 26.5 256.5t88 257t149.5 209.5q147 141 367 141q93 0 172 -39l-39 -284q-63 65 -149 65q-88 0 -164 -73q-76 -76 -120 -227.5t-44 -284.5q0 -146 59 -224q52 -67 138 -67
q98 0 174 71zM618 -158l-223 -262l-123 74l162 260z" />
    <glyph glyph-name="Egrave" unicode="&#xc8;" horiz-adv-x="716" 
d="M750 1366l-31 -254h-268l-37 -295h237l-33 -258h-235l-39 -307h272l-30 -252h-539l168 1366h535zM631 1530l-133 -74l-205 234l178 102z" />
    <glyph glyph-name="Eacute" unicode="&#xc9;" horiz-adv-x="716" 
d="M750 1366l-31 -254h-268l-37 -295h237l-33 -258h-235l-39 -307h272l-30 -252h-539l168 1366h535zM348 1530l193 262l166 -102l-234 -234z" />
    <glyph glyph-name="Ecircumflex" unicode="&#xca;" horiz-adv-x="716" 
d="M750 1366l-31 -254h-268l-37 -295h237l-33 -258h-235l-39 -307h272l-30 -252h-539l168 1366h535zM784 1595l-122 -112l-136 127l-172 -127l-84 127l281 205z" />
    <glyph glyph-name="Edieresis" unicode="&#xcb;" horiz-adv-x="716" 
d="M750 1366l-31 -254h-268l-37 -295h237l-33 -258h-235l-39 -307h272l-30 -252h-539l168 1366h535zM825 1632q0 -61 -46 -105t-107 -44q-50 0 -82.5 34.5t-32.5 84.5q0 60 45 105.5t105 45.5q51 0 84.5 -35t33.5 -86zM471 1632q0 -60 -46 -104.5t-106 -44.5q-51 0 -83.5 34
t-32.5 85q0 60 44.5 105.5t104.5 45.5q51 0 85 -35t34 -86z" />
    <glyph glyph-name="Igrave" unicode="&#xcc;" horiz-adv-x="475" 
d="M481 1366l-168 -1366h-266l168 1366h266zM467 1530l-133 -74l-205 234l178 102z" />
    <glyph glyph-name="Iacute" unicode="&#xcd;" horiz-adv-x="475" 
d="M481 1366l-168 -1366h-266l168 1366h266zM227 1530l193 262l166 -102l-234 -234z" />
    <glyph glyph-name="Icircumflex" unicode="&#xce;" horiz-adv-x="475" 
d="M481 1366l-168 -1366h-266l168 1366h266zM631 1595l-123 -112l-135 127l-172 -127l-84 127l280 205z" />
    <glyph glyph-name="Idieresis" unicode="&#xcf;" horiz-adv-x="475" 
d="M481 1366l-168 -1366h-266l168 1366h266zM682 1632q0 -61 -46.5 -105t-107.5 -44q-50 0 -82 34.5t-32 84.5q0 60 44.5 105.5t104.5 45.5q51 0 85 -35t34 -86zM328 1632q0 -60 -46 -104.5t-106 -44.5q-51 0 -84 34t-33 85q0 60 45 105.5t105 45.5q51 0 85 -35t34 -86z" />
    <glyph glyph-name="Eth" unicode="&#xd0;" horiz-adv-x="985" 
d="M217 1366h223q85 0 145.5 -9t119.5 -38q67 -33 115.5 -88t75 -122.5t38.5 -137t12 -146.5q0 -188 -55.5 -368.5t-171.5 -300.5q-151 -156 -412 -156h-258l74 600h-96l24 205h96zM389 600l-43 -352q65 2 112.5 24.5t86.5 73.5q65 81 98 199.5t33 234.5q0 212 -94 299
q-28 26 -56 35t-73 12l-39 -321h149l-24 -205h-150z" />
    <glyph glyph-name="Ntilde" unicode="&#xd1;" horiz-adv-x="1044" 
d="M1049 1366l-168 -1366h-250l-230 823q0 -117 -8 -176l-80 -647h-266l168 1366h252l229 -825q-2 33 -2 98q0 59 4 90l80 637h271zM844 1733l131 -9q-11 -40 -20 -67t-26.5 -63t-37.5 -57.5t-51.5 -37.5t-69.5 -16q-44 0 -113 31.5t-96 31.5q-45 0 -63 -57h-131q9 40 17 68
t24.5 63.5t36 57.5t50.5 37.5t70 15.5q45 0 109.5 -35t97.5 -35q10 0 18 1.5t15 6.5t11 7.5t9 12t6.5 12.5t6.5 16t6 16z" />
    <glyph glyph-name="Ograve" unicode="&#xd2;" horiz-adv-x="1093" 
d="M1059 889q0 -276 -72 -481q-30 -87 -76.5 -162t-108.5 -136.5t-144.5 -97t-174.5 -35.5q-98 0 -185.5 53.5t-137.5 139.5q-72 122 -72 324q0 207 45 372q26 102 70.5 191t108.5 165t155 120t197 44q80 0 146 -28.5t111.5 -76.5t77 -112.5t46 -135t14.5 -144.5zM774 874
q0 41 -6 81.5t-20 84.5t-45 71.5t-74 27.5q-44 0 -83 -31t-64.5 -76.5t-46 -104t-30.5 -105.5t-16 -89q-16 -101 -16 -231q0 -40 6 -80.5t20.5 -84.5t45 -71.5t73.5 -27.5q45 0 84 31t64.5 76t45.5 103.5t30 105t16 89.5q16 101 16 231zM836 1530l-134 -74l-204 234l178 102
z" />
    <glyph glyph-name="Oacute" unicode="&#xd3;" horiz-adv-x="1093" 
d="M1059 889q0 -276 -72 -481q-30 -87 -76.5 -162t-108.5 -136.5t-144.5 -97t-174.5 -35.5q-98 0 -185.5 53.5t-137.5 139.5q-72 122 -72 324q0 207 45 372q26 102 70.5 191t108.5 165t155 120t197 44q80 0 146 -28.5t111.5 -76.5t77 -112.5t46 -135t14.5 -144.5zM774 874
q0 41 -6 81.5t-20 84.5t-45 71.5t-74 27.5q-44 0 -83 -31t-64.5 -76.5t-46 -104t-30.5 -105.5t-16 -89q-16 -101 -16 -231q0 -40 6 -80.5t20.5 -84.5t45 -71.5t73.5 -27.5q45 0 84 31t64.5 76t45.5 103.5t30 105t16 89.5q16 101 16 231zM537 1530l192 262l166 -102
l-233 -234z" />
    <glyph glyph-name="Ocircumflex" unicode="&#xd4;" horiz-adv-x="1093" 
d="M1059 889q0 -276 -72 -481q-30 -87 -76.5 -162t-108.5 -136.5t-144.5 -97t-174.5 -35.5q-98 0 -185.5 53.5t-137.5 139.5q-72 122 -72 324q0 207 45 372q26 102 70.5 191t108.5 165t155 120t197 44q80 0 146 -28.5t111.5 -76.5t77 -112.5t46 -135t14.5 -144.5zM774 874
q0 41 -6 81.5t-20 84.5t-45 71.5t-74 27.5q-44 0 -83 -31t-64.5 -76.5t-46 -104t-30.5 -105.5t-16 -89q-16 -101 -16 -231q0 -40 6 -80.5t20.5 -84.5t45 -71.5t73.5 -27.5q45 0 84 31t64.5 76t45.5 103.5t30 105t16 89.5q16 101 16 231zM938 1595l-123 -112l-135 127
l-172 -127l-84 127l281 205z" />
    <glyph glyph-name="Otilde" unicode="&#xd5;" horiz-adv-x="1093" 
d="M1059 889q0 -276 -72 -481q-30 -87 -76.5 -162t-108.5 -136.5t-144.5 -97t-174.5 -35.5q-98 0 -185.5 53.5t-137.5 139.5q-72 122 -72 324q0 207 45 372q26 102 70.5 191t108.5 165t155 120t197 44q80 0 146 -28.5t111.5 -76.5t77 -112.5t46 -135t14.5 -144.5zM774 874
q0 41 -6 81.5t-20 84.5t-45 71.5t-74 27.5q-44 0 -83 -31t-64.5 -76.5t-46 -104t-30.5 -105.5t-16 -89q-16 -101 -16 -231q0 -40 6 -80.5t20.5 -84.5t45 -71.5t73.5 -27.5q45 0 84 31t64.5 76t45.5 103.5t30 105t16 89.5q16 101 16 231zM854 1733l131 -9q-11 -40 -20 -67
t-26.5 -63t-37.5 -57.5t-51.5 -37.5t-69.5 -16q-44 0 -113 31.5t-96 31.5q-45 0 -63 -57h-131q9 40 17 68t24.5 63.5t36 57.5t50.5 37.5t70 15.5q45 0 109.5 -35t97.5 -35q10 0 18 1.5t15 6.5t11 7.5t9 12t6.5 12.5t6.5 16t6 16z" />
    <glyph glyph-name="Odieresis" unicode="&#xd6;" horiz-adv-x="1093" 
d="M1059 889q0 -276 -72 -481q-30 -87 -76.5 -162t-108.5 -136.5t-144.5 -97t-174.5 -35.5q-98 0 -185.5 53.5t-137.5 139.5q-72 122 -72 324q0 207 45 372q26 102 70.5 191t108.5 165t155 120t197 44q80 0 146 -28.5t111.5 -76.5t77 -112.5t46 -135t14.5 -144.5zM774 874
q0 41 -6 81.5t-20 84.5t-45 71.5t-74 27.5q-44 0 -83 -31t-64.5 -76.5t-46 -104t-30.5 -105.5t-16 -89q-16 -101 -16 -231q0 -40 6 -80.5t20.5 -84.5t45 -71.5t73.5 -27.5q45 0 84 31t64.5 76t45.5 103.5t30 105t16 89.5q16 101 16 231zM989 1632q0 -61 -46 -105t-107 -44
q-50 0 -82.5 34.5t-32.5 84.5q0 60 44.5 105.5t104.5 45.5q51 0 85 -35t34 -86zM635 1632q0 -60 -46 -104.5t-106 -44.5q-51 0 -83.5 34t-32.5 85q0 60 44.5 105.5t104.5 45.5q51 0 85 -35t34 -86z" />
    <glyph glyph-name="multiply" unicode="&#xd7;" 
d="M768 297l-231 231l-232 -231l-166 168l232 231l-232 230l166 168l232 -232l231 232l166 -168l-232 -230l232 -231z" />
    <glyph glyph-name="Oslash" unicode="&#xd8;" horiz-adv-x="1093" 
d="M1118 1313l-112 -154q31 -68 41 -134t10 -157q0 -233 -62 -436q-22 -70 -54.5 -134.5t-79.5 -123.5t-102.5 -102.5t-125 -69t-144.5 -25.5q-81 0 -145 28t-131 87l-80 -104l-94 67l106 140q-35 77 -46 142.5t-11 160.5q0 207 45 372q21 81 53 153t79.5 139.5t105 116.5
t134.5 78t163 29q159 0 272 -122l84 110zM373 498l383 524q-37 121 -125 121q-52 0 -94 -36t-68.5 -97.5t-46 -129.5t-29.5 -146.5t-14.5 -133t-5.5 -102.5zM774 848l-377 -516q44 -101 125 -101q43 0 79.5 27t61 68t44 101t31 114.5t19.5 119.5t11.5 105t5.5 82z" />
    <glyph glyph-name="Ugrave" unicode="&#xd9;" horiz-adv-x="1005" 
d="M1012 1366l-125 -1018q-9 -70 -22.5 -116t-47.5 -93q-60 -85 -161.5 -123.5t-219.5 -38.5q-104 0 -180.5 29.5t-124 98.5t-47.5 174q0 19 10 106l121 981h266l-110 -907q-11 -96 -11 -103q0 -133 113 -133q21 0 39 4t31.5 9.5t24.5 17.5t19 20t14.5 26.5t10 27.5
t7.5 32.5t5.5 32t4.5 34t4 32.5l112 907h267zM713 1530l-133 -74l-205 234l178 102z" />
    <glyph glyph-name="Uacute" unicode="&#xda;" horiz-adv-x="1005" 
d="M1012 1366l-125 -1018q-9 -70 -22.5 -116t-47.5 -93q-60 -85 -161.5 -123.5t-219.5 -38.5q-104 0 -180.5 29.5t-124 98.5t-47.5 174q0 19 10 106l121 981h266l-110 -907q-11 -96 -11 -103q0 -133 113 -133q21 0 39 4t31.5 9.5t24.5 17.5t19 20t14.5 26.5t10 27.5
t7.5 32.5t5.5 32t4.5 34t4 32.5l112 907h267zM494 1530l192 262l166 -102l-234 -234z" />
    <glyph glyph-name="Ucircumflex" unicode="&#xdb;" horiz-adv-x="1005" 
d="M1012 1366l-125 -1018q-9 -70 -22.5 -116t-47.5 -93q-60 -85 -161.5 -123.5t-219.5 -38.5q-104 0 -180.5 29.5t-124 98.5t-47.5 174q0 19 10 106l121 981h266l-110 -907q-11 -96 -11 -103q0 -133 113 -133q21 0 39 4t31.5 9.5t24.5 17.5t19 20t14.5 26.5t10 27.5
t7.5 32.5t5.5 32t4.5 34t4 32.5l112 907h267zM897 1595l-123 -112l-135 127l-172 -127l-84 127l281 205z" />
    <glyph glyph-name="Udieresis" unicode="&#xdc;" horiz-adv-x="1005" 
d="M1012 1366l-125 -1018q-9 -70 -22.5 -116t-47.5 -93q-60 -85 -161.5 -123.5t-219.5 -38.5q-104 0 -180.5 29.5t-124 98.5t-47.5 174q0 19 10 106l121 981h266l-110 -907q-11 -96 -11 -103q0 -133 113 -133q21 0 39 4t31.5 9.5t24.5 17.5t19 20t14.5 26.5t10 27.5
t7.5 32.5t5.5 32t4.5 34t4 32.5l112 907h267zM948 1632q0 -61 -46 -105t-107 -44q-50 0 -82.5 34.5t-32.5 84.5q0 60 44.5 105.5t104.5 45.5q51 0 85 -35t34 -86zM594 1632q0 -60 -46 -104.5t-106 -44.5q-51 0 -83.5 34t-32.5 85q0 60 44.5 105.5t104.5 45.5q51 0 85 -35
t34 -86z" />
    <glyph glyph-name="Yacute" unicode="&#xdd;" horiz-adv-x="901" 
d="M1012 1366l-408 -782l-74 -584h-266l72 584l-225 782h292l68 -313q13 -57 29 -187q29 81 78 193l137 307h297zM424 1530l192 262l166 -102l-233 -234z" />
    <glyph glyph-name="Thorn" unicode="&#xde;" horiz-adv-x="876" 
d="M481 1366l-24 -192h31.5h33t30 -0.5t32.5 -2t29 -3.5t32 -5.5t29 -8t31 -11.5t28 -15q74 -45 109 -123.5t35 -173.5q0 -206 -127 -335t-332 -129q-40 0 -60 4l-45 -371h-266l168 1366h266zM430 956l-43 -360q34 0 52 1t44.5 7.5t46.5 20.5q82 52 82 184q0 79 -31.5 113
t-109.5 34h-41z" />
    <glyph glyph-name="germandbls" unicode="&#xdf;" horiz-adv-x="854" 
d="M63 0l87 702h-113l26 213h113l19 148q5 45 16 119q25 159 121 246.5t252 87.5q136 0 205 -79.5t69 -217.5q0 -323 -180 -400q72 -47 99.5 -111.5t27.5 -158.5q0 -98 -26 -215t-70 -197q-39 -70 -107.5 -108.5t-148.5 -38.5q-35 0 -80 10l28 229q32 3 48.5 13t31.5 37
q25 45 39.5 132t14.5 154q0 47 -15 88q-9 23 -21.5 33t-39.5 16l28 228q28 6 43.5 16.5t26.5 34.5q35 74 35 213q0 94 -55 94q-14 0 -26 -6.5t-20 -19.5t-13.5 -25t-9.5 -32.5t-6 -31t-4.5 -31t-2.5 -22.5l-138 -1120h-254z" />
    <glyph glyph-name="agrave" unicode="&#xe0;" horiz-adv-x="798" 
d="M772 915l-110 -915h-254l12 104q-79 -122 -180 -122q-59 0 -100.5 34t-60.5 90t-26.5 108t-7.5 108q0 123 23 235q12 61 32.5 120t54 120t85.5 98t114 37q112 0 152 -129l14 112h252zM487 565q0 137 -59 137q-36 0 -62.5 -42t-39.5 -103.5t-19 -112.5t-6 -86
q0 -147 66 -147q35 0 60.5 43.5t37.5 107.5t17 115t5 88zM627 1133l-133 -74l-199 250l192 86z" />
    <glyph glyph-name="aacute" unicode="&#xe1;" horiz-adv-x="798" 
d="M772 915l-110 -915h-254l12 104q-79 -122 -180 -122q-59 0 -100.5 34t-60.5 90t-26.5 108t-7.5 108q0 123 23 235q12 61 32.5 120t54 120t85.5 98t114 37q112 0 152 -129l14 112h252zM487 565q0 137 -59 137q-36 0 -62.5 -42t-39.5 -103.5t-19 -112.5t-6 -86
q0 -147 66 -147q35 0 60.5 43.5t37.5 107.5t17 115t5 88zM739 1309l-260 -250l-114 74l204 262z" />
    <glyph glyph-name="acircumflex" unicode="&#xe2;" horiz-adv-x="798" 
d="M772 915l-110 -915h-254l12 104q-79 -122 -180 -122q-59 0 -100.5 34t-60.5 90t-26.5 108t-7.5 108q0 123 23 235q12 61 32.5 120t54 120t85.5 98t114 37q112 0 152 -129l14 112h252zM487 565q0 137 -59 137q-36 0 -62.5 -42t-39.5 -103.5t-19 -112.5t-6 -86
q0 -147 66 -147q35 0 60.5 43.5t37.5 107.5t17 115t5 88zM723 1171l-123 -112l-135 127l-172 -127l-84 127l280 205z" />
    <glyph glyph-name="atilde" unicode="&#xe3;" horiz-adv-x="798" 
d="M772 915l-110 -915h-254l12 104q-79 -122 -180 -122q-59 0 -100.5 34t-60.5 90t-26.5 108t-7.5 108q0 123 23 235q12 61 32.5 120t54 120t85.5 98t114 37q112 0 152 -129l14 112h252zM487 565q0 137 -59 137q-36 0 -62.5 -42t-39.5 -103.5t-19 -112.5t-6 -86
q0 -147 66 -147q35 0 60.5 43.5t37.5 107.5t17 115t5 88zM659 1309l132 -9q-11 -40 -20 -67t-26.5 -63t-37.5 -57.5t-51.5 -37.5t-69.5 -16q-44 0 -113 31.5t-96 31.5q-46 0 -64 -57h-131q12 51 23.5 85.5t34 74.5t58 61t83.5 21q45 0 109.5 -35t97.5 -35q12 0 21.5 3.5
t15 6t11.5 12.5t8 13t8 19t7 18z" />
    <glyph glyph-name="adieresis" unicode="&#xe4;" horiz-adv-x="798" 
d="M772 915l-110 -915h-254l12 104q-79 -122 -180 -122q-59 0 -100.5 34t-60.5 90t-26.5 108t-7.5 108q0 123 23 235q12 61 32.5 120t54 120t85.5 98t114 37q112 0 152 -129l14 112h252zM487 565q0 137 -59 137q-36 0 -62.5 -42t-39.5 -103.5t-19 -112.5t-6 -86
q0 -147 66 -147q35 0 60.5 43.5t37.5 107.5t17 115t5 88zM801 1208q0 -61 -46.5 -105t-107.5 -44q-50 0 -82.5 34.5t-32.5 84.5q0 60 45 105.5t105 45.5q51 0 85 -35t34 -86zM446 1208q0 -60 -45.5 -104.5t-105.5 -44.5q-51 0 -84 34t-33 85q0 60 45 105.5t105 45.5
q51 0 84.5 -35t33.5 -86z" />
    <glyph glyph-name="aring" unicode="&#xe5;" horiz-adv-x="798" 
d="M772 915l-110 -915h-254l12 104q-79 -122 -180 -122q-59 0 -100.5 34t-60.5 90t-26.5 108t-7.5 108q0 123 23 235q12 61 32.5 120t54 120t85.5 98t114 37q112 0 152 -129l14 112h252zM487 565q0 137 -59 137q-36 0 -62.5 -42t-39.5 -103.5t-19 -112.5t-6 -86
q0 -147 66 -147q35 0 60.5 43.5t37.5 107.5t17 115t5 88zM279 1268q0 82 57 139t139 57t139.5 -57t57.5 -139t-57.5 -139.5t-139.5 -57.5t-139 57.5t-57 139.5zM391 1268q0 -37 23.5 -60.5t60.5 -23.5t60.5 23.5t23.5 60.5t-23.5 60.5t-60.5 23.5t-60.5 -23.5t-23.5 -60.5z
" />
    <glyph glyph-name="ae" unicode="&#xe6;" horiz-adv-x="1150" 
d="M158 674l26 219q121 41 209 41q90 0 144 -28.5t88 -106.5q46 68 101.5 100.5t135.5 32.5q240 0 240 -336q0 -33 -15 -203h-411q-4 -40 -4 -63q0 -160 88 -160q43 0 67 32.5t27 78.5h207q-21 -137 -103 -218t-217 -81q-140 0 -209 112q-59 -56 -115 -84t-128 -28
q-117 0 -189.5 63.5t-72.5 179.5q0 135 85.5 229.5t219.5 94.5q83 0 131 -33q6 87 6 88q0 117 -129 117q-79 0 -182 -47zM696 551h187q4 40 4 61q0 133 -74 133q-29 0 -51.5 -20.5t-35.5 -54.5t-19.5 -62t-10.5 -57zM449 281q0 35 -24.5 59.5t-59.5 24.5q-43 0 -76 -33
t-33 -76q0 -35 24.5 -59.5t59.5 -24.5q43 0 76 33t33 76z" />
    <glyph glyph-name="ccedilla" unicode="&#xe7;" horiz-adv-x="567" 
d="M582 907l-29 -225q-24 31 -68 31q-49 0 -86 -33t-56.5 -84t-28.5 -101t-9 -96q0 -178 115 -178q38 0 80 27l-29 -234q-74 -32 -147 -32q-75 0 -131 32t-87 87t-46 117.5t-15 133.5q0 122 38.5 245t111.5 212q102 125 262 125q62 0 125 -27zM418 -152l-217 -243l-105 59
l170 250z" />
    <glyph glyph-name="egrave" unicode="&#xe8;" horiz-adv-x="751" 
d="M455 315h213q-8 -69 -40 -140t-81 -116q-83 -77 -211 -77q-125 0 -199 77q-94 102 -94 283q0 132 44.5 269.5t133.5 224.5q96 96 228 96q100 0 169 -66q91 -89 91 -274q0 -68 -19 -180h-399q-12 -59 -12 -117q0 -72 24 -100q21 -21 53 -21q47 0 72 45q19 37 27 96z
M311 569h183q4 32 4 49q0 49 -17 82q-19 37 -57 37t-62 -28q-20 -21 -33.5 -63.5t-17.5 -76.5zM596 1133l-133 -74l-199 250l193 86z" />
    <glyph glyph-name="eacute" unicode="&#xe9;" horiz-adv-x="751" 
d="M455 315h213q-8 -69 -40 -140t-81 -116q-83 -77 -211 -77q-125 0 -199 77q-94 102 -94 283q0 132 44.5 269.5t133.5 224.5q96 96 228 96q100 0 169 -66q91 -89 91 -274q0 -68 -19 -180h-399q-12 -59 -12 -117q0 -72 24 -100q21 -21 53 -21q47 0 72 45q19 37 27 96z
M311 569h183q4 32 4 49q0 49 -17 82q-19 37 -57 37t-62 -28q-20 -21 -33.5 -63.5t-17.5 -76.5zM717 1309l-260 -250l-115 74l205 262z" />
    <glyph glyph-name="ecircumflex" unicode="&#xea;" horiz-adv-x="751" 
d="M455 315h213q-8 -69 -40 -140t-81 -116q-83 -77 -211 -77q-125 0 -199 77q-94 102 -94 283q0 132 44.5 269.5t133.5 224.5q96 96 228 96q100 0 169 -66q91 -89 91 -274q0 -68 -19 -180h-399q-12 -59 -12 -117q0 -72 24 -100q21 -21 53 -21q47 0 72 45q19 37 27 96z
M311 569h183q4 32 4 49q0 49 -17 82q-19 37 -57 37t-62 -28q-20 -21 -33.5 -63.5t-17.5 -76.5zM733 1171l-123 -112l-135 127l-172 -127l-84 127l281 205z" />
    <glyph glyph-name="edieresis" unicode="&#xeb;" horiz-adv-x="751" 
d="M455 315h213q-8 -69 -40 -140t-81 -116q-83 -77 -211 -77q-125 0 -199 77q-94 102 -94 283q0 132 44.5 269.5t133.5 224.5q96 96 228 96q100 0 169 -66q91 -89 91 -274q0 -68 -19 -180h-399q-12 -59 -12 -117q0 -72 24 -100q21 -21 53 -21q47 0 72 45q19 37 27 96z
M311 569h183q4 32 4 49q0 49 -17 82q-19 37 -57 37t-62 -28q-20 -21 -33.5 -63.5t-17.5 -76.5zM778 1208q0 -61 -46 -105t-107 -44q-50 0 -82.5 34.5t-32.5 84.5q0 60 44.5 105.5t104.5 45.5q51 0 85 -35t34 -86zM424 1208q0 -60 -46 -104.5t-106 -44.5q-51 0 -83.5 34
t-32.5 85q0 60 44.5 105.5t104.5 45.5q51 0 85 -35t34 -86z" />
    <glyph glyph-name="igrave" unicode="&#xec;" horiz-adv-x="415" 
d="M389 915l-113 -915h-253l112 915h254zM385 1133l-133 -74l-199 250l193 86z" />
    <glyph glyph-name="iacute" unicode="&#xed;" horiz-adv-x="415" 
d="M389 915l-113 -915h-253l112 915h254zM549 1309l-260 -250l-115 74l205 262z" />
    <glyph glyph-name="icircumflex" unicode="&#xee;" horiz-adv-x="415" 
d="M389 915l-113 -915h-253l112 915h254zM551 1171l-123 -112l-135 127l-172 -127l-84 127l280 205z" />
    <glyph glyph-name="idieresis" unicode="&#xef;" horiz-adv-x="415" 
d="M389 915l-113 -915h-253l112 915h254zM600 1208q0 -61 -46.5 -105t-107.5 -44q-50 0 -82 34.5t-32 84.5q0 60 44.5 105.5t104.5 45.5q51 0 85 -35t34 -86zM246 1208q0 -60 -46 -104.5t-106 -44.5q-51 0 -84 34t-33 85q0 60 45 105.5t105 45.5q51 0 85 -35t34 -86z" />
    <glyph glyph-name="eth" unicode="&#xf0;" horiz-adv-x="790" 
d="M758 1362l-164 -111q81 -105 118.5 -268t37.5 -324q0 -61 -4.5 -120.5t-16.5 -128t-31 -128t-51 -116t-73 -96.5t-100 -64t-130 -24q-297 0 -297 378q0 93 24 193.5t66 181.5q42 79 113 134t153 55q50 0 101 -41q-7 83 -25.5 137.5t-58.5 116.5l-166 -107l-92 129
l162 107q-37 40 -68 59.5t-86 40.5l115 150q112 -59 202 -140l170 111zM487 561q0 141 -59 141q-36 0 -62.5 -42.5t-39.5 -104.5t-19 -113.5t-6 -85.5q0 -145 68 -145q33 0 58.5 44t37 107.5t17 114.5t5.5 84z" />
    <glyph glyph-name="ntilde" unicode="&#xf1;" horiz-adv-x="794" 
d="M389 915l-18 -143q48 75 103.5 117.5t131.5 42.5q72 0 105.5 -46.5t33.5 -121.5q0 -33 -14 -152l-74 -612h-254l66 522q6 47 6 94q0 60 -47 60q-21 0 -36.5 -10.5t-23.5 -23t-14.5 -36.5t-8 -37t-4.5 -38q-1 -6 -1 -9l-64 -522h-253l112 915h254zM657 1309l131 -9
q-11 -40 -19.5 -66.5t-26 -63t-37.5 -58t-51.5 -37.5t-69.5 -16q-44 0 -113 31.5t-96 31.5q-46 0 -64 -57h-131q12 51 23.5 85.5t34 74.5t58 61t83.5 21q45 0 109.5 -35t97.5 -35q12 0 21.5 3.5t15 6t11.5 12.5t8 13t8 19t7 18z" />
    <glyph glyph-name="ograve" unicode="&#xf2;" horiz-adv-x="790" 
d="M743 592q0 -82 -11.5 -162t-40.5 -163t-73 -144.5t-116.5 -101t-163.5 -39.5q-66 0 -117 21t-83.5 56t-53 85t-29 103t-8.5 115q0 97 23.5 193t70.5 182.5t128.5 140.5t185.5 54q144 0 216 -95.5t72 -244.5zM485 567q0 135 -59 135q-34 0 -60.5 -42t-39.5 -103t-19 -113
t-6 -86q0 -147 64 -147q35 0 60.5 43.5t37.5 108t17 116t5 88.5zM608 1133l-133 -74l-199 250l193 86z" />
    <glyph glyph-name="oacute" unicode="&#xf3;" horiz-adv-x="790" 
d="M743 592q0 -82 -11.5 -162t-40.5 -163t-73 -144.5t-116.5 -101t-163.5 -39.5q-66 0 -117 21t-83.5 56t-53 85t-29 103t-8.5 115q0 97 23.5 193t70.5 182.5t128.5 140.5t185.5 54q144 0 216 -95.5t72 -244.5zM485 567q0 135 -59 135q-34 0 -60.5 -42t-39.5 -103t-19 -113
t-6 -86q0 -147 64 -147q35 0 60.5 43.5t37.5 108t17 116t5 88.5zM741 1309l-260 -250l-114 74l204 262z" />
    <glyph glyph-name="ocircumflex" unicode="&#xf4;" horiz-adv-x="790" 
d="M743 592q0 -82 -11.5 -162t-40.5 -163t-73 -144.5t-116.5 -101t-163.5 -39.5q-66 0 -117 21t-83.5 56t-53 85t-29 103t-8.5 115q0 97 23.5 193t70.5 182.5t128.5 140.5t185.5 54q144 0 216 -95.5t72 -244.5zM485 567q0 135 -59 135q-34 0 -60.5 -42t-39.5 -103t-19 -113
t-6 -86q0 -147 64 -147q35 0 60.5 43.5t37.5 108t17 116t5 88.5zM729 1171l-123 -112l-135 127l-172 -127l-84 127l281 205z" />
    <glyph glyph-name="otilde" unicode="&#xf5;" horiz-adv-x="790" 
d="M743 592q0 -82 -11.5 -162t-40.5 -163t-73 -144.5t-116.5 -101t-163.5 -39.5q-66 0 -117 21t-83.5 56t-53 85t-29 103t-8.5 115q0 97 23.5 193t70.5 182.5t128.5 140.5t185.5 54q144 0 216 -95.5t72 -244.5zM485 567q0 135 -59 135q-34 0 -60.5 -42t-39.5 -103t-19 -113
t-6 -86q0 -147 64 -147q35 0 60.5 43.5t37.5 108t17 116t5 88.5zM645 1309l131 -9q-11 -40 -20 -67t-26.5 -63t-37.5 -57.5t-51.5 -37.5t-69.5 -16q-44 0 -113 31.5t-96 31.5q-45 0 -63 -57h-131q12 51 23.5 85.5t34 74.5t58 61t83.5 21q45 0 109 -35t97 -35q10 0 18 1.5
t15 6.5t11 7.5t9 12t6.5 12.5t6.5 16t6 16z" />
    <glyph glyph-name="odieresis" unicode="&#xf6;" horiz-adv-x="790" 
d="M743 592q0 -82 -11.5 -162t-40.5 -163t-73 -144.5t-116.5 -101t-163.5 -39.5q-66 0 -117 21t-83.5 56t-53 85t-29 103t-8.5 115q0 97 23.5 193t70.5 182.5t128.5 140.5t185.5 54q144 0 216 -95.5t72 -244.5zM485 567q0 135 -59 135q-34 0 -60.5 -42t-39.5 -103t-19 -113
t-6 -86q0 -147 64 -147q35 0 60.5 43.5t37.5 108t17 116t5 88.5zM797 1208q0 -61 -46.5 -105t-107.5 -44q-50 0 -82.5 34.5t-32.5 84.5q0 60 45 105.5t105 45.5q51 0 85 -35t34 -86zM442 1208q0 -60 -45.5 -104.5t-105.5 -44.5q-51 0 -84 34t-33 85q0 60 45 105.5t105 45.5
q51 0 84.5 -35t33.5 -86z" />
    <glyph glyph-name="divide" unicode="&#xf7;" 
d="M686 1044q0 -60 -42.5 -102.5t-102.5 -42.5q-61 0 -104.5 42t-43.5 103t42.5 104.5t103.5 43.5t104 -43t43 -105zM983 578h-887v233h887v-233zM686 342q0 -60 -42.5 -102.5t-102.5 -42.5q-62 0 -105 43t-43 104q0 60 43 102.5t103 42.5q61 0 104 -42.5t43 -104.5z" />
    <glyph glyph-name="oslash" unicode="&#xf8;" horiz-adv-x="792" 
d="M778 903l-78 -104q45 -109 45 -230q0 -79 -13 -157.5t-43.5 -157t-76 -138t-116.5 -97t-158 -37.5q-57 0 -99.5 15t-86.5 50l-58 -80l-86 62l80 108q-41 95 -41 228q0 63 10 128t30.5 130.5t54 122.5t77 101t104.5 69.5t132 25.5q112 0 182 -59l57 78zM487 553
q0 152 -63 152q-34 0 -60 -43t-38.5 -105t-18.5 -113.5t-6 -85.5q0 -147 68 -147q33 0 58 42.5t37 103.5t17.5 112t5.5 84z" />
    <glyph glyph-name="ugrave" unicode="&#xf9;" horiz-adv-x="792" 
d="M766 915l-74 -606q-7 -64 -19.5 -103.5t-45.5 -82.5q-50 -66 -129 -103.5t-164 -37.5q-118 0 -198.5 66t-80.5 181q0 8 11 115l69 571h254l-65 -524q-9 -79 -9 -104q0 -68 52 -68q15 0 27.5 6.5t20.5 19.5t13.5 25t9 32t5.5 32t3.5 32t2.5 25l65 524h252zM596 1133
l-133 -74l-199 250l193 86z" />
    <glyph glyph-name="uacute" unicode="&#xfa;" horiz-adv-x="792" 
d="M766 915l-74 -606q-7 -64 -19.5 -103.5t-45.5 -82.5q-50 -66 -129 -103.5t-164 -37.5q-118 0 -198.5 66t-80.5 181q0 8 11 115l69 571h254l-65 -524q-9 -79 -9 -104q0 -68 52 -68q15 0 27.5 6.5t20.5 19.5t13.5 25t9 32t5.5 32t3.5 32t2.5 25l65 524h252zM737 1309
l-260 -250l-115 74l205 262z" />
    <glyph glyph-name="ucircumflex" unicode="&#xfb;" horiz-adv-x="792" 
d="M766 915l-74 -606q-7 -64 -19.5 -103.5t-45.5 -82.5q-50 -66 -129 -103.5t-164 -37.5q-118 0 -198.5 66t-80.5 181q0 8 11 115l69 571h254l-65 -524q-9 -79 -9 -104q0 -68 52 -68q15 0 27.5 6.5t20.5 19.5t13.5 25t9 32t5.5 32t3.5 32t2.5 25l65 524h252zM741 1171
l-123 -112l-135 127l-172 -127l-84 127l281 205z" />
    <glyph glyph-name="udieresis" unicode="&#xfc;" horiz-adv-x="792" 
d="M766 915l-74 -606q-7 -64 -19.5 -103.5t-45.5 -82.5q-50 -66 -129 -103.5t-164 -37.5q-118 0 -198.5 66t-80.5 181q0 8 11 115l69 571h254l-65 -524q-9 -79 -9 -104q0 -68 52 -68q15 0 27.5 6.5t20.5 19.5t13.5 25t9 32t5.5 32t3.5 32t2.5 25l65 524h252zM778 1208
q0 -61 -46 -105t-107 -44q-50 0 -82.5 34.5t-32.5 84.5q0 60 44.5 105.5t104.5 45.5q51 0 85 -35t34 -86zM424 1208q0 -60 -46 -104.5t-106 -44.5q-51 0 -83.5 34t-32.5 85q0 60 44.5 105.5t104.5 45.5q51 0 85 -35t34 -86z" />
    <glyph glyph-name="yacute" unicode="&#xfd;" horiz-adv-x="735" 
d="M797 915l-545 -1337h-246l191 440l-152 897h252l45 -333q16 -121 18 -189l183 522h254zM731 1309l-260 -250l-115 74l205 262z" />
    <glyph glyph-name="thorn" unicode="&#xfe;" horiz-adv-x="798" 
d="M461 1493l-86 -690q73 131 186 131q58 0 98.5 -32.5t59 -86t26 -104t7.5 -105.5q0 -125 -23 -237q-9 -45 -23.5 -92t-40 -101.5t-56 -96t-74.5 -69.5t-93 -28q-59 0 -94 31t-59 91l-68 -526h-252l240 1915h252zM494 559q0 146 -68 146q-33 0 -58.5 -44t-37.5 -107.5
t-17.5 -115t-5.5 -84.5q0 -143 60 -143q36 0 63 43t40 105.5t18.5 113.5t5.5 86z" />
    <glyph glyph-name="ydieresis" unicode="&#xff;" horiz-adv-x="735" 
d="M797 915l-545 -1337h-246l191 440l-152 897h252l45 -333q16 -121 18 -189l183 522h254zM772 1208q0 -61 -46.5 -105t-107.5 -44q-50 0 -82 34.5t-32 84.5q0 60 44.5 105.5t104.5 45.5q51 0 85 -35t34 -86zM418 1208q0 -60 -46 -104.5t-106 -44.5q-51 0 -83.5 34t-32.5 85
q0 60 44.5 105.5t104.5 45.5q51 0 85 -35t34 -86z" />
    <glyph glyph-name="Amacron" unicode="&#x100;" horiz-adv-x="927" 
d="M864 0h-282l-23 229h-268l-76 -229h-266l481 1366h281zM358 440h187q-3 36 -9 114t-8.5 114.5t-7 114.5t-4 115t1.5 116q-25 -127 -47 -211q-14 -56 -31 -111.5t-45.5 -141.5t-36.5 -110zM877 1675l-21 -164h-577l20 164h578z" />
    <glyph glyph-name="amacron" unicode="&#x101;" horiz-adv-x="798" 
d="M772 915l-110 -915h-254l12 104q-79 -122 -180 -122q-59 0 -100.5 34t-60.5 90t-26.5 108t-7.5 108q0 123 23 235q12 61 32.5 120t54 120t85.5 98t114 37q112 0 152 -129l14 112h252zM487 565q0 137 -59 137q-36 0 -62.5 -42t-39.5 -103.5t-19 -112.5t-6 -86
q0 -147 66 -147q35 0 60.5 43.5t37.5 107.5t17 115t5 88zM784 1251l-20 -164h-578l21 164h577z" />
    <glyph glyph-name="Abreve" unicode="&#x102;" horiz-adv-x="927" 
d="M864 0h-282l-23 229h-268l-76 -229h-266l481 1366h281zM358 440h187q-3 36 -9 114t-8.5 114.5t-7 114.5t-4 115t1.5 116q-25 -127 -47 -211q-14 -56 -31 -111.5t-45.5 -141.5t-36.5 -110zM741 1716h136q-17 -98 -89 -170q-44 -42 -93.5 -59t-114.5 -17q-112 0 -172 62
q-64 64 -64 184h135q3 -35 27 -59q29 -27 90 -27q74 0 106 27q26 20 39 59z" />
    <glyph glyph-name="abreve" unicode="&#x103;" horiz-adv-x="798" 
d="M772 915l-110 -915h-254l12 104q-79 -122 -180 -122q-59 0 -100.5 34t-60.5 90t-26.5 108t-7.5 108q0 123 23 235q12 61 32.5 120t54 120t85.5 98t114 37q112 0 152 -129l14 112h252zM487 565q0 137 -59 137q-36 0 -62.5 -42t-39.5 -103.5t-19 -112.5t-6 -86
q0 -147 66 -147q35 0 60.5 43.5t37.5 107.5t17 115t5 88zM635 1305h135q-17 -99 -88 -170q-79 -76 -209 -76q-113 0 -172 61q-63 63 -63 185h135q3 -37 26 -60q28 -26 90 -26q76 0 107 26q26 20 39 60z" />
    <glyph glyph-name="Aogonek" unicode="&#x104;" horiz-adv-x="927" 
d="M430 1366h281l153 -1366h-153q-29 -23 -58 -59q-32 -46 -32 -78q0 -25 14 -39q16 -19 51 -19q40 0 72 21l-49 -154q-41 -20 -105 -20q-78 0 -119 41q-36 36 -36 98q0 75 47 133q29 36 86 76l-23 229h-268l-76 -229h-266zM358 440h187l-8 101q-19 230 -19 473
q-7 -29 -23.5 -106t-23.5 -105q-19 -77 -82 -268z" />
    <glyph glyph-name="aogonek" unicode="&#x105;" horiz-adv-x="798" 
d="M772 915l-110 -915h-62q-31 -27 -59 -66q-33 -48 -33 -77q0 -28 18 -43q20 -17 49 -17q39 0 70 21l-47 -146q-44 -20 -96 -20q-78 0 -119 41q-39 39 -39 98q0 65 47 125q37 45 92 84h-75l12 104q-76 -122 -180 -122q-68 0 -117 49q-78 80 -78 291q0 167 37 299
q45 168 129 249q65 62 143 62q37 0 66.5 -14.5t46.5 -38t25.5 -41t13.5 -35.5l14 112h252zM301 358q0 -88 25 -125q14 -22 41 -22q26 0 45 22q38 43 55 138q20 110 20 198q0 80 -18 107q-13 26 -41 26q-25 0 -45 -20q-39 -37 -61 -143q-21 -93 -21 -181z" />
    <glyph glyph-name="Cacute" unicode="&#x106;" horiz-adv-x="856" 
d="M752 317l-39 -282q-96 -49 -207 -49q-168 0 -273 108q-66 67 -102.5 176.5t-36.5 245.5q0 127 26.5 256.5t88 257t149.5 209.5q147 141 367 141q93 0 172 -39l-39 -284q-63 65 -149 65q-88 0 -164 -73q-76 -76 -120 -227.5t-44 -284.5q0 -146 59 -224q52 -67 138 -67
q98 0 174 71zM690 1530l193 262l166 -102l-234 -234z" />
    <glyph glyph-name="cacute" unicode="&#x107;" horiz-adv-x="567" 
d="M582 907l-29 -225q-24 31 -68 31q-49 0 -86 -33t-56.5 -84t-28.5 -101t-9 -96q0 -178 115 -178q38 0 80 27l-29 -234q-74 -32 -147 -32q-75 0 -131 32t-87 87t-46 117.5t-15 133.5q0 122 38.5 245t111.5 212q102 125 262 125q62 0 125 -27zM750 1309l-261 -250l-114 74
l205 262z" />
    <glyph glyph-name="Ccircumflex" unicode="&#x108;" horiz-adv-x="856" 
d="M752 317l-39 -282q-96 -49 -207 -49q-168 0 -273 108q-66 67 -102.5 176.5t-36.5 245.5q0 127 26.5 256.5t88 257t149.5 209.5q147 141 367 141q93 0 172 -39l-39 -284q-63 65 -149 65q-88 0 -164 -73q-76 -76 -120 -227.5t-44 -284.5q0 -146 59 -224q52 -67 138 -67
q98 0 174 71zM1040 1595l-122 -112l-136 127l-172 -127l-84 127l281 205z" />
    <glyph glyph-name="ccircumflex" unicode="&#x109;" horiz-adv-x="567" 
d="M582 907l-29 -225q-24 31 -68 31q-49 0 -86 -33t-56.5 -84t-28.5 -101t-9 -96q0 -178 115 -178q38 0 80 27l-29 -234q-74 -32 -147 -32q-75 0 -131 32t-87 87t-46 117.5t-15 133.5q0 122 38.5 245t111.5 212q102 125 262 125q62 0 125 -27zM733 1171l-123 -112l-135 127
l-172 -127l-84 127l281 205z" />
    <glyph glyph-name="Cdotaccent" unicode="&#x10a;" horiz-adv-x="856" 
d="M752 317l-39 -282q-96 -49 -207 -49q-168 0 -273 108q-66 67 -102.5 176.5t-36.5 245.5q0 127 26.5 256.5t88 257t149.5 209.5q147 141 367 141q93 0 172 -39l-39 -284q-63 65 -149 65q-88 0 -164 -73q-76 -76 -120 -227.5t-44 -284.5q0 -146 59 -224q52 -67 138 -67
q98 0 174 71zM879 1634q0 -61 -46.5 -106t-107.5 -45q-51 0 -84 34t-33 85q0 60 45.5 106.5t106.5 46.5q51 0 85 -35t34 -86z" />
    <glyph glyph-name="cdotaccent" unicode="&#x10b;" horiz-adv-x="567" 
d="M582 907l-29 -225q-24 31 -68 31q-49 0 -86 -33t-56.5 -84t-28.5 -101t-9 -96q0 -178 115 -178q38 0 80 27l-29 -234q-74 -32 -147 -32q-75 0 -131 32t-87 87t-46 117.5t-15 133.5q0 122 38.5 245t111.5 212q102 125 262 125q62 0 125 -27zM610 1210q0 -61 -46 -106
t-107 -45q-51 0 -84 34t-33 85q0 60 45.5 106.5t106.5 46.5q51 0 84.5 -35t33.5 -86z" />
    <glyph glyph-name="Ccaron" unicode="&#x10c;" horiz-adv-x="856" 
d="M752 317l-39 -282q-96 -49 -207 -49q-168 0 -273 108q-66 67 -102.5 176.5t-36.5 245.5q0 127 26.5 256.5t88 257t149.5 209.5q147 141 367 141q93 0 172 -39l-39 -284q-63 65 -149 65q-88 0 -164 -73q-76 -76 -120 -227.5t-44 -284.5q0 -146 59 -224q52 -67 138 -67
q98 0 174 71zM1053 1688l-281 -205l-233 219l123 113l135 -127l172 127z" />
    <glyph glyph-name="ccaron" unicode="&#x10d;" horiz-adv-x="567" 
d="M582 907l-29 -225q-24 31 -68 31q-49 0 -86 -33t-56.5 -84t-28.5 -101t-9 -96q0 -178 115 -178q38 0 80 27l-29 -234q-74 -32 -147 -32q-75 0 -131 32t-87 87t-46 117.5t-15 133.5q0 122 38.5 245t111.5 212q102 125 262 125q62 0 125 -27zM745 1264l-280 -205l-234 219
l123 113l135 -127l173 127z" />
    <glyph glyph-name="Dcaron" unicode="&#x10e;" horiz-adv-x="985" 
d="M215 1366h223q86 0 146.5 -9t120.5 -38q68 -33 116.5 -87.5t75 -122.5t38 -137.5t11.5 -146.5q0 -189 -56 -369t-173 -300q-151 -156 -410 -156h-260zM344 250h16q67 -1 122 37t90 96.5t59.5 131.5t34.5 140.5t10 126.5q0 332 -223 344zM827 1688l-280 -205l-234 219
l123 113l135 -127l172 127z" />
    <glyph glyph-name="dcaron" unicode="&#x10f;" horiz-adv-x="1189" 
d="M848 1493l-186 -1493h-254l12 104q-79 -122 -180 -122q-59 0 -100.5 34t-60.5 90t-26.5 108t-7.5 108q0 123 23 235q10 48 24 94.5t38.5 99t55 91t74.5 64.5t94 26q112 0 152 -129l90 690h252zM487 565q0 137 -59 137q-36 0 -62.5 -42t-39.5 -103.5t-19 -112.5t-6 -86
q0 -147 66 -147q35 0 60.5 43.5t37.5 107.5t17 115t5 88zM1204 1366l-211 -418h-143l143 418h211z" />
    <glyph glyph-name="Dcroat" unicode="&#x110;" horiz-adv-x="985" 
d="M217 1366h223q85 0 145.5 -9t119.5 -38q67 -33 115.5 -88t75 -122.5t38.5 -137t12 -146.5q0 -188 -55.5 -368.5t-171.5 -300.5q-151 -156 -412 -156h-258l74 600h-96l24 205h96zM389 600l-43 -352q65 2 112.5 24.5t86.5 73.5q65 81 98 199.5t33 234.5q0 212 -94 299
q-28 26 -56 35t-73 12l-39 -321h149l-24 -205h-150z" />
    <glyph glyph-name="dcroat" unicode="&#x111;" horiz-adv-x="874" 
d="M504 762l33 276h-224l21 181h223l37 274h252l-35 -274h102l-20 -181h-102l-129 -1038h-254l12 104q-79 -122 -180 -122q-59 0 -100.5 34t-60.5 90t-26.5 108t-7.5 108q0 123 23 235q12 60 32 113.5t53 106t83.5 83.5t113.5 31q110 0 154 -129zM485 524q0 138 -59 138
q-36 0 -62.5 -36t-39 -89.5t-18 -99t-5.5 -79.5q0 -147 66 -147q35 0 60 37t36.5 93t16.5 101.5t5 81.5z" />
    <glyph glyph-name="Emacron" unicode="&#x112;" horiz-adv-x="716" 
d="M750 1366l-31 -254h-268l-37 -295h237l-33 -258h-235l-39 -307h272l-30 -252h-539l168 1366h535zM795 1675l-21 -164h-577l20 164h578z" />
    <glyph glyph-name="emacron" unicode="&#x113;" horiz-adv-x="751" 
d="M455 315h213q-8 -69 -40 -140t-81 -116q-83 -77 -211 -77q-125 0 -199 77q-94 102 -94 283q0 132 44.5 269.5t133.5 224.5q96 96 228 96q100 0 169 -66q91 -89 91 -274q0 -68 -19 -180h-399q-12 -59 -12 -117q0 -72 24 -100q21 -21 53 -21q47 0 72 45q19 37 27 96z
M311 569h183q4 32 4 49q0 49 -17 82q-19 37 -57 37t-62 -28q-20 -21 -33.5 -63.5t-17.5 -76.5zM762 1251l-21 -164h-577l20 164h578z" />
    <glyph glyph-name="Edotaccent" unicode="&#x116;" horiz-adv-x="716" 
d="M750 1366l-31 -254h-268l-37 -295h237l-33 -258h-235l-39 -307h272l-30 -252h-539l168 1366h535zM645 1634q0 -61 -46 -106t-107 -45q-51 0 -84 34t-33 85q0 61 45 107t106 46q51 0 85 -35t34 -86z" />
    <glyph glyph-name="edotaccent" unicode="&#x117;" horiz-adv-x="751" 
d="M455 315h213q-8 -69 -40 -140t-81 -116q-83 -77 -211 -77q-125 0 -199 77q-94 102 -94 283q0 132 44.5 269.5t133.5 224.5q96 96 228 96q100 0 169 -66q91 -89 91 -274q0 -68 -19 -180h-399q-12 -59 -12 -117q0 -72 24 -100q21 -21 53 -21q47 0 72 45q19 37 27 96z
M311 569h183q4 32 4 49q0 49 -17 82q-19 37 -57 37t-62 -28q-20 -21 -33.5 -63.5t-17.5 -76.5zM623 1210q0 -61 -46.5 -106t-107.5 -45q-51 0 -84 34t-33 85q0 60 45.5 106.5t106.5 46.5q51 0 85 -35t34 -86z" />
    <glyph glyph-name="Eogonek" unicode="&#x118;" horiz-adv-x="716" 
d="M750 1366l-31 -254h-268l-37 -295h237l-33 -258h-235l-39 -307h272l-30 -252h-74q-26 -21 -57 -59q-33 -47 -33 -78q0 -25 14 -39q16 -19 51 -19q41 0 72 21l-49 -154q-44 -20 -96 -20q-86 0 -127 41q-37 37 -37 98q0 75 47 133q29 36 86 76h-336l168 1366h535z" />
    <glyph glyph-name="eogonek" unicode="&#x119;" horiz-adv-x="751" 
d="M449 283h213q-16 -90 -64 -166q-27 -44 -82 -101t-67 -73q-39 -50 -39 -86q0 -28 18 -43q20 -17 51 -17q37 0 68 21l-47 -146q-45 -20 -88 -20q-86 0 -127 41q-39 39 -39 94q0 97 110 193q-139 0 -217 75q-96 93 -96 291q0 132 44.5 265t127.5 218q100 103 234 103
q108 0 178 -70q82 -84 82 -266q0 -88 -25 -207h-399q-6 -41 -6 -86q0 -80 24 -108q19 -21 53 -21q30 0 52 19q37 34 41 90zM309 547h183q6 27 6 65q0 78 -29 107q-18 18 -45 18q-38 0 -62 -28q-45 -47 -53 -162z" />
    <glyph glyph-name="Ecaron" unicode="&#x11a;" horiz-adv-x="716" 
d="M750 1366l-31 -254h-268l-37 -295h237l-33 -258h-235l-39 -307h272l-30 -252h-539l168 1366h535zM797 1688l-281 -205l-233 219l123 113l135 -127l172 127z" />
    <glyph glyph-name="ecaron" unicode="&#x11b;" horiz-adv-x="751" 
d="M455 315h213q-8 -69 -40 -140t-81 -116q-83 -77 -211 -77q-125 0 -199 77q-94 102 -94 283q0 132 44.5 269.5t133.5 224.5q96 96 228 96q100 0 169 -66q91 -89 91 -274q0 -68 -19 -180h-399q-12 -59 -12 -117q0 -72 24 -100q21 -21 53 -21q47 0 72 45q19 37 27 96z
M311 569h183q4 32 4 49q0 49 -17 82q-19 37 -57 37t-62 -28q-20 -21 -33.5 -63.5t-17.5 -76.5zM745 1264l-280 -205l-234 219l123 113l135 -127l173 127z" />
    <glyph glyph-name="Gcircumflex" unicode="&#x11c;" horiz-adv-x="1058" 
d="M1022 1063l-272 -102q0 36 -3.5 64t-14.5 59t-35.5 48t-61.5 17q-60 0 -108.5 -53.5t-76 -130.5t-46 -172t-25 -168t-6.5 -127q0 -275 155 -275q156 0 199 295h-170l29 242h434q-9 -85 -15.5 -136.5t-21.5 -124.5t-35 -132q-26 -79 -67.5 -147.5t-97.5 -124t-130.5 -87
t-158.5 -31.5q-87 0 -156.5 31.5t-115 84t-76 123t-43.5 145t-13 153.5q0 190 45 360q21 79 53 150.5t79.5 138.5t104.5 115.5t132.5 78t159.5 29.5q150 0 241.5 -85.5t116.5 -237.5zM938 1595l-123 -112l-135 127l-172 -127l-84 127l281 205z" />
    <glyph glyph-name="gcircumflex" unicode="&#x11d;" horiz-adv-x="806" 
d="M780 915l-121 -962q-5 -45 -8.5 -66.5t-13 -55t-25.5 -62.5q-51 -95 -142.5 -143t-203.5 -48q-133 0 -205.5 72.5t-72.5 206.5q0 37 2 39h221q0 -21 2 -36.5t9 -34.5t24.5 -29.5t44.5 -10.5q23 0 41 10.5t30.5 32t21 40.5t15 50.5t9 46.5t6.5 43l16 107
q-22 -31 -37.5 -49.5t-39 -40.5t-51 -32.5t-58.5 -10.5q-47 0 -84.5 23.5t-59 59.5t-35.5 84t-19 90.5t-5 84.5q0 60 8.5 132.5t31 158.5t55.5 155t88.5 115.5t123.5 46.5q62 0 100.5 -32.5t65.5 -94.5l14 110h252zM487 563q0 139 -61 139q-35 0 -61.5 -41.5t-40 -102
t-19.5 -111.5t-6 -85q0 -21 2.5 -42t8.5 -47t21 -42t36 -16q35 0 60.5 42.5t37.5 105t17 113.5t5 87zM754 1171l-123 -112l-135 127l-172 -127l-84 127l280 205z" />
    <glyph glyph-name="Gbreve" unicode="&#x11e;" horiz-adv-x="1058" 
d="M1022 1063l-272 -102q0 36 -3.5 64t-14.5 59t-35.5 48t-61.5 17q-60 0 -108.5 -53.5t-76 -130.5t-46 -172t-25 -168t-6.5 -127q0 -275 155 -275q156 0 199 295h-170l29 242h434q-9 -85 -15.5 -136.5t-21.5 -124.5t-35 -132q-26 -79 -67.5 -147.5t-97.5 -124t-130.5 -87
t-158.5 -31.5q-87 0 -156.5 31.5t-115 84t-76 123t-43.5 145t-13 153.5q0 190 45 360q21 79 53 150.5t79.5 138.5t104.5 115.5t132.5 78t159.5 29.5q150 0 241.5 -85.5t116.5 -237.5zM834 1716h135q-17 -99 -88 -170q-79 -76 -209 -76q-112 0 -172 62q-64 64 -64 184h135
q3 -35 27 -59q29 -27 90 -27q75 0 107 27q26 20 39 59z" />
    <glyph glyph-name="gbreve" unicode="&#x11f;" horiz-adv-x="806" 
d="M780 915l-121 -962q-5 -45 -8.5 -66.5t-13 -55t-25.5 -62.5q-51 -95 -142.5 -143t-203.5 -48q-133 0 -205.5 72.5t-72.5 206.5q0 37 2 39h221q0 -21 2 -36.5t9 -34.5t24.5 -29.5t44.5 -10.5q23 0 41 10.5t30.5 32t21 40.5t15 50.5t9 46.5t6.5 43l16 107
q-22 -31 -37.5 -49.5t-39 -40.5t-51 -32.5t-58.5 -10.5q-47 0 -84.5 23.5t-59 59.5t-35.5 84t-19 90.5t-5 84.5q0 60 8.5 132.5t31 158.5t55.5 155t88.5 115.5t123.5 46.5q62 0 100.5 -32.5t65.5 -94.5l14 110h252zM487 563q0 139 -61 139q-35 0 -61.5 -41.5t-40 -102
t-19.5 -111.5t-6 -85q0 -21 2.5 -42t8.5 -47t21 -42t36 -16q35 0 60.5 42.5t37.5 105t17 113.5t5 87zM625 1305h135q-17 -99 -88 -170q-79 -76 -209 -76q-113 0 -172 61q-64 64 -64 185h135q3 -36 27 -60q28 -26 90 -26q76 0 107 26q26 20 39 60z" />
    <glyph glyph-name="Gdotaccent" unicode="&#x120;" horiz-adv-x="1058" 
d="M1022 1063l-272 -102q0 36 -3.5 64t-14.5 59t-35.5 48t-61.5 17q-60 0 -108.5 -53.5t-76 -130.5t-46 -172t-25 -168t-6.5 -127q0 -275 155 -275q156 0 199 295h-170l29 242h434q-9 -85 -15.5 -136.5t-21.5 -124.5t-35 -132q-26 -79 -67.5 -147.5t-97.5 -124t-130.5 -87
t-158.5 -31.5q-87 0 -156.5 31.5t-115 84t-76 123t-43.5 145t-13 153.5q0 190 45 360q21 79 53 150.5t79.5 138.5t104.5 115.5t132.5 78t159.5 29.5q150 0 241.5 -85.5t116.5 -237.5zM817 1634q0 -61 -46 -106t-107 -45q-51 0 -84 34t-33 85q0 61 45 107t106 46q51 0 85 -35
t34 -86z" />
    <glyph glyph-name="gdotaccent" unicode="&#x121;" horiz-adv-x="806" 
d="M780 915l-121 -962q-5 -45 -8.5 -66.5t-13 -55t-25.5 -62.5q-51 -95 -142.5 -143t-203.5 -48q-133 0 -205.5 72.5t-72.5 206.5q0 37 2 39h221q0 -21 2 -36.5t9 -34.5t24.5 -29.5t44.5 -10.5q23 0 41 10.5t30.5 32t21 40.5t15 50.5t9 46.5t6.5 43l16 107
q-22 -31 -37.5 -49.5t-39 -40.5t-51 -32.5t-58.5 -10.5q-47 0 -84.5 23.5t-59 59.5t-35.5 84t-19 90.5t-5 84.5q0 60 8.5 132.5t31 158.5t55.5 155t88.5 115.5t123.5 46.5q62 0 100.5 -32.5t65.5 -94.5l14 110h252zM487 563q0 139 -61 139q-35 0 -61.5 -41.5t-40 -102
t-19.5 -111.5t-6 -85q0 -21 2.5 -42t8.5 -47t21 -42t36 -16q35 0 60.5 42.5t37.5 105t17 113.5t5 87zM627 1210q0 -61 -46.5 -106t-107.5 -45q-51 0 -84 34t-33 85q0 60 45.5 106.5t106.5 46.5q51 0 85 -35t34 -86z" />
    <glyph glyph-name="Gcommaaccent" unicode="&#x122;" horiz-adv-x="1058" 
d="M1022 1063l-272 -102q0 36 -3.5 64t-14.5 59t-35.5 48t-61.5 17q-60 0 -108.5 -53.5t-76 -130.5t-46 -172t-25 -168t-6.5 -127q0 -275 155 -275q156 0 199 295h-170l29 242h434q-9 -85 -15.5 -136.5t-21.5 -124.5t-35 -132q-26 -79 -67.5 -147.5t-97.5 -124t-130.5 -87
t-158.5 -31.5q-87 0 -156.5 31.5t-115 84t-76 123t-43.5 145t-13 153.5q0 190 45 360q21 79 53 150.5t79.5 138.5t104.5 115.5t132.5 78t159.5 29.5q150 0 241.5 -85.5t116.5 -237.5zM623 -94l-179 -344h-143l109 344h213z" />
    <glyph glyph-name="gcommaaccent" unicode="&#x123;" horiz-adv-x="806" 
d="M780 915l-121 -962q-5 -45 -8.5 -66.5t-13 -55t-25.5 -62.5q-51 -95 -142.5 -143t-203.5 -48q-133 0 -205.5 72.5t-72.5 206.5q0 37 2 39h221q0 -21 2 -36.5t9 -34.5t24.5 -29.5t44.5 -10.5q23 0 41 10.5t30.5 32t21 40.5t15 50.5t9 46.5t6.5 43l16 107
q-22 -31 -37.5 -49.5t-39 -40.5t-51 -32.5t-58.5 -10.5q-47 0 -84.5 23.5t-59 59.5t-35.5 84t-19 90.5t-5 84.5q0 60 8.5 132.5t31 158.5t55.5 155t88.5 115.5t123.5 46.5q62 0 100.5 -32.5t65.5 -94.5l14 110h252zM487 563q0 139 -61 139q-35 0 -61.5 -41.5t-40 -102
t-19.5 -111.5t-6 -85q0 -21 2.5 -42t8.5 -47t21 -42t36 -16q35 0 60.5 42.5t37.5 105t17 113.5t5 87zM303 1014l186 372h144l-119 -372h-211z" />
    <glyph glyph-name="Hcircumflex" unicode="&#x124;" horiz-adv-x="1011" 
d="M1016 1366l-166 -1366h-266l73 604h-268l-76 -604h-266l168 1366h266l-61 -506h268l62 506h266zM897 1595l-123 -112l-135 127l-172 -127l-84 127l281 205z" />
    <glyph glyph-name="hcircumflex" unicode="&#x125;" horiz-adv-x="794" 
d="M459 1493l-88 -721q48 75 103.5 117.5t131.5 42.5q72 0 105.5 -46.5t33.5 -121.5q0 -33 -14 -152l-74 -612h-254l66 522q6 47 6 94q0 60 -47 60q-21 0 -36.5 -10.5t-23.5 -23t-14.5 -36.5t-8 -37t-4.5 -38q-1 -6 -1 -9l-64 -522h-253l184 1493h252zM610 1642l-123 -112
l-135 127l-172 -127l-84 127l281 205z" />
    <glyph glyph-name="Hbar" unicode="&#x126;" horiz-adv-x="1011" 
d="M713 1059h-271l-22 -199h270zM850 0h-266l73 604h-268l-76 -604h-266l129 1059h-102l24 198h103l14 109h266l-14 -109h268l15 109h266l-12 -109h102l-25 -198h-102z" />
    <glyph glyph-name="hbar" unicode="&#x127;" horiz-adv-x="808" 
d="M37 0l127 1038h-113l21 181h112l35 274h254l-35 -274h221l-20 -181h-221l-37 -307q48 75 103.5 117.5t131.5 42.5q72 0 106 -46.5t34 -121.5q0 -25 -15 -152l-69 -571h-254l61 481q6 47 6 94q0 60 -47 60q-21 0 -36.5 -10.5t-23.5 -23t-14.5 -36.5t-8 -37t-4.5 -38
q-1 -6 -1 -9l-59 -481h-254z" />
    <glyph glyph-name="Imacron" unicode="&#x12a;" horiz-adv-x="475" 
d="M481 1366l-168 -1366h-266l168 1366h266zM668 1675l-21 -164h-577l20 164h578z" />
    <glyph glyph-name="imacron" unicode="&#x12b;" horiz-adv-x="415" 
d="M389 915l-113 -915h-253l112 915h254zM580 1251l-21 -164h-577l20 164h578z" />
    <glyph glyph-name="Iogonek" unicode="&#x12e;" horiz-adv-x="475" 
d="M481 1366l-168 -1366q-26 -21 -57 -59q-33 -47 -33 -78q0 -24 15 -39q16 -19 51 -19q39 0 71 21l-49 -154q-41 -20 -104 -20q-78 0 -119 41q-37 37 -37 98q0 75 47 133q29 36 86 76h-137l168 1366h266z" />
    <glyph glyph-name="iogonek" unicode="&#x12f;" horiz-adv-x="415" 
d="M461 1204q0 -72 -55 -126t-127 -54q-59 0 -99.5 42t-40.5 101q0 72 55.5 126.5t127.5 54.5q61 0 100 -41.5t39 -102.5zM315 -199l-47 -145q-41 -35 -98 -35q-75 0 -121 49q-37 37 -37 94q0 70 54 136q23 31 92 100h-135l112 915h254l-113 -915q-36 -39 -59 -70
q-41 -52 -41 -92q0 -28 21 -49q22 -22 53 -22q34 0 65 34z" />
    <glyph glyph-name="Idotaccent" unicode="&#x130;" horiz-adv-x="475" 
d="M481 1366l-168 -1366h-266l168 1366h266zM512 1634q0 -61 -46.5 -106t-107.5 -45q-51 0 -83.5 34t-32.5 85q0 61 45 107t106 46q51 0 85 -35t34 -86z" />
    <glyph glyph-name="dotlessi" unicode="&#x131;" horiz-adv-x="415" 
d="M389 915l-113 -915h-253l112 915h254z" />
    <glyph glyph-name="Jcircumflex" unicode="&#x134;" horiz-adv-x="624" 
d="M631 1366l-117 -946q-20 -160 -57 -238q-44 -95 -130 -150t-192 -55q-108 0 -190 43l32 271q56 -76 132 -76q33 0 57.5 14t38 31.5t23.5 50t13 53t7 56.5l117 946h266zM774 1595l-123 -112l-135 127l-172 -127l-84 127l281 205z" />
    <glyph glyph-name="jcircumflex" unicode="&#x135;" horiz-adv-x="411" 
d="M385 915l-164 -1337h-254l164 1337h254zM541 1171l-123 -112l-135 127l-172 -127l-84 127l280 205z" />
    <glyph glyph-name="Kcommaaccent" unicode="&#x136;" horiz-adv-x="911" 
d="M977 1366l-334 -637l191 -729h-273l-162 694l-86 -694h-266l168 1366h266l-75 -610l301 610h270zM541 -94l-179 -344h-143l109 344h213z" />
    <glyph glyph-name="kcommaaccent" unicode="&#x137;" horiz-adv-x="784" 
d="M801 915l-250 -405l182 -510h-266l-131 477l-60 -477h-253l184 1493h252l-113 -930l184 352h271zM467 -94l-186 -373h-144l119 373h211z" />
    <glyph glyph-name="Lacute" unicode="&#x139;" horiz-adv-x="663" 
d="M625 256l-33 -256h-545l168 1366h266l-135 -1110h279zM260 1530l193 262l165 -102l-233 -234z" />
    <glyph glyph-name="lacute" unicode="&#x13a;" horiz-adv-x="417" 
d="M459 1493l-183 -1493h-253l184 1493h252zM606 1780l-260 -250l-115 74l205 262z" />
    <glyph glyph-name="Lcommaaccent" unicode="&#x13b;" horiz-adv-x="663" 
d="M625 256l-33 -256h-545l168 1366h266l-135 -1110h279zM438 -94l-178 -344h-143l108 344h213z" />
    <glyph glyph-name="lcommaaccent" unicode="&#x13c;" horiz-adv-x="417" 
d="M459 1493l-183 -1493h-253l184 1493h252zM238 -94l-187 -373h-143l119 373h211z" />
    <glyph glyph-name="Lcaron" unicode="&#x13d;" horiz-adv-x="903" 
d="M625 256l-33 -256h-545l168 1366h266l-135 -1110h279zM903 1366l-205 -405h-143l135 405h213z" />
    <glyph glyph-name="lcaron" unicode="&#x13e;" horiz-adv-x="800" 
d="M459 1493l-183 -1493h-253l184 1493h252zM815 1366l-211 -418h-143l143 418h211z" />
    <glyph glyph-name="Ldot" unicode="&#x13f;" horiz-adv-x="663" 
d="M625 256l-33 -256h-545l168 1366h266l-135 -1110h279zM735 700q0 -61 -46 -106t-107 -45q-51 0 -84 34t-33 85q0 61 45 107t106 46q51 0 85 -35t34 -86z" />
    <glyph glyph-name="ldot" unicode="&#x140;" horiz-adv-x="667" 
d="M459 1493l-183 -1493h-253l184 1493h252zM711 764q0 -61 -46.5 -106.5t-107.5 -45.5q-51 0 -84 34t-33 85q0 61 45.5 107.5t106.5 46.5q51 0 85 -35t34 -86z" />
    <glyph glyph-name="Lslash" unicode="&#x141;" horiz-adv-x="663" 
d="M633 987l-29 -237l-217 -156l-41 -338h279l-33 -256h-545l57 469l-112 -88l28 237l113 87l82 661h266l-65 -535z" />
    <glyph glyph-name="lslash" unicode="&#x142;" horiz-adv-x="454" 
d="M516 999l-27 -217l-106 -82l-86 -700h-252l70 571l-107 -86l27 217l106 86l86 705h254l-71 -575z" />
    <glyph glyph-name="Nacute" unicode="&#x143;" horiz-adv-x="1044" 
d="M1049 1366l-168 -1366h-250l-230 823q0 -117 -8 -176l-80 -647h-266l168 1366h252l229 -825q-2 33 -2 98q0 59 4 90l80 637h271zM512 1530l193 262l165 -102l-233 -234z" />
    <glyph glyph-name="nacute" unicode="&#x144;" horiz-adv-x="794" 
d="M389 915l-18 -143q48 75 103.5 117.5t131.5 42.5q72 0 105.5 -46.5t33.5 -121.5q0 -33 -14 -152l-74 -612h-254l66 522q6 47 6 94q0 60 -47 60q-21 0 -36.5 -10.5t-23.5 -23t-14.5 -36.5t-8 -37t-4.5 -38q-1 -6 -1 -9l-64 -522h-253l112 915h254zM778 1309l-260 -250
l-115 74l205 262z" />
    <glyph glyph-name="Ncommaaccent" unicode="&#x145;" horiz-adv-x="1044" 
d="M1049 1366l-168 -1366h-250l-230 823q0 -117 -8 -176l-80 -647h-266l168 1366h252l229 -825q-2 33 -2 98q0 59 4 90l80 637h271zM582 -94l-179 -344h-143l109 344h213z" />
    <glyph glyph-name="ncommaaccent" unicode="&#x146;" horiz-adv-x="794" 
d="M389 915l-18 -143q48 75 103.5 117.5t131.5 42.5q72 0 105.5 -46.5t33.5 -121.5q0 -33 -14 -152l-74 -612h-254l66 522q6 47 6 94q0 60 -47 60q-21 0 -36.5 -10.5t-23.5 -23t-14.5 -36.5t-8 -37t-4.5 -38q-1 -6 -1 -9l-64 -522h-253l112 915h254zM436 -94l-186 -373h-144
l119 373h211z" />
    <glyph glyph-name="Ncaron" unicode="&#x147;" horiz-adv-x="1044" 
d="M1049 1366l-168 -1366h-250l-230 823q0 -117 -8 -176l-80 -647h-266l168 1366h252l229 -825q-2 33 -2 98q0 59 4 90l80 637h271zM920 1688l-281 -205l-233 219l122 113l136 -127l172 127z" />
    <glyph glyph-name="ncaron" unicode="&#x148;" horiz-adv-x="794" 
d="M389 915l-18 -143q48 75 103.5 117.5t131.5 42.5q72 0 105.5 -46.5t33.5 -121.5q0 -33 -14 -152l-74 -612h-254l66 522q6 47 6 94q0 60 -47 60q-21 0 -36.5 -10.5t-23.5 -23t-14.5 -36.5t-8 -37t-4.5 -38q-1 -6 -1 -9l-64 -522h-253l112 915h254zM774 1264l-280 -205
l-234 219l123 113l135 -127l172 127z" />
    <glyph glyph-name="Omacron" unicode="&#x14c;" horiz-adv-x="1093" 
d="M1059 889q0 -276 -72 -481q-30 -87 -76.5 -162t-108.5 -136.5t-144.5 -97t-174.5 -35.5q-98 0 -185.5 53.5t-137.5 139.5q-72 122 -72 324q0 207 45 372q26 102 70.5 191t108.5 165t155 120t197 44q80 0 146 -28.5t111.5 -76.5t77 -112.5t46 -135t14.5 -144.5zM774 874
q0 41 -6 81.5t-20 84.5t-45 71.5t-74 27.5q-44 0 -83 -31t-64.5 -76.5t-46 -104t-30.5 -105.5t-16 -89q-16 -101 -16 -231q0 -40 6 -80.5t20.5 -84.5t45 -71.5t73.5 -27.5q45 0 84 31t64.5 76t45.5 103.5t30 105t16 89.5q16 101 16 231zM999 1675l-20 -164h-578l21 164h577z
" />
    <glyph glyph-name="omacron" unicode="&#x14d;" horiz-adv-x="790" 
d="M743 592q0 -82 -11.5 -162t-40.5 -163t-73 -144.5t-116.5 -101t-163.5 -39.5q-66 0 -117 21t-83.5 56t-53 85t-29 103t-8.5 115q0 97 23.5 193t70.5 182.5t128.5 140.5t185.5 54q144 0 216 -95.5t72 -244.5zM485 567q0 135 -59 135q-34 0 -60.5 -42t-39.5 -103t-19 -113
t-6 -86q0 -147 64 -147q35 0 60.5 43.5t37.5 108t17 116t5 88.5zM774 1251l-20 -164h-578l21 164h577z" />
    <glyph glyph-name="Obreve" unicode="&#x14e;" horiz-adv-x="1093" 
d="M1059 889q0 -276 -72 -481q-30 -87 -76.5 -162t-108.5 -136.5t-144.5 -97t-174.5 -35.5q-98 0 -185.5 53.5t-137.5 139.5q-72 122 -72 324q0 207 45 372q26 102 70.5 191t108.5 165t155 120t197 44q80 0 146 -28.5t111.5 -76.5t77 -112.5t46 -135t14.5 -144.5zM774 874
q0 41 -6 81.5t-20 84.5t-45 71.5t-74 27.5q-44 0 -83 -31t-64.5 -76.5t-46 -104t-30.5 -105.5t-16 -89q-16 -101 -16 -231q0 -40 6 -80.5t20.5 -84.5t45 -71.5t73.5 -27.5q45 0 84 31t64.5 76t45.5 103.5t30 105t16 89.5q16 101 16 231zM834 1716h135q-17 -99 -88 -170
q-79 -76 -209 -76q-112 0 -172 62q-64 64 -64 184h135q3 -35 27 -59q29 -27 90 -27q75 0 107 27q26 20 39 59z" />
    <glyph glyph-name="obreve" unicode="&#x14f;" horiz-adv-x="790" 
d="M743 592q0 -82 -11.5 -162t-40.5 -163t-73 -144.5t-116.5 -101t-163.5 -39.5q-66 0 -117 21t-83.5 56t-53 85t-29 103t-8.5 115q0 97 23.5 193t70.5 182.5t128.5 140.5t185.5 54q144 0 216 -95.5t72 -244.5zM485 567q0 135 -59 135q-34 0 -60.5 -42t-39.5 -103t-19 -113
t-6 -86q0 -147 64 -147q35 0 60.5 43.5t37.5 108t17 116t5 88.5zM631 1305h135q-17 -99 -88 -170q-79 -76 -209 -76q-113 0 -172 61q-64 64 -64 185h136q3 -37 26 -60q28 -26 90 -26q76 0 107 26q26 20 39 60z" />
    <glyph glyph-name="Ohungarumlaut" unicode="&#x150;" horiz-adv-x="1093" 
d="M1059 889q0 -276 -72 -481q-30 -87 -76.5 -162t-108.5 -136.5t-144.5 -97t-174.5 -35.5q-98 0 -185.5 53.5t-137.5 139.5q-72 122 -72 324q0 207 45 372q26 102 70.5 191t108.5 165t155 120t197 44q80 0 146 -28.5t111.5 -76.5t77 -112.5t46 -135t14.5 -144.5zM774 874
q0 41 -6 81.5t-20 84.5t-45 71.5t-74 27.5q-44 0 -83 -31t-64.5 -76.5t-46 -104t-30.5 -105.5t-16 -89q-16 -101 -16 -231q0 -40 6 -80.5t20.5 -84.5t45 -71.5t73.5 -27.5q45 0 84 31t64.5 76t45.5 103.5t30 105t16 89.5q16 101 16 231zM999 1733l-202 -250l-105 73l152 263
zM723 1733l-205 -250l-104 73l151 263z" />
    <glyph glyph-name="ohungarumlaut" unicode="&#x151;" horiz-adv-x="790" 
d="M743 592q0 -82 -11.5 -162t-40.5 -163t-73 -144.5t-116.5 -101t-163.5 -39.5q-66 0 -117 21t-83.5 56t-53 85t-29 103t-8.5 115q0 97 23.5 193t70.5 182.5t128.5 140.5t185.5 54q144 0 216 -95.5t72 -244.5zM485 567q0 135 -59 135q-34 0 -60.5 -42t-39.5 -103t-19 -113
t-6 -86q0 -147 64 -147q35 0 60.5 43.5t37.5 108t17 116t5 88.5zM838 1309l-203 -250l-105 74l152 262zM561 1309l-205 -250l-104 74l151 262z" />
    <glyph glyph-name="OE" unicode="&#x152;" horiz-adv-x="1361" 
d="M1395 1366l-31 -252h-289l-35 -285h258l-30 -262h-258l-39 -311h291l-33 -256h-551l12 106q-112 -129 -254 -129q-83 0 -146.5 33.5t-101 85t-61 124t-31.5 140.5t-8 144q0 84 12 176t36.5 193t68 191t100 163t139 116t179.5 43q141 0 213 -98l8 78h551zM774 879
q0 37 -1.5 66.5t-10 70t-22.5 67.5t-42 46.5t-67 19.5q-60 0 -107.5 -52.5t-74.5 -127.5t-44.5 -168t-23.5 -164t-6 -125q0 -283 143 -283q62 0 110.5 53.5t75 129.5t43.5 172t22 167t5 128z" />
    <glyph glyph-name="oe" unicode="&#x153;" horiz-adv-x="1177" 
d="M872 285h213q-27 -140 -111.5 -221.5t-221.5 -81.5q-141 0 -222 100q-93 -100 -211 -100q-72 0 -127 29.5t-86.5 80t-47 111t-15.5 129.5q0 131 33 246q20 69 53 130t79.5 112.5t110.5 81.5t136 30q114 0 186 -90q57 48 104.5 69t114.5 21q61 0 108.5 -18.5t78 -49.5
t50.5 -75.5t28 -93t8 -105.5q0 -73 -23 -203h-405q-7 -47 -7 -82q0 -31 5.5 -57.5t25 -49t51.5 -22.5q39 0 63 33t29 76zM731 545h174q0 4 3 30t3 41q0 44 -15.5 79.5t-53.5 35.5q-87 0 -111 -186zM487 565q0 137 -61 137q-34 0 -60.5 -42t-39.5 -103t-19 -113t-6 -86
q0 -147 66 -147q35 0 60.5 43.5t37.5 107.5t17 115t5 88z" />
    <glyph glyph-name="Racute" unicode="&#x154;" horiz-adv-x="954" 
d="M215 1366h289q191 0 284 -66q121 -87 121 -276q0 -264 -237 -403l157 -621h-278l-160 629l-78 -629h-266zM455 1153l-45 -375q14 -2 41 -2q95 0 146.5 65t51.5 163q0 75 -34.5 112t-108.5 37h-51zM434 1530l193 262l166 -102l-234 -234z" />
    <glyph glyph-name="racute" unicode="&#x155;" horiz-adv-x="561" 
d="M600 948l-31 -248q-30 5 -37 5q-46 0 -79.5 -11.5t-53 -29t-33 -49.5t-19 -61.5t-11.5 -76.5l-60 -477h-253l112 915h254l-14 -112q56 69 102.5 102t122.5 43zM688 1309l-260 -250l-115 74l205 262z" />
    <glyph glyph-name="Rcommaaccent" unicode="&#x156;" horiz-adv-x="954" 
d="M215 1366h289q191 0 284 -66q121 -87 121 -276q0 -264 -237 -403l157 -621h-278l-160 629l-78 -629h-266zM455 1153l-45 -375q14 -2 41 -2q95 0 146.5 65t51.5 163q0 75 -34.5 112t-108.5 37h-51zM551 -94l-178 -344h-144l109 344h213z" />
    <glyph glyph-name="rcommaaccent" unicode="&#x157;" horiz-adv-x="561" 
d="M600 948l-31 -248q-30 5 -37 5q-46 0 -79.5 -11.5t-53 -29t-33 -49.5t-19 -61.5t-11.5 -76.5l-60 -477h-253l112 915h254l-14 -112q56 69 102.5 102t122.5 43zM375 -94l-187 -373h-143l119 373h211z" />
    <glyph glyph-name="Rcaron" unicode="&#x158;" horiz-adv-x="954" 
d="M215 1366h289q191 0 284 -66q121 -87 121 -276q0 -264 -237 -403l157 -621h-278l-160 629l-78 -629h-266zM455 1153l-45 -375q14 -2 41 -2q95 0 146.5 65t51.5 163q0 75 -34.5 112t-108.5 37h-51zM834 1688l-281 -205l-234 219l123 113l136 -127l172 127z" />
    <glyph glyph-name="rcaron" unicode="&#x159;" horiz-adv-x="561" 
d="M600 948l-31 -248q-30 5 -37 5q-46 0 -79.5 -11.5t-53 -29t-33 -49.5t-19 -61.5t-11.5 -76.5l-60 -477h-253l112 915h254l-14 -112q56 69 102.5 102t122.5 43zM684 1264l-281 -205l-233 219l123 113l135 -127l172 127z" />
    <glyph glyph-name="Sacute" unicode="&#x15a;" horiz-adv-x="788" 
d="M766 1321l-33 -264q-92 88 -182 88q-67 0 -109.5 -44t-42.5 -112q0 -40 18.5 -75.5t48 -63.5t65.5 -56.5t72 -61t65.5 -69.5t48 -88.5t18.5 -111.5q0 -128 -52.5 -238t-154 -179t-231.5 -69q-131 0 -225 70l32 258q98 -74 187 -74q78 0 128 48.5t50 126.5q0 33 -6 47
q-13 34 -64 75q-33 30 -65 52q-69 52 -109 95t-66 106t-26 143q0 118 48 222.5t142.5 172t215.5 67.5q117 0 227 -65zM465 1530l192 262l166 -102l-233 -234z" />
    <glyph glyph-name="sacute" unicode="&#x15b;" horiz-adv-x="634" 
d="M651 854l-123 -186q-54 61 -112 61q-32 0 -53 -22t-21 -54q0 -20 18 -38.5t45 -32t58 -34.5t58 -45t45 -65t18 -92q0 -148 -93 -256t-239 -108q-133 0 -258 104l135 182q60 -57 117 -57q37 0 62.5 24t25.5 62q0 26 -26 48t-62.5 42.5t-73 47.5t-62.5 75t-26 113
q0 140 98 224.5t240 84.5q127 0 229 -78zM678 1309l-260 -250l-115 74l205 262z" />
    <glyph glyph-name="Scircumflex" unicode="&#x15c;" horiz-adv-x="788" 
d="M766 1321l-33 -264q-92 88 -182 88q-67 0 -109.5 -44t-42.5 -112q0 -40 18.5 -75.5t48 -63.5t65.5 -56.5t72 -61t65.5 -69.5t48 -88.5t18.5 -111.5q0 -128 -52.5 -238t-154 -179t-231.5 -69q-131 0 -225 70l32 258q98 -74 187 -74q78 0 128 48.5t50 126.5q0 33 -6 47
q-13 34 -64 75q-33 30 -65 52q-69 52 -109 95t-66 106t-26 143q0 118 48 222.5t142.5 172t215.5 67.5q117 0 227 -65zM825 1595l-123 -112l-135 127l-172 -127l-84 127l281 205z" />
    <glyph glyph-name="scircumflex" unicode="&#x15d;" horiz-adv-x="634" 
d="M651 854l-123 -186q-54 61 -112 61q-32 0 -53 -22t-21 -54q0 -20 18 -38.5t45 -32t58 -34.5t58 -45t45 -65t18 -92q0 -148 -93 -256t-239 -108q-133 0 -258 104l135 182q60 -57 117 -57q37 0 62.5 24t25.5 62q0 26 -26 48t-62.5 42.5t-73 47.5t-62.5 75t-26 113
q0 140 98 224.5t240 84.5q127 0 229 -78zM702 1171l-122 -112l-136 127l-172 -127l-84 127l281 205z" />
    <glyph glyph-name="Scedilla" unicode="&#x15e;" horiz-adv-x="788" 
d="M766 1321l-33 -264q-92 88 -182 88q-67 0 -109.5 -44t-42.5 -112q0 -40 18.5 -75.5t48 -63.5t65.5 -56.5t72 -61t65.5 -69.5t48 -88.5t18.5 -111.5q0 -128 -52.5 -238t-154 -179t-231.5 -69q-131 0 -225 70l32 258q98 -74 187 -74q78 0 128 48.5t50 126.5q0 33 -6 47
q-13 34 -64 75q-33 30 -65 52q-69 52 -109 95t-66 106t-26 143q0 118 48 222.5t142.5 172t215.5 67.5q117 0 227 -65zM475 -158l-223 -262l-123 74l162 260z" />
    <glyph glyph-name="scedilla" unicode="&#x15f;" horiz-adv-x="634" 
d="M651 854l-123 -186q-54 61 -112 61q-32 0 -53 -22t-21 -54q0 -20 18 -38.5t45 -32t58 -34.5t58 -45t45 -65t18 -92q0 -148 -93 -256t-239 -108q-133 0 -258 104l135 182q60 -57 117 -57q37 0 62.5 24t25.5 62q0 26 -26 48t-62.5 42.5t-73 47.5t-62.5 75t-26 113
q0 140 98 224.5t240 84.5q127 0 229 -78zM395 -152l-217 -243l-104 59l170 250z" />
    <glyph glyph-name="Scaron" unicode="&#x160;" horiz-adv-x="788" 
d="M766 1321l-33 -264q-92 88 -182 88q-67 0 -109.5 -44t-42.5 -112q0 -40 18.5 -75.5t48 -63.5t65.5 -56.5t72 -61t65.5 -69.5t48 -88.5t18.5 -111.5q0 -128 -52.5 -238t-154 -179t-231.5 -69q-131 0 -225 70l32 258q98 -74 187 -74q78 0 128 48.5t50 126.5q0 33 -6 47
q-13 34 -64 75q-33 30 -65 52q-69 52 -109 95t-66 106t-26 143q0 118 48 222.5t142.5 172t215.5 67.5q117 0 227 -65zM827 1688l-280 -205l-234 219l123 113l135 -127l172 127z" />
    <glyph glyph-name="scaron" unicode="&#x161;" horiz-adv-x="634" 
d="M651 854l-123 -186q-54 61 -112 61q-32 0 -53 -22t-21 -54q0 -20 18 -38.5t45 -32t58 -34.5t58 -45t45 -65t18 -92q0 -148 -93 -256t-239 -108q-133 0 -258 104l135 182q60 -57 117 -57q37 0 62.5 24t25.5 62q0 26 -26 48t-62.5 42.5t-73 47.5t-62.5 75t-26 113
q0 140 98 224.5t240 84.5q127 0 229 -78zM715 1264l-281 -205l-233 219l123 113l135 -127l172 127z" />
    <glyph glyph-name="Tcedilla" unicode="&#x162;" horiz-adv-x="684" 
d="M795 1366l-31 -250h-209l-137 -1116h-266l137 1116h-209l31 250h684zM446 -158l-223 -262l-123 74l162 260z" />
    <glyph glyph-name="tcedilla" unicode="&#x163;" horiz-adv-x="462" 
d="M514 915l-25 -213h-102l-88 -702h-252l86 702h-86l27 213h86l33 261h251l-32 -261h102zM313 -152l-217 -243l-104 59l170 250z" />
    <glyph glyph-name="Tcaron" unicode="&#x164;" horiz-adv-x="684" 
d="M795 1366l-31 -250h-209l-137 -1116h-266l137 1116h-209l31 250h684zM745 1688l-280 -205l-234 219l123 113l135 -127l173 127z" />
    <glyph glyph-name="tcaron" unicode="&#x165;" horiz-adv-x="821" 
d="M514 915l-25 -213h-102l-88 -702h-252l86 702h-86l27 213h86l33 261h251l-32 -261h102zM836 1386l-211 -417h-144l144 417h211z" />
    <glyph glyph-name="Utilde" unicode="&#x168;" horiz-adv-x="1005" 
d="M1012 1366l-125 -1018q-9 -70 -22.5 -116t-47.5 -93q-60 -85 -161.5 -123.5t-219.5 -38.5q-104 0 -180.5 29.5t-124 98.5t-47.5 174q0 19 10 106l121 981h266l-110 -907q-11 -96 -11 -103q0 -133 113 -133q21 0 39 4t31.5 9.5t24.5 17.5t19 20t14.5 26.5t10 27.5
t7.5 32.5t5.5 32t4.5 34t4 32.5l112 907h267zM811 1733l131 -9q-11 -40 -20 -67t-26.5 -63t-37.5 -57.5t-51.5 -37.5t-69.5 -16q-44 0 -113 31.5t-96 31.5q-45 0 -63 -57h-131q9 40 17 68t24.5 63.5t36 57.5t50.5 37.5t70 15.5q45 0 109.5 -35t97.5 -35q10 0 18 1.5t15 6.5
t11 7.5t9 12t6.5 12.5t6.5 16t6 16z" />
    <glyph glyph-name="utilde" unicode="&#x169;" horiz-adv-x="792" 
d="M766 915l-74 -606q-7 -64 -19.5 -103.5t-45.5 -82.5q-50 -66 -129 -103.5t-164 -37.5q-118 0 -198.5 66t-80.5 181q0 8 11 115l69 571h254l-65 -524q-9 -79 -9 -104q0 -68 52 -68q15 0 27.5 6.5t20.5 19.5t13.5 25t9 32t5.5 32t3.5 32t2.5 25l65 524h252zM655 1309
l131 -9q-11 -40 -19.5 -66.5t-26 -63t-37.5 -58t-51.5 -37.5t-69.5 -16q-44 0 -113 31.5t-96 31.5q-46 0 -64 -57h-131q12 51 23.5 85.5t34 74.5t58 61t83.5 21q45 0 109.5 -35t97.5 -35q12 0 21.5 3.5t15 6t11.5 12.5t8 13t8 19t7 18z" />
    <glyph glyph-name="Umacron" unicode="&#x16a;" horiz-adv-x="1005" 
d="M1012 1366l-125 -1018q-9 -70 -22.5 -116t-47.5 -93q-60 -85 -161.5 -123.5t-219.5 -38.5q-104 0 -180.5 29.5t-124 98.5t-47.5 174q0 19 10 106l121 981h266l-110 -907q-11 -96 -11 -103q0 -133 113 -133q21 0 39 4t31.5 9.5t24.5 17.5t19 20t14.5 26.5t10 27.5
t7.5 32.5t5.5 32t4.5 34t4 32.5l112 907h267zM928 1675l-21 -164h-577l20 164h578z" />
    <glyph glyph-name="umacron" unicode="&#x16b;" horiz-adv-x="792" 
d="M766 915l-74 -606q-7 -64 -19.5 -103.5t-45.5 -82.5q-50 -66 -129 -103.5t-164 -37.5q-118 0 -198.5 66t-80.5 181q0 8 11 115l69 571h254l-65 -524q-9 -79 -9 -104q0 -68 52 -68q15 0 27.5 6.5t20.5 19.5t13.5 25t9 32t5.5 32t3.5 32t2.5 25l65 524h252zM774 1251
l-20 -164h-578l21 164h577z" />
    <glyph glyph-name="Ubreve" unicode="&#x16c;" horiz-adv-x="1005" 
d="M1012 1366l-125 -1018q-9 -70 -22.5 -116t-47.5 -93q-60 -85 -161.5 -123.5t-219.5 -38.5q-104 0 -180.5 29.5t-124 98.5t-47.5 174q0 19 10 106l121 981h266l-110 -907q-11 -96 -11 -103q0 -133 113 -133q21 0 39 4t31.5 9.5t24.5 17.5t19 20t14.5 26.5t10 27.5
t7.5 32.5t5.5 32t4.5 34t4 32.5l112 907h267zM782 1716h136q-17 -98 -89 -170q-44 -42 -93.5 -59t-114.5 -17q-112 0 -172 62q-64 64 -64 184h135q3 -35 27 -59q29 -27 90 -27q74 0 106 27q26 20 39 59z" />
    <glyph glyph-name="ubreve" unicode="&#x16d;" horiz-adv-x="792" 
d="M766 915l-74 -606q-7 -64 -19.5 -103.5t-45.5 -82.5q-50 -66 -129 -103.5t-164 -37.5q-118 0 -198.5 66t-80.5 181q0 8 11 115l69 571h254l-65 -524q-9 -79 -9 -104q0 -68 52 -68q15 0 27.5 6.5t20.5 19.5t13.5 25t9 32t5.5 32t3.5 32t2.5 25l65 524h252zM612 1305h136
q-17 -98 -89 -170q-44 -42 -93.5 -59t-114.5 -17q-113 0 -172 61q-64 64 -64 185h135q3 -36 27 -60q28 -26 90 -26q75 0 106 26q26 20 39 60z" />
    <glyph glyph-name="Uring" unicode="&#x16e;" horiz-adv-x="1005" 
d="M1012 1366l-125 -1018q-9 -70 -22.5 -116t-47.5 -93q-60 -85 -161.5 -123.5t-219.5 -38.5q-104 0 -180.5 29.5t-124 98.5t-47.5 174q0 19 10 106l121 981h266l-110 -907q-11 -96 -11 -103q0 -133 113 -133q21 0 39 4t31.5 9.5t24.5 17.5t19 20t14.5 26.5t10 27.5
t7.5 32.5t5.5 32t4.5 34t4 32.5l112 907h267zM446 1659q0 82 57.5 139t139.5 57t139.5 -57t57.5 -139t-57.5 -139.5t-139.5 -57.5t-139.5 57.5t-57.5 139.5zM559 1659q0 -37 23.5 -60.5t60.5 -23.5t60.5 23.5t23.5 60.5t-23.5 60.5t-60.5 23.5t-60.5 -23.5t-23.5 -60.5z" />
    <glyph glyph-name="uring" unicode="&#x16f;" horiz-adv-x="792" 
d="M766 915l-74 -606q-7 -64 -19.5 -103.5t-45.5 -82.5q-50 -66 -129 -103.5t-164 -37.5q-118 0 -198.5 66t-80.5 181q0 8 11 115l69 571h254l-65 -524q-9 -79 -9 -104q0 -68 52 -68q15 0 27.5 6.5t20.5 19.5t13.5 25t9 32t5.5 32t3.5 32t2.5 25l65 524h252zM276 1268
q0 82 57.5 139t139.5 57t139.5 -57t57.5 -139t-57.5 -139.5t-139.5 -57.5t-139.5 57.5t-57.5 139.5zM389 1268q0 -37 23.5 -60.5t60.5 -23.5t60.5 23.5t23.5 60.5t-23.5 60.5t-60.5 23.5t-60.5 -23.5t-23.5 -60.5z" />
    <glyph glyph-name="Uhungarumlaut" unicode="&#x170;" horiz-adv-x="1005" 
d="M1012 1366l-125 -1018q-9 -70 -22.5 -116t-47.5 -93q-60 -85 -161.5 -123.5t-219.5 -38.5q-104 0 -180.5 29.5t-124 98.5t-47.5 174q0 19 10 106l121 981h266l-110 -907q-11 -96 -11 -103q0 -133 113 -133q21 0 39 4t31.5 9.5t24.5 17.5t19 20t14.5 26.5t10 27.5
t7.5 32.5t5.5 32t4.5 34t4 32.5l112 907h267zM944 1733l-203 -250l-104 73l151 263zM668 1733l-205 -250l-105 73l152 263z" />
    <glyph glyph-name="uhungarumlaut" unicode="&#x171;" horiz-adv-x="792" 
d="M766 915l-74 -606q-7 -64 -19.5 -103.5t-45.5 -82.5q-50 -66 -129 -103.5t-164 -37.5q-118 0 -198.5 66t-80.5 181q0 8 11 115l69 571h254l-65 -524q-9 -79 -9 -104q0 -68 52 -68q15 0 27.5 6.5t20.5 19.5t13.5 25t9 32t5.5 32t3.5 32t2.5 25l65 524h252zM809 1309
l-203 -250l-104 74l151 262zM532 1309l-204 -250l-105 74l152 262z" />
    <glyph glyph-name="Uogonek" unicode="&#x172;" horiz-adv-x="1005" 
d="M1012 1366l-125 -1018q-13 -105 -36.5 -160.5t-66.5 -101.5q-15 -16 -28.5 -29t-28 -23t-23 -15t-26 -14.5t-23.5 -12.5q-71 -41 -92 -66q-24 -27 -24 -63q0 -25 14 -39q16 -19 51 -19q40 0 72 21l-49 -154q-41 -20 -105 -20q-78 0 -119 41q-36 36 -36 98q0 107 104 189
q-9 0 -26.5 -2.5t-26.5 -2.5q-76 0 -147.5 26.5t-112.5 70.5q-74 78 -74 196q0 56 10 133l121 965h266l-114 -934q-7 -48 -7 -80q0 -60 25 -92q29 -37 90 -37q63 0 98 35q39 37 54 150l118 958h267z" />
    <glyph glyph-name="uogonek" unicode="&#x173;" horiz-adv-x="792" 
d="M766 915l-74 -606q-10 -89 -32.5 -144.5t-63.5 -101.5q-39 -41 -82 -69q-35 -25 -70 -62q-34 -38 -34 -73q0 -27 18 -45q20 -17 51 -17q37 0 68 21l-47 -146q-44 -20 -94 -20q-80 0 -121 41q-39 39 -39 94q0 96 110 193q-151 0 -229 75q-72 69 -72 181q0 22 11 110
l69 569h254l-65 -532q-9 -90 -9 -98q0 -39 19 -56q13 -10 31 -10q26 0 45 19q23 25 36 133l68 544h252z" />
    <glyph glyph-name="Ydieresis" unicode="&#x178;" horiz-adv-x="901" 
d="M1012 1366l-408 -782l-74 -584h-266l72 584l-225 782h292l68 -313q13 -57 29 -187q29 81 78 193l137 307h297zM887 1632q0 -61 -46.5 -105t-107.5 -44q-50 0 -82.5 34.5t-32.5 84.5q0 60 45 105.5t105 45.5q51 0 85 -35t34 -86zM532 1632q0 -60 -45.5 -104.5
t-105.5 -44.5q-51 0 -84 34t-33 85q0 60 45 105.5t105 45.5q51 0 84.5 -35t33.5 -86z" />
    <glyph glyph-name="Zacute" unicode="&#x179;" horiz-adv-x="919" 
d="M993 1366l-596 -1110h424l-33 -256h-808l583 1108h-391l31 258h790zM451 1530l192 262l166 -102l-234 -234z" />
    <glyph glyph-name="zacute" unicode="&#x17a;" horiz-adv-x="688" 
d="M715 915l-365 -704h250l-27 -211h-604l373 702h-256l25 213h604zM684 1309l-260 -250l-115 74l205 262z" />
    <glyph glyph-name="Zdotaccent" unicode="&#x17b;" horiz-adv-x="919" 
d="M993 1366l-596 -1110h424l-33 -256h-808l583 1108h-391l31 258h790zM754 1634q0 -61 -46.5 -106t-107.5 -45q-51 0 -84 34t-33 85q0 60 45.5 106.5t106.5 46.5q51 0 85 -35t34 -86z" />
    <glyph glyph-name="zdotaccent" unicode="&#x17c;" horiz-adv-x="688" 
d="M715 915l-365 -704h250l-27 -211h-604l373 702h-256l25 213h604zM578 1210q0 -61 -46.5 -106t-107.5 -45q-51 0 -84 34t-33 85q0 60 45.5 106.5t106.5 46.5q51 0 85 -35t34 -86z" />
    <glyph glyph-name="Zcaron" unicode="&#x17d;" horiz-adv-x="919" 
d="M993 1366l-596 -1110h424l-33 -256h-808l583 1108h-391l31 258h790zM868 1688l-280 -205l-234 219l123 113l135 -127l172 127z" />
    <glyph glyph-name="zcaron" unicode="&#x17e;" horiz-adv-x="688" 
d="M715 915l-365 -704h250l-27 -211h-604l373 702h-256l25 213h604zM700 1264l-280 -205l-234 219l123 113l135 -127l172 127z" />
    <glyph glyph-name="uni018F" unicode="&#x18f;" horiz-adv-x="1071" 
d="M115 760h630q10 101 -1.5 201t-57.5 147q-39 41 -96 41q-58 0 -96 -35q-41 -36 -80 -153l-250 102q52 126 141 209q126 114 313 114q168 0 273 -96q145 -134 145 -424q0 -82 -10 -169.5t-34.5 -196t-78 -211.5t-129.5 -176q-142 -136 -335 -136q-73 0 -126 21t-102 70
q-133 135 -133 397q0 121 27 295zM350 518q-14 -51 -5 -135.5t48 -124.5q35 -35 82 -35q73 0 121 51q41 41 71 112.5t38 131.5h-355z" />
    <glyph glyph-name="florin" unicode="&#x192;" horiz-adv-x="886" 
d="M860 1491l-47 -242q-26 13 -51 13q-15 0 -27.5 -5t-21.5 -16t-15 -20t-11 -27t-7 -26t-5.5 -28.5t-4.5 -23.5l-39 -201h143l-26 -139h-144l-108 -536q-4 -21 -12.5 -65.5t-13.5 -70.5t-15 -68t-19.5 -68.5t-25 -62.5t-32.5 -58.5t-41.5 -47.5t-52.5 -39t-65 -23t-80 -9
q-51 0 -125 18l47 242q30 -15 56 -15q14 0 25.5 4t20.5 13.5t15 16.5t12 23.5t8 23t7 26t6 22.5q14 62 33 156l102 518h-135l27 139h135q36 170 53 263q10 55 18.5 89.5t28 80t47.5 77.5q38 44 96.5 67.5t120.5 23.5q56 0 123 -25z" />
    <glyph glyph-name="uni01CF" unicode="&#x1cf;" horiz-adv-x="475" 
d="M481 1366l-168 -1366h-266l168 1366h266zM643 1688l-281 -205l-233 219l123 113l135 -127l172 127z" />
    <glyph glyph-name="uni01D0" unicode="&#x1d0;" horiz-adv-x="415" 
d="M389 915l-113 -915h-253l112 915h254zM551 1264l-281 -205l-233 219l123 113l135 -127l172 127z" />
    <glyph glyph-name="uni01DD" unicode="&#x1dd;" horiz-adv-x="763" 
d="M295 631l-205 41q29 107 96 174q84 86 228 86q132 0 211 -74q92 -88 92 -278q0 -139 -41 -279t-125 -227q-48 -50 -103.5 -71t-130.5 -21q-117 0 -186 71q-84 86 -84 269q0 101 23 202h405q6 47 6 88q0 79 -28 107q-20 20 -58 20q-37 0 -63 -26q-27 -30 -37 -82zM453 367
h-185q-8 -35 -8 -74q0 -69 29 -98q19 -19 49 -19q29 0 53 19q48 39 62 172z" />
    <glyph glyph-name="Gcaron" unicode="&#x1e6;" horiz-adv-x="1058" 
d="M1022 1063l-272 -102q0 36 -3.5 64t-14.5 59t-35.5 48t-61.5 17q-60 0 -108.5 -53.5t-76 -130.5t-46 -172t-25 -168t-6.5 -127q0 -275 155 -275q156 0 199 295h-170l29 242h434q-9 -85 -15.5 -136.5t-21.5 -124.5t-35 -132q-26 -79 -67.5 -147.5t-97.5 -124t-130.5 -87
t-158.5 -31.5q-87 0 -156.5 31.5t-115 84t-76 123t-43.5 145t-13 153.5q0 190 45 360q21 79 53 150.5t79.5 138.5t104.5 115.5t132.5 78t159.5 29.5q150 0 241.5 -85.5t116.5 -237.5zM950 1688l-280 -205l-234 219l123 113l135 -127l172 127z" />
    <glyph glyph-name="gcaron" unicode="&#x1e7;" horiz-adv-x="806" 
d="M780 915l-121 -962q-5 -45 -8.5 -66.5t-13 -55t-25.5 -62.5q-51 -95 -142.5 -143t-203.5 -48q-133 0 -205.5 72.5t-72.5 206.5q0 37 2 39h221q0 -21 2 -36.5t9 -34.5t24.5 -29.5t44.5 -10.5q23 0 41 10.5t30.5 32t21 40.5t15 50.5t9 46.5t6.5 43l16 107
q-22 -31 -37.5 -49.5t-39 -40.5t-51 -32.5t-58.5 -10.5q-47 0 -84.5 23.5t-59 59.5t-35.5 84t-19 90.5t-5 84.5q0 60 8.5 132.5t31 158.5t55.5 155t88.5 115.5t123.5 46.5q62 0 100.5 -32.5t65.5 -94.5l14 110h252zM487 563q0 139 -61 139q-35 0 -61.5 -41.5t-40 -102
t-19.5 -111.5t-6 -85q0 -21 2.5 -42t8.5 -47t21 -42t36 -16q35 0 60.5 42.5t37.5 105t17 113.5t5 87zM766 1264l-281 -205l-233 219l123 113l135 -127l172 127z" />
    <glyph glyph-name="AEacute" unicode="&#x1fc;" horiz-adv-x="1193" 
d="M1124 0h-540l-21 227h-280l-68 -227h-266l473 1366h549l24 -254h-264l33 -283h266l31 -258h-264l39 -315h256zM354 442h191q-15 140 -27 289q-8 90 -8 135q0 24 1 73t1 73q-32 -171 -68 -285zM590 1530l192 262l166 -102l-233 -234z" />
    <glyph glyph-name="aeacute" unicode="&#x1fd;" horiz-adv-x="1150" 
d="M158 674l26 219q121 41 209 41q90 0 144 -28.5t88 -106.5q46 68 101.5 100.5t135.5 32.5q240 0 240 -336q0 -33 -15 -203h-411q-4 -40 -4 -63q0 -160 88 -160q43 0 67 32.5t27 78.5h207q-21 -137 -103 -218t-217 -81q-140 0 -209 112q-59 -56 -115 -84t-128 -28
q-117 0 -189.5 63.5t-72.5 179.5q0 135 85.5 229.5t219.5 94.5q83 0 131 -33q6 87 6 88q0 117 -129 117q-79 0 -182 -47zM696 551h187q4 40 4 61q0 133 -74 133q-29 0 -51.5 -20.5t-35.5 -54.5t-19.5 -62t-10.5 -57zM449 281q0 35 -24.5 59.5t-59.5 24.5q-43 0 -76 -33
t-33 -76q0 -35 24.5 -59.5t59.5 -24.5q43 0 76 33t33 76zM936 1309l-260 -250l-115 74l205 262z" />
    <glyph glyph-name="Scommaaccent" unicode="&#x218;" horiz-adv-x="788" 
d="M766 1321l-33 -264q-92 88 -182 88q-67 0 -109.5 -44t-42.5 -112q0 -40 18.5 -75.5t48 -63.5t65.5 -56.5t72 -61t65.5 -69.5t48 -88.5t18.5 -111.5q0 -128 -52.5 -238t-154 -179t-231.5 -69q-131 0 -225 70l32 258q98 -74 187 -74q78 0 128 48.5t50 126.5q0 33 -6 47
q-13 34 -64 75q-33 30 -65 52q-69 52 -109 95t-66 106t-26 143q0 118 48 222.5t142.5 172t215.5 67.5q117 0 227 -65zM438 -94l-178 -344h-143l108 344h213z" />
    <glyph glyph-name="scommaaccent" unicode="&#x219;" horiz-adv-x="634" 
d="M651 854l-123 -186q-54 61 -112 61q-32 0 -53 -22t-21 -54q0 -20 18 -38.5t45 -32t58 -34.5t58 -45t45 -65t18 -92q0 -148 -93 -256t-239 -108q-133 0 -258 104l135 182q60 -57 117 -57q37 0 62.5 24t25.5 62q0 26 -26 48t-62.5 42.5t-73 47.5t-62.5 75t-26 113
q0 140 98 224.5t240 84.5q127 0 229 -78zM365 -94l-187 -373h-143l119 373h211z" />
    <glyph glyph-name="Tcommaaccent" unicode="&#x21a;" horiz-adv-x="684" 
d="M795 1366l-31 -250h-209l-137 -1116h-266l137 1116h-209l31 250h684zM387 -94l-178 -344h-143l108 344h213z" />
    <glyph glyph-name="tcommaaccent" unicode="&#x21b;" horiz-adv-x="462" 
d="M514 915l-25 -213h-102l-88 -702h-252l86 702h-86l27 213h86l33 261h251l-32 -261h102zM272 -94l-186 -373h-143l118 373h211z" />
    <glyph glyph-name="uni0228" unicode="&#x228;" horiz-adv-x="716" 
d="M750 1366l-31 -254h-268l-37 -295h237l-33 -258h-235l-39 -307h272l-30 -252h-539l168 1366h535zM485 -158l-223 -262l-123 74l162 260z" />
    <glyph glyph-name="uni0229" unicode="&#x229;" horiz-adv-x="751" 
d="M455 315h213q-8 -69 -40 -140t-81 -116q-83 -77 -211 -77q-125 0 -199 77q-94 102 -94 283q0 132 44.5 269.5t133.5 224.5q96 96 228 96q100 0 169 -66q91 -89 91 -274q0 -68 -19 -180h-399q-12 -59 -12 -117q0 -72 24 -100q21 -21 53 -21q47 0 72 45q19 37 27 96z
M311 569h183q4 32 4 49q0 49 -17 82q-19 37 -57 37t-62 -28q-20 -21 -33.5 -63.5t-17.5 -76.5zM459 -152l-217 -243l-105 59l170 250z" />
    <glyph glyph-name="uni0237" unicode="&#x237;" horiz-adv-x="411" 
d="M385 915l-164 -1337h-254l164 1337h254z" />
    <glyph glyph-name="uni0259" unicode="&#x259;" horiz-adv-x="763" 
d="M295 631l-205 41q29 107 96 174q84 86 228 86q132 0 211 -74q92 -88 92 -278q0 -139 -41 -279t-125 -227q-48 -50 -103.5 -71t-130.5 -21q-117 0 -186 71q-84 86 -84 269q0 101 23 202h405q6 47 6 88q0 79 -28 107q-20 20 -58 20q-37 0 -63 -26q-27 -30 -37 -82zM453 367
h-185q-8 -35 -8 -74q0 -69 29 -98q19 -19 49 -19q29 0 53 19q48 39 62 172z" />
    <glyph glyph-name="afii57929" unicode="&#x2bc;" horiz-adv-x="403" 
d="M467 1366l-211 -418h-143l143 418h211z" />
    <glyph glyph-name="circumflex" unicode="&#x2c6;" 
d="M856 1171l-123 -112l-135 127l-172 -127l-84 127l281 205z" />
    <glyph glyph-name="caron" unicode="&#x2c7;" 
d="M868 1264l-280 -205l-234 219l123 113l135 -127l172 127z" />
    <glyph glyph-name="uni02C9" unicode="&#x2c9;" 
d="M897 1251l-20 -164h-578l20 164h578z" />
    <glyph glyph-name="breve" unicode="&#x2d8;" 
d="M748 1305h135q-17 -99 -88 -170q-79 -76 -209 -76q-113 0 -172 61q-64 64 -64 185h135q3 -36 27 -60q28 -26 90 -26q76 0 107 26q26 20 39 60z" />
    <glyph glyph-name="dotaccent" unicode="&#x2d9;" 
d="M737 1210q0 -61 -46 -106t-107 -45q-51 0 -84 34t-33 85q0 61 45 107t106 46q51 0 85 -35t34 -86z" />
    <glyph glyph-name="ring" unicode="&#x2da;" 
d="M412 1268q0 82 57 139t139 57t139.5 -57t57.5 -139t-57.5 -139.5t-139.5 -57.5t-139 57.5t-57 139.5zM524 1268q0 -37 23.5 -60.5t60.5 -23.5t60.5 23.5t23.5 60.5t-23.5 60.5t-60.5 23.5t-60.5 -23.5t-23.5 -60.5z" />
    <glyph glyph-name="ogonek" unicode="&#x2db;" 
d="M717 -199l-47 -145q-41 -35 -99 -35q-74 0 -120 49q-37 37 -37 94q0 71 53 136q23 31 92 100h119q-42 -45 -60 -70q-40 -51 -40 -92q0 -29 20 -49q22 -22 53 -22q35 0 66 34z" />
    <glyph glyph-name="tilde" unicode="&#x2dc;" 
d="M772 1309l131 -9q-11 -40 -20 -67t-26.5 -63t-37.5 -57.5t-51.5 -37.5t-69.5 -16q-44 0 -113 31.5t-96 31.5q-45 0 -63 -57h-131q12 51 23.5 85.5t34 74.5t58 61t83.5 21q45 0 109 -35t97 -35q10 0 18 1.5t15 6.5t11 7.5t9 12t6.5 12.5t6.5 16t6 16z" />
    <glyph glyph-name="hungarumlaut" unicode="&#x2dd;" 
d="M965 1309l-203 -250l-105 74l152 262zM688 1309l-205 -250l-104 74l151 262z" />
    <glyph glyph-name="acutecomb" unicode="&#x301;" horiz-adv-x="4" 
d="M-80 1309l-260 -250l-115 74l205 262z" />
    <glyph glyph-name="uni0394" unicode="&#x394;" horiz-adv-x="1366" 
d="M1272 0h-1292l503 1366h275zM905 229l-282 828l-283 -828h565z" />
    <glyph glyph-name="uni0394" unicode="&#x2206;" horiz-adv-x="1366" 
d="M1272 0h-1292l503 1366h275zM905 229l-282 828l-283 -828h565z" />
    <glyph glyph-name="uni03A9" unicode="&#x3a9;" horiz-adv-x="1366" 
d="M1296 0h-551v201q150 86 218.5 214t68.5 306q0 82 -23 160.5t-66 144t-113.5 105.5t-157.5 40q-70 0 -130 -26t-102 -70.5t-71.5 -102.5t-43.5 -121.5t-14 -129.5q0 -178 68.5 -306t218.5 -214v-201h-551v227h289q-151 91 -220 217.5t-69 305.5q0 180 78 328t221.5 234.5
t325.5 86.5q136 0 253.5 -50.5t198 -138t126.5 -206.5t46 -254q0 -179 -68.5 -305.5t-219.5 -217.5h288v-227z" />
    <glyph glyph-name="uni03A9" unicode="&#x2126;" horiz-adv-x="1366" 
d="M1296 0h-551v201q150 86 218.5 214t68.5 306q0 82 -23 160.5t-66 144t-113.5 105.5t-157.5 40q-70 0 -130 -26t-102 -70.5t-71.5 -102.5t-43.5 -121.5t-14 -129.5q0 -178 68.5 -306t218.5 -214v-201h-551v227h289q-151 91 -220 217.5t-69 305.5q0 180 78 328t221.5 234.5
t325.5 86.5q136 0 253.5 -50.5t198 -138t126.5 -206.5t46 -254q0 -179 -68.5 -305.5t-219.5 -217.5h288v-227z" />
    <glyph glyph-name="pi" unicode="&#x3c0;" horiz-adv-x="1349" 
d="M1274 686h-154v-686h-256v686h-377v-686h-256v686h-155v229h1198v-229z" />
    <glyph glyph-name="afii10023" unicode="&#x401;" horiz-adv-x="716" 
d="M750 1366l-31 -254h-268l-37 -295h237l-33 -258h-235l-39 -307h272l-30 -252h-539l168 1366h535zM805 1604q0 -58 -44 -101t-102 -43q-46 0 -77 33t-31 80q0 59 42 102t99 43q49 0 81 -33t32 -81zM467 1604q0 -57 -43 -100.5t-100 -43.5q-49 0 -80 32.5t-31 80.5
q0 59 42 102t99 43q47 0 80 -33.5t33 -80.5z" />
    <glyph glyph-name="afii10051" unicode="&#x402;" horiz-adv-x="1089" 
d="M170 0l137 1116h-209l31 250h725l-31 -250h-250l-36 -307q61 25 141 25q153 0 246 -91q104 -102 104 -297q0 -29 -3 -61.5t-12.5 -88.5t-36 -112.5t-65.5 -99.5q-97 -107 -258 -107q-90 0 -164 46l89 229q25 -25 61 -25q46 0 74 31q45 48 45 158q0 86 -39 129
q-35 39 -105 39q-56 0 -108 -27l-70 -557h-266z" />
    <glyph glyph-name="afii10052" unicode="&#x403;" horiz-adv-x="702" 
d="M752 1366l-31 -252h-270l-138 -1114h-266l168 1366h537zM403 1530l193 262l166 -102l-234 -234z" />
    <glyph glyph-name="afii10053" unicode="&#x404;" horiz-adv-x="856" 
d="M752 317l-39 -282q-95 -49 -207 -49q-154 0 -262 112q-68 71 -109 183.5t-41 253.5q0 78 12 163.5t39.5 185.5t82 197t130.5 168q76 72 156 101.5t188 29.5q106 0 195 -39l-39 -284q-63 65 -149 65q-90 0 -166 -73q-41 -41 -74 -105t-47 -127h354l-28 -242h-375
q0 -67 13.5 -136t39.5 -109q57 -84 145 -84q104 0 181 71z" />
    <glyph glyph-name="afii10054" unicode="&#x405;" horiz-adv-x="788" 
d="M766 1321l-33 -264q-92 88 -182 88q-67 0 -109.5 -44t-42.5 -112q0 -40 18.5 -75.5t48 -63.5t65.5 -56.5t72 -61t65.5 -69.5t48 -88.5t18.5 -111.5q0 -128 -52.5 -238t-154 -179t-231.5 -69q-131 0 -225 70l32 258q98 -74 187 -74q78 0 128 48.5t50 126.5q0 33 -6 47
q-13 34 -64 75q-33 30 -65 52q-69 52 -109 95t-66 106t-26 143q0 118 48 222.5t142.5 172t215.5 67.5q117 0 227 -65z" />
    <glyph glyph-name="afii10055" unicode="&#x406;" horiz-adv-x="475" 
d="M481 1366l-168 -1366h-266l168 1366h266z" />
    <glyph glyph-name="afii10056" unicode="&#x407;" horiz-adv-x="475" 
d="M481 1366l-168 -1366h-266l168 1366h266zM588 1632q0 -61 -32.5 -105t-74.5 -44q-35 0 -57.5 34.5t-22.5 84.5q0 60 32 105.5t73 45.5q35 0 58.5 -35t23.5 -86zM340 1632q0 -60 -31.5 -104.5t-72.5 -44.5q-36 0 -59 33.5t-23 85.5q0 60 31 105.5t73 45.5q35 0 58.5 -35
t23.5 -86z" />
    <glyph glyph-name="afii10057" unicode="&#x408;" horiz-adv-x="624" 
d="M631 1366l-117 -946q-20 -160 -57 -238q-44 -95 -130 -150t-192 -55q-108 0 -190 43l32 271q56 -76 132 -76q33 0 57.5 14t38 31.5t23.5 50t13 53t7 56.5l117 946h266z" />
    <glyph glyph-name="afii10058" unicode="&#x409;" horiz-adv-x="1415" 
d="M1012 1366l-66 -535h2q206 0 314 -108q102 -98 102 -266q0 -97 -31.5 -183t-87.5 -145q-126 -129 -383 -129h-280l137 1110h-193l-71 -567q-46 -365 -166 -482q-81 -79 -228 -79q-63 0 -122 24l34 277q31 -31 68 -31q47 0 76 29q55 55 80 247l102 838h713zM918 598
l-46 -365h9q99 0 149 41q68 54 68 164q0 76 -43 117q-45 43 -137 43z" />
    <glyph glyph-name="afii10059" unicode="&#x40a;" horiz-adv-x="1417" 
d="M752 1366h262l-66 -535h2q206 0 314 -108q102 -98 102 -266q0 -97 -31.5 -183t-87.5 -145q-126 -129 -383 -129h-280l73 598h-268l-76 -598h-266l168 1366h266l-65 -535h270zM920 598l-46 -365h9q99 0 149 41q68 54 68 164q0 76 -43 117q-45 43 -137 43z" />
    <glyph glyph-name="afii10060" unicode="&#x40b;" horiz-adv-x="1097" 
d="M170 0l137 1116h-209l31 250h725l-31 -250h-250l-38 -307q76 22 167 22q173 0 252 -81q72 -72 72 -199q0 -39 -14 -156l-47 -395h-267l43 348q11 99 11 113q0 58 -37 88q-33 26 -99 26q-62 0 -112 -18l-68 -557h-266z" />
    <glyph glyph-name="afii10061" unicode="&#x40c;" horiz-adv-x="911" 
d="M977 1366l-334 -637l191 -729h-273l-162 694l-86 -694h-266l168 1366h266l-75 -610l301 610h270zM485 1530l193 262l166 -102l-234 -234z" />
    <glyph glyph-name="afii10062" unicode="&#x40e;" horiz-adv-x="905" 
d="M123 1366h283l67 -338q4 -19 11.5 -58t11.5 -60.5t9 -61t9 -82.5q40 132 84 254l127 346h291l-582 -1366h-270l196 471zM723 1745l211 -59q-21 -61 -59 -109.5t-82 -75.5q-84 -51 -215 -51q-142 0 -222 59q-87 63 -114 179l211 57q11 -50 41 -80q36 -33 92 -33t88 27
q34 26 49 86z" />
    <glyph glyph-name="afii10145" unicode="&#x40f;" horiz-adv-x="1011" 
d="M215 1366h266l-137 -1110h268l138 1110h266l-168 -1366h-277l-34 -266h-246l35 266h-279z" />
    <glyph glyph-name="afii10017" unicode="&#x410;" horiz-adv-x="927" 
d="M864 0h-282l-23 229h-268l-76 -229h-266l481 1366h281zM358 440h187q-3 36 -9 114t-8.5 114.5t-7 114.5t-4 115t1.5 116q-25 -127 -47 -211q-14 -56 -31 -111.5t-45.5 -141.5t-36.5 -110z" />
    <glyph glyph-name="afii10018" unicode="&#x411;" horiz-adv-x="860" 
d="M215 1366h616l-30 -256h-350l-35 -279q88 3 170.5 -26t136.5 -82q102 -100 102 -279q0 -203 -112 -315q-127 -129 -381 -129h-285zM387 598l-45 -365h8q94 0 148 52q57 54 57 157q0 74 -41 115t-123 41h-4z" />
    <glyph glyph-name="afii10019" unicode="&#x412;" horiz-adv-x="878" 
d="M215 1366h285q79 0 140.5 -16.5t117.5 -71.5q92 -90 92 -250q0 -80 -20 -139t-70 -111q-58 -61 -133 -78q81 -28 125 -94q45 -69 45 -178q0 -186 -115 -301q-125 -127 -352 -127h-283zM455 1143l-43 -338q82 0 129 51q26 28 40.5 71t14.5 81q0 61 -31 96q-36 39 -110 39z
M387 596l-45 -363q79 0 137 54q58 56 58 153q0 78 -43 121q-35 35 -95 35h-12z" />
    <glyph glyph-name="afii10020" unicode="&#x413;" horiz-adv-x="702" 
d="M752 1366l-31 -252h-270l-138 -1114h-266l168 1366h537z" />
    <glyph glyph-name="afii10021" unicode="&#x414;" horiz-adv-x="1056" 
d="M301 1366h715l-137 -1110h110l-65 -522h-246l35 266h-504l-35 -266h-246l66 522q63 16 104 57q50 49 77 136.5t42 218.5zM532 1110l-61 -487q-17 -150 -49 -228q-34 -83 -100 -139h286l107 854h-183z" />
    <glyph glyph-name="afii10022" unicode="&#x415;" horiz-adv-x="716" 
d="M750 1366l-31 -254h-268l-37 -295h237l-33 -258h-235l-39 -307h272l-30 -252h-539l168 1366h535z" />
    <glyph glyph-name="afii10024" unicode="&#x416;" horiz-adv-x="1292" 
d="M1196 0h-270l-127 686l-84 -686h-258l84 686l-289 -686h-277l340 745l-174 621h265l143 -618l76 618h258l-76 -618l295 618h264l-326 -625z" />
    <glyph glyph-name="afii10025" unicode="&#x417;" horiz-adv-x="811" 
d="M139 1036l33 275q111 75 246 75q165 0 264 -92q100 -93 100 -258q0 -140 -67 -229q-63 -82 -158 -113q71 -20 121 -73q70 -73 70 -195q0 -94 -42.5 -188.5t-105.5 -151.5q-118 -109 -307 -109q-152 0 -273 93l33 272q28 -41 86 -72q56 -30 131 -30q95 0 142 49
q23 24 36 60t13 69q0 81 -60 127q-46 33 -151 33h-23l31 245h41q99 0 152 39q61 42 61 129q0 71 -43 111q-39 39 -123 39q-70 0 -123 -33q-45 -27 -84 -72z" />
    <glyph glyph-name="afii10026" unicode="&#x418;" horiz-adv-x="1026" 
d="M47 0l168 1366h266l-75 -618q-11 -82 -50 -205l424 823h250l-168 -1366h-266l78 625q3 25 12 69t21 91t12 49l-422 -834h-250z" />
    <glyph glyph-name="afii10027" unicode="&#x419;" horiz-adv-x="1026" 
d="M47 0l168 1366h266l-75 -618q-11 -82 -50 -205l424 823h250l-168 -1366h-266l78 625q3 25 12 69t21 91t12 49l-422 -834h-250zM786 1745l211 -59q-21 -61 -59 -109.5t-82 -75.5q-84 -51 -215 -51q-141 0 -221 59q-40 29 -71 76t-44 103l211 57q11 -50 41 -80
q36 -33 92 -33q57 0 88 27q34 26 49 86z" />
    <glyph glyph-name="afii10028" unicode="&#x41a;" horiz-adv-x="911" 
d="M977 1366l-334 -637l191 -729h-273l-162 694l-86 -694h-266l168 1366h266l-75 -610l301 610h270z" />
    <glyph glyph-name="afii10029" unicode="&#x41b;" horiz-adv-x="1011" 
d="M299 1366h717l-168 -1366h-266l137 1110h-193l-71 -567q-46 -365 -166 -482q-81 -79 -228 -79q-63 0 -122 24l34 277q31 -31 68 -31q47 0 76 29q55 55 80 247z" />
    <glyph glyph-name="afii10030" unicode="&#x41c;" horiz-adv-x="1302" 
d="M1229 1366l-27 -1366h-272l53 983q-21 -124 -78 -315l-200 -668h-205q-4 56 -17.5 211.5t-21 264.5t-12.5 212q-1 25 -5 96t-4 109q0 28 4 90l-161 -983h-287l287 1366h350l33 -807l206 807h357z" />
    <glyph glyph-name="afii10031" unicode="&#x41d;" horiz-adv-x="1011" 
d="M1016 1366l-166 -1366h-266l73 604h-268l-76 -604h-266l168 1366h266l-61 -506h268l62 506h266z" />
    <glyph glyph-name="afii10032" unicode="&#x41e;" horiz-adv-x="1093" 
d="M1059 889q0 -276 -72 -481q-30 -87 -76.5 -162t-108.5 -136.5t-144.5 -97t-174.5 -35.5q-98 0 -185.5 53.5t-137.5 139.5q-72 122 -72 324q0 207 45 372q26 102 70.5 191t108.5 165t155 120t197 44q80 0 146 -28.5t111.5 -76.5t77 -112.5t46 -135t14.5 -144.5zM774 874
q0 41 -6 81.5t-20 84.5t-45 71.5t-74 27.5q-44 0 -83 -31t-64.5 -76.5t-46 -104t-30.5 -105.5t-16 -89q-16 -101 -16 -231q0 -40 6 -80.5t20.5 -84.5t45 -71.5t73.5 -27.5q45 0 84 31t64.5 76t45.5 103.5t30 105t16 89.5q16 101 16 231z" />
    <glyph glyph-name="afii10033" unicode="&#x41f;" horiz-adv-x="1001" 
d="M1006 1366l-166 -1366h-267l136 1110h-258l-138 -1110h-266l168 1366h791z" />
    <glyph glyph-name="afii10034" unicode="&#x420;" horiz-adv-x="876" 
d="M215 1366h324q53 0 79.5 -1.5t65.5 -12t74 -31.5q74 -45 108.5 -125.5t34.5 -175.5q0 -148 -68 -257.5t-185.5 -161t-264.5 -40.5l-70 -561h-266zM410 788h16q108 0 159.5 52.5t51.5 160.5q0 76 -30.5 111t-104.5 35h-47z" />
    <glyph glyph-name="afii10035" unicode="&#x421;" horiz-adv-x="856" 
d="M752 317l-39 -282q-96 -49 -207 -49q-168 0 -273 108q-66 67 -102.5 176.5t-36.5 245.5q0 127 26.5 256.5t88 257t149.5 209.5q147 141 367 141q93 0 172 -39l-39 -284q-63 65 -149 65q-88 0 -164 -73q-76 -76 -120 -227.5t-44 -284.5q0 -146 59 -224q52 -67 138 -67
q98 0 174 71z" />
    <glyph glyph-name="afii10036" unicode="&#x422;" horiz-adv-x="684" 
d="M795 1366l-31 -250h-209l-137 -1116h-266l137 1116h-209l31 250h684z" />
    <glyph glyph-name="afii10037" unicode="&#x423;" horiz-adv-x="905" 
d="M123 1366h283l67 -338q4 -19 11.5 -58t11.5 -60.5t9 -61t9 -82.5q40 132 84 254l127 346h291l-582 -1366h-270l196 471z" />
    <glyph glyph-name="afii10038" unicode="&#x424;" horiz-adv-x="1249" 
d="M430 0l23 176q-149 20 -246 121q-119 123 -119 346q0 35 2.5 70.5t14 96t30.5 114t57 114t89 105.5q127 114 305 123l18 159h266l-18 -159q85 -11 153 -51.5t111 -94.5q98 -121 98 -327q0 -136 -38.5 -261t-116.5 -206q-60 -62 -150 -102.5t-190 -47.5l-23 -176h-266z
M801 1024l-74 -606q86 8 145 67q45 49 68 141.5t23 172.5q0 114 -54 172q-41 44 -108 53zM502 418l73 606q-77 -5 -131 -57q-53 -52 -77.5 -141.5t-24.5 -178.5q0 -117 57 -178q39 -42 103 -51z" />
    <glyph glyph-name="afii10039" unicode="&#x425;" horiz-adv-x="892" 
d="M981 1366l-369 -661l224 -705h-310q-5 17 -26.5 95t-32.5 120.5t-22 104.5t-11 102q-13 -35 -29 -73.5t-28.5 -68t-33.5 -73.5t-32 -66.5t-35.5 -72.5t-33.5 -68h-299l370 705l-202 661h299q7 -24 28 -94t31.5 -108.5t20.5 -96t10 -102.5q15 50 41.5 109t42.5 90.5
t59 109t51 92.5h287z" />
    <glyph glyph-name="afii10040" unicode="&#x426;" horiz-adv-x="1036" 
d="M215 1366h266l-137 -1110h256l137 1110h267l-138 -1110h142l-70 -522h-246l39 266h-684z" />
    <glyph glyph-name="afii10041" unicode="&#x427;" horiz-adv-x="958" 
d="M528 0l74 598q-74 -23 -151 -23q-168 0 -256 84q-72 70 -72 189q0 57 12 151l45 367h266l-40 -338q-9 -65 -9 -86q0 -56 33 -84q34 -27 94 -27q55 0 109 21l63 514h267l-168 -1366h-267z" />
    <glyph glyph-name="afii10042" unicode="&#x428;" horiz-adv-x="1480" 
d="M215 1366h266l-137 -1110h236l137 1110h266l-137 -1110h235l138 1110h266l-168 -1366h-1270z" />
    <glyph glyph-name="afii10043" unicode="&#x429;" horiz-adv-x="1529" 
d="M215 1366h266l-137 -1110h236l137 1110h266l-137 -1110h235l138 1110h266l-137 -1110h153l-65 -522h-246l35 266h-1178z" />
    <glyph glyph-name="afii10044" unicode="&#x42a;" horiz-adv-x="1007" 
d="M160 0l137 1110h-174l31 256h440l-66 -535h2q206 0 314 -108q102 -98 102 -266q0 -97 -31.5 -183t-87.5 -145q-126 -129 -383 -129h-284zM500 598l-45 -365h8q99 0 149 41q68 54 68 164q0 76 -43 117q-45 43 -137 43z" />
    <glyph glyph-name="afii10045" unicode="&#x42b;" horiz-adv-x="1282" 
d="M1118 0h-266l168 1366h266zM215 1366h266l-65 -535h2q201 0 309 -108q102 -102 102 -270q0 -96 -30.5 -181t-87.5 -143q-126 -129 -383 -129h-281zM387 598l-45 -365h8q93 0 146 41q67 53 67 164q0 76 -43 117q-45 43 -133 43z" />
    <glyph glyph-name="afii10046" unicode="&#x42c;" horiz-adv-x="894" 
d="M215 1366h266l-65 -535h2q205 0 313 -108q103 -99 103 -266q0 -97 -31.5 -183t-87.5 -145q-126 -129 -383 -129h-285zM387 598l-45 -365h8q100 0 150 41q67 53 67 164q0 76 -43 117q-45 43 -137 43z" />
    <glyph glyph-name="afii10047" unicode="&#x42d;" horiz-adv-x="886" 
d="M51 41l39 283q65 -78 158 -78q87 0 153 59q47 41 83.5 117.5t47.5 152.5h-325l35 242h317q4 36 4 55q0 134 -65 199q-51 51 -129 51q-95 0 -174 -59l38 278q100 39 205 39q168 0 273 -108q141 -145 141 -447q0 -74 -8.5 -152t-30.5 -178t-70.5 -196t-117.5 -166
q-84 -84 -175.5 -115.5t-207.5 -31.5q-61 0 -104.5 11.5t-86.5 43.5z" />
    <glyph glyph-name="afii10048" unicode="&#x42e;" horiz-adv-x="1513" 
d="M416 831h147q15 114 66.5 228.5t126.5 191.5q129 135 317 135q159 0 260 -96q146 -139 146 -428q0 -134 -23 -266.5t-81 -266.5t-144 -218q-137 -134 -328 -134q-176 0 -272 123q-65 83 -87.5 216.5t-15.5 258.5h-143l-72 -575h-266l168 1366h266zM1049 1139
q-54 0 -101 -47q-70 -70 -112 -258q-35 -152 -35 -322q0 -67 12.5 -133.5t40.5 -99.5q34 -41 84 -41q57 0 102 43q71 67 112.5 240t41.5 335q0 180 -61 246q-34 37 -84 37z" />
    <glyph glyph-name="afii10049" unicode="&#x42f;" horiz-adv-x="960" 
d="M10 0l326 594q-81 37 -127 102q-59 83 -59 211q0 214 116 334q69 72 167 98.5t245 26.5h287l-168 -1366h-267l70 565l-283 -565h-307zM672 1149h-25q-109 0 -162 -51q-59 -56 -59 -162q0 -85 49 -129q47 -41 131 -41h19z" />
    <glyph glyph-name="afii10065" unicode="&#x430;" horiz-adv-x="798" 
d="M772 915l-110 -915h-254l12 104q-79 -122 -180 -122q-59 0 -100.5 34t-60.5 90t-26.5 108t-7.5 108q0 123 23 235q12 61 32.5 120t54 120t85.5 98t114 37q112 0 152 -129l14 112h252zM487 565q0 137 -59 137q-36 0 -62.5 -42t-39.5 -103.5t-19 -112.5t-6 -86
q0 -147 66 -147q35 0 60.5 43.5t37.5 107.5t17 115t5 88z" />
    <glyph glyph-name="afii10066" unicode="&#x431;" horiz-adv-x="808" 
d="M637 1126l-66 -24q-114 -40 -170 -96q-78 -81 -96 -209q30 51 76 90q58 45 133 45q94 0 158 -64q86 -86 86 -278q0 -140 -37 -278t-115 -222q-101 -108 -256 -108q-119 0 -192 73q-97 97 -97 326q0 191 50 434q15 74 29 125.5t49 123t83 124.5q67 70 166 106l29 11
q20 7 46 16t38 13.5t27.5 10t23.5 9.5t15.5 9t13.5 11q23 23 26 60h203q-4 -116 -55 -191q-50 -76 -168 -117zM440 702q-23 0 -43 -20q-45 -45 -61 -143q-21 -103 -21 -195q0 -88 31 -119q14 -14 33 -14q23 0 41 18q38 38 59 142q21 100 21 190q0 100 -27 127q-12 14 -33 14
z" />
    <glyph glyph-name="afii10067" unicode="&#x432;" horiz-adv-x="743" 
d="M135 915h293q142 0 215 -63q72 -64 72 -172q0 -96 -62 -162q-37 -39 -90 -51q41 -17 72 -43q61 -50 61 -145q0 -50 -20.5 -103t-59.5 -92q-37 -37 -83 -57t-79.5 -23.5t-86.5 -3.5h-344zM344 545q65 0 100 28q37 29 37 80q0 43 -28 68q-23 20 -86 20zM297 174
q75 0 111 33q36 32 36 90q0 42 -30 68q-30 24 -90 24z" />
    <glyph glyph-name="afii10068" unicode="&#x433;" horiz-adv-x="577" 
d="M580 702h-218l-86 -702h-253l112 915h471z" />
    <glyph glyph-name="afii10069" unicode="&#x434;" horiz-adv-x="858" 
d="M213 915h598l-86 -702h92l-55 -426h-209l29 213h-416l-29 -213h-209l56 426q57 16 92 51q64 60 84 223zM479 213l60 489h-127l-29 -233q-14 -117 -45 -172q-24 -46 -68 -84h209z" />
    <glyph glyph-name="afii10070" unicode="&#x435;" horiz-adv-x="751" 
d="M455 315h213q-8 -69 -40 -140t-81 -116q-83 -77 -211 -77q-125 0 -199 77q-94 102 -94 283q0 132 44.5 269.5t133.5 224.5q96 96 228 96q100 0 169 -66q91 -89 91 -274q0 -68 -19 -180h-399q-12 -59 -12 -117q0 -72 24 -100q21 -21 53 -21q47 0 72 45q19 37 27 96z
M311 569h183q4 32 4 49q0 49 -17 82q-19 37 -57 37t-62 -28q-20 -21 -33.5 -63.5t-17.5 -76.5z" />
    <glyph glyph-name="afii10072" unicode="&#x436;" horiz-adv-x="1107" 
d="M1022 0h-266l-88 422l-54 -422h-239l53 422l-195 -422h-266l258 492l-141 423h256l96 -421l51 421h240l-51 -421l194 421h263l-240 -426z" />
    <glyph glyph-name="afii10073" unicode="&#x437;" horiz-adv-x="696" 
d="M502 475q53 -17 86 -53q47 -52 47 -135q0 -125 -88 -213q-92 -92 -248 -92q-105 0 -188 38q-69 32 -121 78l131 187q31 -35 59 -52q36 -22 84 -22q50 0 78 25q27 23 27 59q0 38 -33 57q-33 17 -92 17h-51l24 192h45q53 0 92 17q41 20 41 63q0 37 -26 57q-27 19 -70 19
q-42 0 -76 -19q-38 -20 -65 -51l-82 195q121 90 280 90q152 0 234 -82q65 -65 65 -162q0 -93 -51 -151q-43 -48 -102 -62z" />
    <glyph glyph-name="afii10074" unicode="&#x438;" horiz-adv-x="827" 
d="M135 915h242l-37 -305q-10 -112 -59 -260q32 62 54.5 106.5t30.5 61t13 25.5l194 372h228l-113 -915h-242l37 299q19 147 54 274q-41 -111 -103 -227l-184 -346h-227z" />
    <glyph glyph-name="afii10075" unicode="&#x439;" horiz-adv-x="827" 
d="M135 915h242l-37 -305q-10 -112 -59 -260q32 62 54.5 106.5t30.5 61t13 25.5l194 372h228l-113 -915h-242l37 299q19 147 54 274q-41 -111 -103 -227l-184 -346h-227zM598 1315l180 -60q-30 -99 -106 -155q-75 -56 -191 -56q-119 0 -192 52q-83 62 -105 159l178 60
q7 -51 39 -80q27 -27 80 -27q39 0 74 27q33 30 43 80z" />
    <glyph glyph-name="afii10076" unicode="&#x43a;" horiz-adv-x="782" 
d="M698 0h-266l-104 418l-52 -418h-253l112 915h254l-51 -417l186 417h275l-254 -454z" />
    <glyph glyph-name="afii10077" unicode="&#x43b;" horiz-adv-x="845" 
d="M819 915l-112 -915h-254l86 702h-127l-37 -305q-15 -125 -42.5 -211t-78.5 -135q-71 -69 -201 -69q-66 0 -114 18l28 227q18 -18 53 -18q42 0 64 20q27 24 39.5 71t21.5 126l60 489h614z" />
    <glyph glyph-name="afii10078" unicode="&#x43c;" horiz-adv-x="1056" 
d="M569 0h-178l-29 317q-12 126 -12 273l-112 -590h-250l223 915h272l37 -571l180 571h258l13 -915h-248l35 590q-19 -97 -66 -236z" />
    <glyph glyph-name="afii10079" unicode="&#x43d;" horiz-adv-x="796" 
d="M389 915l-41 -321h127l41 321h254l-113 -915h-254l46 381h-127l-46 -381h-253l112 915h254z" />
    <glyph glyph-name="afii10080" unicode="&#x43e;" horiz-adv-x="790" 
d="M743 592q0 -82 -11.5 -162t-40.5 -163t-73 -144.5t-116.5 -101t-163.5 -39.5q-66 0 -117 21t-83.5 56t-53 85t-29 103t-8.5 115q0 97 23.5 193t70.5 182.5t128.5 140.5t185.5 54q144 0 216 -95.5t72 -244.5zM485 567q0 135 -59 135q-34 0 -60.5 -42t-39.5 -103t-19 -113
t-6 -86q0 -147 64 -147q35 0 60.5 43.5t37.5 108t17 116t5 88.5z" />
    <glyph glyph-name="afii10081" unicode="&#x43f;" horiz-adv-x="792" 
d="M135 915h631l-113 -915h-254l86 702h-123l-86 -702h-253z" />
    <glyph glyph-name="afii10082" unicode="&#x440;" horiz-adv-x="796" 
d="M387 915l-14 -112q72 129 184 129q49 0 85.5 -22.5t57 -55.5t33 -79.5t16 -86t3.5 -84.5q0 -125 -23 -237q-10 -47 -24.5 -94.5t-40.5 -101.5t-57 -94.5t-76 -67.5t-95 -27q-101 0 -149 122l-64 -526h-254l164 1337h254zM494 557q0 21 -2.5 41.5t-8.5 46t-20 41.5t-35 16
q-35 0 -61 -43.5t-38.5 -106.5t-18 -114.5t-5.5 -87.5q0 -139 64 -139q35 0 61.5 42.5t39 104t18.5 113t6 86.5z" />
    <glyph glyph-name="afii10083" unicode="&#x441;" horiz-adv-x="567" 
d="M582 907l-29 -225q-24 31 -68 31q-49 0 -86 -33t-56.5 -84t-28.5 -101t-9 -96q0 -178 115 -178q38 0 80 27l-29 -234q-74 -32 -147 -32q-75 0 -131 32t-87 87t-46 117.5t-15 133.5q0 122 38.5 245t111.5 212q102 125 262 125q62 0 125 -27z" />
    <glyph glyph-name="afii10084" unicode="&#x442;" horiz-adv-x="604" 
d="M629 702h-164l-86 -702h-254l86 702h-164l27 213h581z" />
    <glyph glyph-name="afii10085" unicode="&#x443;" horiz-adv-x="735" 
d="M797 915l-545 -1337h-246l191 440l-152 897h252l45 -333q16 -121 18 -189l183 522h254z" />
    <glyph glyph-name="afii10086" unicode="&#x444;" horiz-adv-x="1085" 
d="M307 -422l51 410q-123 17 -202 100q-109 109 -109 305q0 140 42.5 244.5t109.5 169.5q108 108 276 121l53 438h254l-53 -438q129 -24 207 -109q102 -107 102 -311q0 -135 -41.5 -241t-111.5 -171q-118 -104 -273 -108l-51 -410h-254zM678 707l-60 -496q62 10 103 51
q41 43 60.5 118t19.5 144q0 101 -43 146q-28 31 -80 37zM410 211l59 496q-65 -5 -104 -50q-40 -40 -60 -114.5t-20 -147.5q0 -84 39 -135q33 -44 86 -49z" />
    <glyph glyph-name="afii10087" unicode="&#x445;" horiz-adv-x="778" 
d="M803 915l-281 -423l205 -492h-266l-49 133q-36 101 -47 143q-12 -24 -23 -44.5t-16.5 -29t-20 -31t-18.5 -28.5l-90 -143h-260l319 492l-172 423h258l33 -84q22 -54 37 -137q31 71 69 127l62 94h260z" />
    <glyph glyph-name="afii10088" unicode="&#x446;" horiz-adv-x="821" 
d="M555 0h-532l112 915h254l-86 -702h127l86 702h254l-86 -702h111l-56 -426h-213z" />
    <glyph glyph-name="afii10089" unicode="&#x447;" horiz-adv-x="784" 
d="M391 0l47 377q-58 -21 -121 -21q-128 0 -190 62q-55 55 -55 151q0 35 8 97l31 249h249l-32 -253q0 -2 -1 -12t-1 -15q0 -33 16 -49q20 -17 57 -17q29 0 64 15l41 331h254l-113 -915h-254z" />
    <glyph glyph-name="afii10090" unicode="&#x448;" horiz-adv-x="1153" 
d="M668 213h127l86 702h245l-112 -915h-991l112 915h246l-86 -702h127l86 702h246z" />
    <glyph glyph-name="afii10091" unicode="&#x449;" horiz-adv-x="1185" 
d="M668 213h127l86 702h245l-86 -702h119l-53 -426h-213l27 213h-897l112 915h246l-86 -702h127l86 702h246z" />
    <glyph glyph-name="afii10092" unicode="&#x44a;" horiz-adv-x="841" 
d="M117 0l86 702h-146l27 213h399l-41 -335h25q150 0 229 -52q105 -72 105 -213q0 -139 -88 -223q-94 -92 -262 -92h-334zM393 180h13q66 0 102 33q35 32 35 94q0 50 -31 72q-26 20 -88 20h-4z" />
    <glyph glyph-name="afii10093" unicode="&#x44b;" horiz-adv-x="1116" 
d="M977 0h-254l113 915h254zM135 915h254l-41 -335h17q150 0 229 -52q104 -70 104 -211q0 -149 -100 -237q-91 -80 -250 -80h-325zM299 180h12q67 0 103 33q35 32 35 94q0 50 -31 72q-26 20 -88 20h-4z" />
    <glyph glyph-name="afii10094" unicode="&#x44c;" horiz-adv-x="747" 
d="M135 915h254l-41 -335h25q150 0 229 -52q105 -72 105 -213q0 -138 -89 -223q-94 -92 -262 -92h-333zM299 180h12q67 0 103 33q35 32 35 94q0 50 -31 72q-26 20 -88 20h-4z" />
    <glyph glyph-name="afii10095" unicode="&#x44d;" horiz-adv-x="661" 
d="M20 47l31 240q49 -72 131 -72q64 0 105 41q19 20 35 53.5t22 65.5h-217l23 184h212q0 78 -40 121q-35 37 -95 37q-72 0 -125 -60l29 238q77 39 158 39q143 0 225 -86q100 -103 100 -309q0 -36 -4 -77t-17 -112t-47 -142t-85 -124q-55 -58 -115.5 -80t-140.5 -22
q-107 0 -185 65z" />
    <glyph glyph-name="afii10096" unicode="&#x44e;" horiz-adv-x="1165" 
d="M346 573h111q14 72 48 141.5t79 116.5q98 101 243 101q125 0 201 -76q90 -90 90 -274q0 -135 -37 -271.5t-114 -220.5q-101 -108 -256 -108q-115 0 -187 67q-94 89 -94 311h-108l-46 -360h-253l112 915h254zM801 702q-23 0 -43 -20q-25 -25 -41 -68.5t-21 -74.5
q-20 -98 -20 -195q0 -88 31 -119q14 -14 32 -14q23 0 41 18q40 39 60 142q20 95 20 190q0 101 -26 127q-12 14 -33 14z" />
    <glyph glyph-name="afii10097" unicode="&#x44f;" horiz-adv-x="804" 
d="M0 0l215 346q-57 21 -92 72q-39 56 -39 143q0 158 92 252q57 59 139.5 80.5t202.5 21.5h260l-112 -915h-254l43 346l-181 -346h-274zM471 487l29 236h-8q-80 0 -115 -33q-37 -32 -37 -100q0 -53 37 -80q33 -23 88 -23h6z" />
    <glyph glyph-name="afii10071" unicode="&#x451;" horiz-adv-x="751" 
d="M514 1151q0 59 45 104q39 39 94 39q44 0 74 -30q35 -35 35 -82q0 -58 -41 -99q-43 -43 -103 -43q-42 0 -73 31t-31 80zM455 315h213q-8 -69 -40 -140t-81 -116q-83 -77 -211 -77q-125 0 -199 77q-94 102 -94 283q0 132 44.5 269.5t133.5 224.5q96 96 228 96
q100 0 169 -66q91 -89 91 -274q0 -68 -19 -180h-399q-12 -59 -12 -117q0 -72 24 -100q21 -21 53 -21q47 0 72 45q19 37 27 96zM311 569h183q4 32 4 49q0 49 -17 82q-19 37 -57 37t-62 -28q-20 -21 -33.5 -63.5t-17.5 -76.5zM172 1151q0 59 45 104q39 39 94 39q44 0 74 -30
q35 -35 35 -82q0 -58 -41 -99q-43 -43 -103 -43q-42 0 -73 31t-31 80z" />
    <glyph glyph-name="afii10099" unicode="&#x452;" horiz-adv-x="806" 
d="M473 1493l-33 -274h222l-21 -181h-223l-37 -307q31 51 78 94q73 66 159 66q71 0 105 -43q35 -41 35 -131q0 -59 -10 -137l-86 -699q-17 -144 -93 -223q-78 -80 -217 -80q-64 0 -129 23l29 225q25 -19 61 -19q38 0 64 23q32 32 39 102l71 588q0 4 1 15t1 18q0 48 -12 65
q-13 17 -37 17t-45 -17q-32 -30 -43 -120l-61 -498h-254l127 1038h-113l21 181h112l35 274h254z" />
    <glyph glyph-name="afii10100" unicode="&#x453;" horiz-adv-x="577" 
d="M580 702h-218l-86 -702h-253l112 915h471zM668 1309l-260 -250l-115 74l205 262z" />
    <glyph glyph-name="afii10101" unicode="&#x454;" horiz-adv-x="669" 
d="M573 266l-30 -241q-74 -43 -181 -43q-142 0 -221 81q-94 98 -94 291q0 130 37.5 261.5t118.5 213.5q105 105 270 105q92 0 176 -47l-28 -236q-38 62 -129 62q-66 0 -109 -43q-41 -41 -53 -109h209l-25 -188h-209q-3 -65 27 -111q35 -51 114 -51q74 0 127 55z" />
    <glyph glyph-name="afii10102" unicode="&#x455;" horiz-adv-x="634" 
d="M651 854l-123 -186q-54 61 -112 61q-32 0 -53 -22t-21 -54q0 -20 18 -38.5t45 -32t58 -34.5t58 -45t45 -65t18 -92q0 -148 -93 -256t-239 -108q-133 0 -258 104l135 182q60 -57 117 -57q37 0 62.5 24t25.5 62q0 26 -26 48t-62.5 42.5t-73 47.5t-62.5 75t-26 113
q0 140 98 224.5t240 84.5q127 0 229 -78z" />
    <glyph glyph-name="afii10103" unicode="&#x456;" horiz-adv-x="415" 
d="M461 1233q0 -72 -55 -126t-127 -54q-59 0 -99.5 42t-40.5 101q0 72 55.5 126t127.5 54q61 0 100 -41t39 -102zM389 915l-113 -915h-253l112 915h254z" />
    <glyph glyph-name="afii10104" unicode="&#x457;" horiz-adv-x="415" 
d="M389 915l-113 -915h-253l112 915h254zM473 1208q0 -61 -26 -105t-60 -44q-27 0 -45 34.5t-18 84.5q0 61 24.5 106t59.5 45q28 0 46.5 -35t18.5 -86zM274 1208q0 -60 -25.5 -104.5t-60.5 -44.5q-28 0 -46.5 34t-18.5 85q0 60 26 105.5t60 45.5q28 0 46.5 -35t18.5 -86z
" />
    <glyph glyph-name="afii10105" unicode="&#x458;" horiz-adv-x="411" 
d="M457 1233q0 -72 -55.5 -126t-127.5 -54q-59 0 -99 42t-40 101q0 72 55 126t127 54q61 0 100.5 -41t39.5 -102zM385 915l-164 -1337h-254l164 1337h254z" />
    <glyph glyph-name="afii10106" unicode="&#x459;" horiz-adv-x="1177" 
d="M819 915l-41 -335h25q150 0 229 -52q105 -72 105 -213q0 -139 -88 -223q-94 -92 -263 -92h-333l86 702h-127l-37 -305q-15 -125 -42.5 -211t-78.5 -135q-71 -69 -201 -69q-66 0 -114 18l28 227q18 -18 53 -18q42 0 64 20q27 24 39.5 71t21.5 126l60 489h614zM729 180h12
q67 0 103 33q35 32 35 94q0 50 -31 72q-26 20 -88 20h-4z" />
    <glyph glyph-name="afii10107" unicode="&#x45a;" horiz-adv-x="1126" 
d="M514 915h254l-41 -335h25q150 0 229 -52q104 -71 104 -213q0 -139 -88 -223q-94 -92 -262 -92h-334l50 399h-125l-50 -399h-253l112 915h254l-43 -335h127zM678 180h12q67 0 103 33q34 31 34 94q0 51 -30 72q-26 20 -88 20h-4z" />
    <glyph glyph-name="afii10108" unicode="&#x45b;" horiz-adv-x="808" 
d="M37 0l127 1038h-113l21 181h112l35 274h254l-35 -274h221l-20 -181h-221l-37 -307q48 75 103.5 117.5t131.5 42.5q72 0 106 -46.5t34 -121.5q0 -25 -15 -152l-69 -571h-254l61 481q6 47 6 94q0 60 -47 60q-25 0 -42.5 -14.5t-26.5 -43.5t-12.5 -47t-6.5 -49l-59 -481
h-254z" />
    <glyph glyph-name="afii10109" unicode="&#x45c;" horiz-adv-x="782" 
d="M698 0h-266l-104 418l-52 -418h-253l112 915h254l-51 -417l186 417h275l-254 -454zM752 1309l-260 -250l-115 74l205 262z" />
    <glyph glyph-name="afii10110" unicode="&#x45e;" horiz-adv-x="735" 
d="M797 915l-545 -1337h-246l191 440l-152 897h252l45 -333q16 -121 18 -189l183 522h254zM559 1315l180 -60q-30 -99 -106 -155q-75 -56 -191 -56q-119 0 -192 52q-83 62 -105 159l179 60q7 -52 38 -80q27 -27 80 -27q40 0 74 27q33 30 43 80z" />
    <glyph glyph-name="afii10193" unicode="&#x45f;" horiz-adv-x="796" 
d="M233 0h-210l112 915h254l-86 -702h127l86 702h254l-113 -915h-211l-26 -213h-213z" />
    <glyph glyph-name="afii10146" unicode="&#x462;" horiz-adv-x="962" 
d="M115 0l125 1020h-158l29 233h157l23 172h266l-22 -172h233l-29 -233h-233l-23 -189h13q195 0 303 -108q102 -98 102 -266q0 -97 -31.5 -183t-87.5 -145q-126 -129 -383 -129h-284zM455 598l-45 -365h8q99 0 149 41q68 54 68 164q0 76 -43 117q-45 43 -137 43z" />
    <glyph glyph-name="afii10194" unicode="&#x463;" horiz-adv-x="782" 
d="M57 0l86 702h-102l27 213h102l55 451h256l-55 -451h184l-26 -213h-185l-16 -122h25q150 0 229 -52q104 -71 104 -213q0 -139 -88 -223q-94 -92 -262 -92h-334zM334 180h12q67 0 103 33q34 31 34 94q0 51 -30 72q-26 20 -93 20z" />
    <glyph glyph-name="afii10147" unicode="&#x472;" horiz-adv-x="1093" 
d="M664 1386q149 0 249 -96q146 -137 146 -424q0 -138 -22.5 -269.5t-81.5 -265t-148 -218.5q-141 -136 -320 -136q-158 0 -264 111q-135 145 -135 412q0 221 60.5 420.5t185.5 324.5q141 141 330 141zM406 831h368q3 207 -61 271q-32 37 -86 37q-52 0 -99 -47
q-38 -38 -73 -114t-49 -147zM745 575h-370q-13 -197 49 -284q39 -53 94 -53q58 0 105 47q42 40 76.5 124t45.5 166z" />
    <glyph glyph-name="afii10195" unicode="&#x473;" horiz-adv-x="790" 
d="M455 932q122 0 198 -76q90 -90 90 -274q0 -135 -37 -271.5t-114 -220.5q-100 -108 -260 -108q-126 0 -199 81q-86 96 -86 291q0 133 40.5 262.5t123.5 212.5q103 103 244 103zM326 561h159q0 66 -5 98t-21 46q-12 12 -33 12q-22 0 -41 -19q-43 -41 -59 -137zM467 373
h-166q0 -129 31 -160q14 -14 33 -14q25 0 45 20q39 41 57 154z" />
    <glyph glyph-name="afii10148" unicode="&#x474;" horiz-adv-x="978" 
d="M1090 1366l-541 -1366h-217l-221 1366h286l78 -528q21 -147 21 -256v-115q3 11 35.5 142.5t56.5 197.5q2 5 6 15.5t6 15.5l213 528h277z" />
    <glyph glyph-name="afii10196" unicode="&#x475;" horiz-adv-x="739" 
d="M801 915l-373 -915h-233l-146 915h248q6 -52 20 -161.5t23.5 -194t15.5 -162.5q34 103 104 295.5t81 222.5h260z" />
    <glyph glyph-name="afii10050" unicode="&#x490;" horiz-adv-x="784" 
d="M215 1366h365l30 256h246l-61 -508h-344l-138 -1114h-266z" />
    <glyph glyph-name="afii10098" unicode="&#x491;" horiz-adv-x="681" 
d="M276 0h-253l112 915h338l25 205h213l-52 -418h-297z" />
    <glyph glyph-name="uni0492" unicode="&#x492;" horiz-adv-x="739" 
d="M758 1114h-271l-36 -291h247l-30 -260h-248l-70 -563h-266l70 563h-134l31 260h133l68 543h536z" />
    <glyph glyph-name="uni0493" unicode="&#x493;" horiz-adv-x="630" 
d="M633 702h-217l-21 -170h172l-26 -213h-172l-39 -319h-254l39 319h-105l27 213h104l47 383h471z" />
    <glyph glyph-name="uni0494" unicode="&#x494;" horiz-adv-x="966" 
d="M766 1114h-315l-37 -305q61 25 141 25q153 0 246 -91q104 -102 104 -297q0 -29 -3 -61.5t-12.5 -88.5t-36 -112.5t-65.5 -99.5q-97 -107 -258 -107q-89 0 -163 46l88 229q25 -25 61 -25q46 0 74 31q45 48 45 158q0 86 -39 129q-35 39 -104 39q-57 0 -109 -27l-70 -557
h-266l168 1366h582z" />
    <glyph glyph-name="uni0495" unicode="&#x495;" horiz-adv-x="755" 
d="M600 702h-238l-20 -170q5 0 14.5 1.5t14.5 1.5q72 -1 137 -27t104 -66q93 -96 93 -295q0 -40 -5 -84.5t-19.5 -113t-50.5 -136t-89 -118.5q-121 -117 -297 -117h-21l27 221q41 0 80 27q58 42 86 133q26 87 26 186q0 100 -36 140q-30 34 -91 34l-39 -319h-253l112 915h492
z" />
    <glyph glyph-name="uni0496" unicode="&#x496;" horiz-adv-x="1304" 
d="M406 1366l143 -618l76 618h258l-76 -618l295 618h264l-326 -625l101 -485h141l-63 -522h-246l33 266h-80l-127 686l-84 -686h-258l84 686l-289 -686h-277l340 745l-174 621h265z" />
    <glyph glyph-name="uni0497" unicode="&#x497;" horiz-adv-x="1107" 
d="M84 915h256l96 -421l51 421h240l-51 -421l194 421h263l-240 -426l74 -276h110l-51 -426h-213l25 213h-82l-88 422l-54 -422h-239l53 422l-195 -422h-266l258 492z" />
    <glyph glyph-name="uni0498" unicode="&#x498;" horiz-adv-x="811" 
d="M139 1036l33 275q107 75 242 75q171 0 268 -92q100 -93 100 -258q0 -140 -67 -229q-63 -82 -158 -113q71 -20 121 -73q70 -78 70 -197q0 -189 -111 -313q-77 -88 -188 -111l-33 -266h-246l33 258q-103 11 -183 78l33 272q28 -41 86 -72q56 -30 131 -30q95 0 142 49
q23 24 36 60t13 69q0 81 -60 127q-46 33 -151 33h-23l31 245h41q99 0 152 39q61 42 61 129q0 71 -43 111q-39 39 -123 39q-70 0 -123 -33q-45 -27 -84 -72z" />
    <glyph glyph-name="uni0499" unicode="&#x499;" horiz-adv-x="696" 
d="M522 475q46 -20 78 -59q35 -47 35 -121q0 -128 -86 -219q-64 -67 -154 -80l-24 -209h-213l26 211q-90 18 -194 100l131 187q31 -35 59 -52q36 -22 84 -22q50 0 78 25q27 23 27 59q0 38 -33 57q-33 17 -92 17h-51l24 192h45q53 0 92 17q41 20 41 63q0 37 -26 57
q-27 19 -70 19q-42 0 -76 -19q-38 -20 -65 -51l-82 195q121 90 280 90q152 0 234 -82q65 -65 65 -162q0 -85 -43 -141q-38 -50 -90 -72z" />
    <glyph glyph-name="uni049A" unicode="&#x49a;" horiz-adv-x="919" 
d="M977 1366l-326 -631l115 -479h141l-63 -522h-246l33 266h-80l-152 694l-86 -694h-266l168 1366h266l-75 -610l301 610h270z" />
    <glyph glyph-name="uni049B" unicode="&#x49b;" horiz-adv-x="782" 
d="M135 915h254l-51 -417l186 417h275l-254 -454l84 -248h110l-53 -426h-213l27 213h-68l-104 418l-52 -418h-253z" />
    <glyph glyph-name="uni049C" unicode="&#x49c;" horiz-adv-x="1142" 
d="M385 575l-72 -575h-266l168 1366h266l-65 -535h102l39 314h156l-49 -389l274 610h270l-311 -633l152 -733h-275l-121 676l-49 -412h-155l38 311h-102z" />
    <glyph glyph-name="uni049D" unicode="&#x49d;" horiz-adv-x="974" 
d="M322 373l-46 -373h-253l112 915h254l-45 -372h66l26 227h144l-33 -268l178 413h266l-227 -440l133 -475h-272l-86 414l-33 -254h-144l25 213h-65z" />
    <glyph glyph-name="uni04A0" unicode="&#x4a0;" horiz-adv-x="1058" 
d="M1124 1366l-325 -631l190 -735h-280l-162 694l-86 -694h-266l137 1116h-234l31 250h500l-76 -610l301 610h270z" />
    <glyph glyph-name="uni04A1" unicode="&#x4a1;" horiz-adv-x="921" 
d="M838 0h-267l-104 418l-51 -418h-254l86 702h-187l27 213h440l-51 -417l187 417h274l-254 -454z" />
    <glyph glyph-name="uni04A2" unicode="&#x4a2;" horiz-adv-x="1052" 
d="M215 1366h266l-61 -506h268l62 506h266l-133 -1110h141l-63 -522h-246l33 266h-164l73 604h-268l-76 -604h-266z" />
    <glyph glyph-name="uni04A3" unicode="&#x4a3;" horiz-adv-x="821" 
d="M389 915l-41 -321h127l41 321h254l-86 -702h111l-52 -426h-213l25 213h-152l46 381h-127l-46 -381h-253l112 915h254z" />
    <glyph glyph-name="uni04A4" unicode="&#x4a4;" horiz-adv-x="1198" 
d="M1247 1366l-30 -252h-234l-137 -1114h-266l75 604h-266l-76 -604h-266l168 1366h266l-61 -506h266l62 506h499z" />
    <glyph glyph-name="uni04A5" unicode="&#x4a5;" horiz-adv-x="929" 
d="M389 915l-41 -321h127l41 321h442l-26 -213h-189l-86 -702h-254l46 381h-127l-46 -381h-253l112 915h254z" />
    <glyph glyph-name="uni04AA" unicode="&#x4aa;" horiz-adv-x="860" 
d="M379 -252l57 264q-110 38 -188.5 126t-116 202t-37.5 244q0 111 30.5 225t90.5 216t140 181.5t187.5 126.5t225.5 47q70 0 133 -24l-31 -248q-46 14 -100 14q-93 0 -170 -46.5t-124.5 -121t-73 -161.5t-25.5 -175q0 -68 16.5 -131.5t48.5 -118.5t88.5 -88.5t128.5 -33.5
q51 0 109 20l-33 -258q-26 -9 -61 -16l-49 -244h-246z" />
    <glyph glyph-name="uni04AB" unicode="&#x4ab;" horiz-adv-x="567" 
d="M582 907l-29 -225q-25 31 -72 31q-52 0 -96 -47q-34 -37 -57 -108.5t-23 -158.5q0 -110 41 -151q27 -27 70 -27q46 0 84 27l-29 -234q-16 -11 -39 -14l-26 -213h-213l26 217q-82 27 -127 115q-47 89 -47 237q0 134 48 268.5t126 213.5q53 53 110 74.5t128 21.5
q72 0 125 -27z" />
    <glyph glyph-name="uni04AE" unicode="&#x4ae;" horiz-adv-x="901" 
d="M1012 1366l-408 -782l-74 -584h-266l72 584l-225 782h292l68 -313q13 -57 29 -187q29 81 78 193l137 307h297z" />
    <glyph glyph-name="uni04AF" unicode="&#x4af;" horiz-adv-x="747" 
d="M41 915h256l33 -247q25 -206 30 -283q35 118 91 264l102 266h256l-360 -835l-64 -502h-254l64 502z" />
    <glyph glyph-name="uni04B0" unicode="&#x4b0;" horiz-adv-x="905" 
d="M1016 1366l-410 -774l-4 -39h217l-28 -246h-218l-38 -307h-267l39 307h-217l29 246h217l6 39l-227 774h293l67 -313q13 -57 29 -187q29 81 78 193l137 307h297z" />
    <glyph glyph-name="uni04B1" unicode="&#x4b1;" horiz-adv-x="755" 
d="M207 121l-158 794h256l33 -247q2 -14 10 -73.5t12.5 -106t8.5 -103.5q38 129 90 264l102 266h256l-354 -794l-4 -35h200l-22 -180h-201l-41 -328h-254l39 328h-200l22 180h201z" />
    <glyph glyph-name="uni04B2" unicode="&#x4b2;" horiz-adv-x="903" 
d="M981 1366l-369 -661l140 -449h141l-64 -522h-245l32 266h-90q-5 17 -26.5 95t-32.5 120.5t-22 104.5t-11 102q-13 -35 -29 -73.5t-28.5 -68t-33.5 -73.5t-32 -66.5t-35.5 -72.5t-33.5 -68h-299l370 705l-202 661h299q7 -24 28 -94t31.5 -108.5t20.5 -96t10 -102.5
q15 50 41.5 109t42.5 90.5t59 109t51 92.5h287z" />
    <glyph glyph-name="uni04B3" unicode="&#x4b3;" horiz-adv-x="778" 
d="M803 915l-281 -423l117 -279h111l-54 -426h-213l27 213h-49l-49 133q-36 101 -47 143q-12 -24 -23 -44.5t-16.5 -29t-20 -31t-18.5 -28.5l-90 -143h-260l319 492l-172 423h258l33 -84q22 -54 37 -137q31 71 69 127l62 94h260z" />
    <glyph glyph-name="uni04B6" unicode="&#x4b6;" horiz-adv-x="995" 
d="M690 0h-162l74 598q-74 -23 -151 -23q-168 0 -256 84q-72 70 -72 189q0 57 12 151l45 367h266l-40 -338q-9 -65 -9 -86q0 -56 33 -84q34 -27 94 -27q55 0 109 21l63 514h267l-138 -1110h142l-68 -522h-246z" />
    <glyph glyph-name="uni04B7" unicode="&#x4b7;" horiz-adv-x="808" 
d="M111 915h249l-32 -253q0 -2 -1 -12t-1 -15q0 -33 16 -49q20 -17 57 -17q29 0 64 15l41 331h254l-86 -702h110l-51 -426h-213l25 213h-152l47 377q-58 -21 -121 -21q-128 0 -190 62q-55 55 -55 151q0 35 8 97z" />
    <glyph glyph-name="uni04B8" unicode="&#x4b8;" horiz-adv-x="1077" 
d="M647 0l74 602q-52 -17 -105 -20l-36 -301h-156l37 294h-10q-59 0 -120.5 16t-103.5 46q-104 77 -104 233q0 23 12 129l45 367h262l-39 -324q-10 -78 -10 -100q0 -58 31 -84q23 -20 68 -24l38 319h156l-39 -322q54 0 105 23l63 512h266l-168 -1366h-266z" />
    <glyph glyph-name="uni04B9" unicode="&#x4b9;" horiz-adv-x="882" 
d="M520 758l-24 -205q28 0 63 14l43 348h254l-113 -915h-254l46 371q-30 -12 -64 -15l-22 -186h-119l22 184q-161 0 -227 68q-53 55 -53 156q0 42 10 114l29 223h241l-28 -219q-9 -56 -9 -73q0 -35 17 -52q14 -14 45 -14l24 201h119z" />
    <glyph glyph-name="uni04BA" unicode="&#x4ba;" horiz-adv-x="974" 
d="M481 1366l-69 -557q76 22 168 22q172 0 251 -81q72 -72 72 -199q0 -39 -14 -156l-47 -395h-267l43 348q11 99 11 113q0 58 -37 88q-33 26 -98 26q-63 0 -113 -18l-68 -557h-266l168 1366h266z" />
    <glyph glyph-name="uni04BB" unicode="&#x4bb;" horiz-adv-x="794" 
d="M459 1493l-88 -721q48 75 103.5 117.5t131.5 42.5q72 0 105.5 -46.5t33.5 -121.5q0 -33 -14 -152l-74 -612h-254l66 522q6 47 6 94q0 60 -47 60q-21 0 -36.5 -10.5t-23.5 -23t-14.5 -36.5t-8 -37t-4.5 -38q-1 -6 -1 -9l-64 -522h-253l184 1493h252z" />
    <glyph glyph-name="uni04C0" unicode="&#x4c0;" horiz-adv-x="417" 
d="M442 1366l-166 -1366h-253l167 1366h252z" />
    <glyph glyph-name="uni04C1" unicode="&#x4c1;" horiz-adv-x="1292" 
d="M1196 0h-270l-127 686l-84 -686h-258l84 686l-289 -686h-277l340 745l-174 621h265l143 -618l76 618h258l-76 -618l295 618h264l-326 -625zM936 1745l211 -59q-21 -61 -59 -109.5t-82 -75.5q-84 -51 -215 -51q-142 0 -222 59q-87 63 -114 179l211 57q11 -50 41 -80
q36 -33 92 -33q57 0 88 27q34 26 49 86z" />
    <glyph glyph-name="uni04C2" unicode="&#x4c2;" horiz-adv-x="1107" 
d="M1022 0h-266l-88 422l-54 -422h-239l53 422l-195 -422h-266l258 492l-141 423h256l96 -421l51 421h240l-51 -421l194 421h263l-240 -426zM741 1315l181 -60q-30 -98 -107 -155q-75 -56 -190 -56q-120 0 -193 52q-82 61 -104 159l178 60q7 -51 39 -80q27 -27 80 -27
q39 0 73 27q33 30 43 80z" />
    <glyph glyph-name="uni04C3" unicode="&#x4c3;" horiz-adv-x="972" 
d="M977 1366l-305 -596q97 -27 159 -117q60 -91 60 -213q0 -88 -14 -198l-13 -90q-39 -303 -153 -406q-82 -74 -217 -74q-95 0 -166 45l84 230q1 -1 8.5 -6.5t13.5 -8.5t17 -6.5t22 -3.5q33 0 57 21q44 41 72 237l12 86q11 91 11 142q0 92 -41 137q-39 39 -101 39
q-44 0 -100 -27l-70 -557h-266l168 1366h266l-75 -610l301 610h270z" />
    <glyph glyph-name="uni04C4" unicode="&#x4c4;" horiz-adv-x="782" 
d="M135 915h254l-45 -372l180 372h275l-256 -434q79 -32 121 -110q38 -68 38 -189q0 -48 -5 -98.5t-19.5 -122.5t-49 -141.5t-85.5 -120.5q-121 -121 -297 -121h-25l27 221q41 0 80 27q55 37 86 133q26 88 26 199q0 89 -34 127q-30 34 -91 34l-39 -319h-253z" />
    <glyph glyph-name="uni04C7" unicode="&#x4c7;" horiz-adv-x="1011" 
d="M215 1366h266l-61 -506h268l62 506h266l-164 -1346q-20 -158 -57 -237q-44 -95 -130 -150t-192 -55q-108 0 -190 43l32 270q55 -75 131 -75q33 0 58 13.5t38 31t23 46.5t13 47t6 46l73 604h-268l-76 -604h-266z" />
    <glyph glyph-name="uni04C8" unicode="&#x4c8;" horiz-adv-x="796" 
d="M389 915l-41 -321h127l41 321h254l-127 -1034q-18 -145 -92 -223q-78 -80 -217 -80q-64 0 -129 23l28 225q25 -19 62 -19t63 23q18 17 25.5 44.5t13.5 76.5l52 430h-127l-46 -381h-253l112 915h254z" />
    <glyph glyph-name="uni04D0" unicode="&#x4d0;" horiz-adv-x="927" 
d="M864 0h-282l-23 229h-268l-76 -229h-266l481 1366h281zM358 440h187q-3 36 -9 114t-8.5 114.5t-7 114.5t-4 115t1.5 116q-25 -127 -47 -211q-14 -56 -31 -111.5t-45.5 -141.5t-36.5 -110zM713 1745l211 -59q-43 -124 -142 -185q-84 -51 -215 -51q-141 0 -221 59
q-40 29 -71 76t-44 103l211 57q11 -50 41 -80q36 -33 92 -33q57 0 89 27q34 26 49 86z" />
    <glyph glyph-name="uni04D1" unicode="&#x4d1;" horiz-adv-x="798" 
d="M772 915l-110 -915h-254l12 104q-79 -122 -180 -122q-59 0 -100.5 34t-60.5 90t-26.5 108t-7.5 108q0 123 23 235q12 61 32.5 120t54 120t85.5 98t114 37q112 0 152 -129l14 112h252zM487 565q0 137 -59 137q-36 0 -62.5 -42t-39.5 -103.5t-19 -112.5t-6 -86
q0 -147 66 -147q35 0 60.5 43.5t37.5 107.5t17 115t5 88zM631 1315l180 -60q-30 -99 -106 -155q-75 -56 -191 -56q-119 0 -192 52q-83 62 -105 159l178 60q7 -51 39 -80q27 -27 80 -27q40 0 74 27q33 30 43 80z" />
    <glyph glyph-name="uni04D2" unicode="&#x4d2;" horiz-adv-x="927" 
d="M864 0h-282l-23 229h-268l-76 -229h-266l481 1366h281zM358 440h187q-3 36 -9 114t-8.5 114.5t-7 114.5t-4 115t1.5 116q-25 -127 -47 -211q-14 -56 -31 -111.5t-45.5 -141.5t-36.5 -110zM887 1632q0 -61 -46.5 -105t-107.5 -44q-50 0 -82.5 34.5t-32.5 84.5
q0 60 45 105.5t105 45.5q51 0 85 -35t34 -86zM532 1632q0 -60 -45.5 -104.5t-105.5 -44.5q-51 0 -84 34t-33 85q0 60 45 105.5t105 45.5q51 0 84.5 -35t33.5 -86z" />
    <glyph glyph-name="uni04D3" unicode="&#x4d3;" horiz-adv-x="798" 
d="M772 915l-110 -915h-254l12 104q-79 -122 -180 -122q-59 0 -100.5 34t-60.5 90t-26.5 108t-7.5 108q0 123 23 235q12 61 32.5 120t54 120t85.5 98t114 37q112 0 152 -129l14 112h252zM487 565q0 137 -59 137q-36 0 -62.5 -42t-39.5 -103.5t-19 -112.5t-6 -86
q0 -147 66 -147q35 0 60.5 43.5t37.5 107.5t17 115t5 88zM803 1208q0 -61 -46.5 -105t-107.5 -44q-50 0 -82 34.5t-32 84.5q0 60 44.5 105.5t104.5 45.5q51 0 85 -35t34 -86zM449 1208q0 -60 -46 -104.5t-106 -44.5q-51 0 -84 34t-33 85q0 60 45 105.5t105 45.5q51 0 85 -35
t34 -86z" />
    <glyph glyph-name="uni04D4" unicode="&#x4d4;" horiz-adv-x="1193" 
d="M1124 0h-540l-21 227h-280l-68 -227h-266l473 1366h549l24 -254h-264l33 -283h266l31 -258h-264l39 -315h256zM354 442h191q-15 140 -27 289q-8 90 -8 135q0 24 1 73t1 73q-32 -171 -68 -285z" />
    <glyph glyph-name="uni04D5" unicode="&#x4d5;" horiz-adv-x="1150" 
d="M158 674l26 219q121 41 209 41q90 0 144 -28.5t88 -106.5q46 68 101.5 100.5t135.5 32.5q240 0 240 -336q0 -33 -15 -203h-411q-4 -40 -4 -63q0 -160 88 -160q43 0 67 32.5t27 78.5h207q-21 -137 -103 -218t-217 -81q-140 0 -209 112q-59 -56 -115 -84t-128 -28
q-117 0 -189.5 63.5t-72.5 179.5q0 135 85.5 229.5t219.5 94.5q83 0 131 -33q6 87 6 88q0 117 -129 117q-79 0 -182 -47zM696 551h187q4 40 4 61q0 133 -74 133q-29 0 -51.5 -20.5t-35.5 -54.5t-19.5 -62t-10.5 -57zM449 281q0 35 -24.5 59.5t-59.5 24.5q-43 0 -76 -33
t-33 -76q0 -35 24.5 -59.5t59.5 -24.5q43 0 76 33t33 76z" />
    <glyph glyph-name="uni04D6" unicode="&#x4d6;" horiz-adv-x="716" 
d="M750 1366l-31 -254h-268l-37 -295h237l-33 -258h-235l-39 -307h272l-30 -252h-539l168 1366h535zM651 1745l211 -59q-21 -61 -59 -109.5t-82 -75.5q-84 -51 -215 -51q-141 0 -221 59q-40 29 -71 76t-44 103l211 57q11 -50 41 -80q36 -33 92 -33t88 27q34 26 49 86z" />
    <glyph glyph-name="uni04D7" unicode="&#x4d7;" horiz-adv-x="751" 
d="M455 315h213q-8 -69 -40 -140t-81 -116q-83 -77 -211 -77q-125 0 -199 77q-94 102 -94 283q0 132 44.5 269.5t133.5 224.5q96 96 228 96q100 0 169 -66q91 -89 91 -274q0 -68 -19 -180h-399q-12 -59 -12 -117q0 -72 24 -100q21 -21 53 -21q47 0 72 45q19 37 27 96z
M311 569h183q4 32 4 49q0 49 -17 82q-19 37 -57 37t-62 -28q-20 -21 -33.5 -63.5t-17.5 -76.5zM600 1315l180 -60q-30 -99 -106 -155q-75 -56 -191 -56q-119 0 -192 52q-83 62 -105 159l179 60q7 -52 38 -80q27 -27 80 -27q39 0 74 27q33 30 43 80z" />
    <glyph glyph-name="uni04D8" unicode="&#x4d8;" horiz-adv-x="1071" 
d="M115 760h630q10 101 -1.5 201t-57.5 147q-39 41 -96 41q-58 0 -96 -35q-41 -36 -80 -153l-250 102q52 126 141 209q126 114 313 114q168 0 273 -96q145 -134 145 -424q0 -82 -10 -169.5t-34.5 -196t-78 -211.5t-129.5 -176q-142 -136 -335 -136q-73 0 -126 21t-102 70
q-133 135 -133 397q0 121 27 295zM350 518q-14 -51 -5 -135.5t48 -124.5q35 -35 82 -35q73 0 121 51q41 41 71 112.5t38 131.5h-355z" />
    <glyph glyph-name="afii10846" unicode="&#x4d9;" horiz-adv-x="763" 
d="M295 631l-205 41q29 107 96 174q84 86 228 86q132 0 211 -74q92 -88 92 -278q0 -139 -41 -279t-125 -227q-48 -50 -103.5 -71t-130.5 -21q-117 0 -186 71q-84 86 -84 269q0 101 23 202h405q6 47 6 88q0 79 -28 107q-20 20 -58 20q-37 0 -63 -26q-27 -30 -37 -82zM453 367
h-185q-8 -35 -8 -74q0 -69 29 -98q19 -19 49 -19q29 0 53 19q48 39 62 172z" />
    <glyph glyph-name="uni04DA" unicode="&#x4da;" horiz-adv-x="1071" 
d="M115 760h630q10 101 -1.5 201t-57.5 147q-39 41 -96 41q-58 0 -96 -35q-41 -36 -80 -153l-250 102q52 126 141 209q126 114 313 114q168 0 273 -96q145 -134 145 -424q0 -82 -10 -169.5t-34.5 -196t-78 -211.5t-129.5 -176q-142 -136 -335 -136q-73 0 -126 21t-102 70
q-133 135 -133 397q0 121 27 295zM350 518q-14 -51 -5 -135.5t48 -124.5q35 -35 82 -35q73 0 121 51q41 41 71 112.5t38 131.5h-355zM948 1632q0 -61 -46 -105t-107 -44q-50 0 -82.5 34.5t-32.5 84.5q0 60 44.5 105.5t104.5 45.5q51 0 85 -35t34 -86zM594 1632
q0 -60 -46 -104.5t-106 -44.5q-51 0 -83.5 34t-32.5 85q0 60 44.5 105.5t104.5 45.5q51 0 85 -35t34 -86z" />
    <glyph glyph-name="uni04DB" unicode="&#x4db;" horiz-adv-x="763" 
d="M295 631l-205 41q29 107 96 174q84 86 228 86q132 0 211 -74q92 -88 92 -278q0 -139 -41 -279t-125 -227q-48 -50 -103.5 -71t-130.5 -21q-117 0 -186 71q-84 86 -84 269q0 101 23 202h405q6 47 6 88q0 79 -28 107q-20 20 -58 20q-37 0 -63 -26q-27 -30 -37 -82zM453 367
h-185q-8 -35 -8 -74q0 -69 29 -98q19 -19 49 -19q29 0 53 19q48 39 62 172zM743 1208q0 -61 -46 -105t-107 -44q-50 0 -82.5 34.5t-32.5 84.5q0 60 45 105.5t105 45.5q51 0 84.5 -35t33.5 -86zM389 1208q0 -60 -45.5 -104.5t-105.5 -44.5q-51 0 -84 34t-33 85
q0 60 44.5 105.5t104.5 45.5q51 0 85 -35t34 -86z" />
    <glyph glyph-name="uni04DC" unicode="&#x4dc;" horiz-adv-x="1292" 
d="M1196 0h-270l-127 686l-84 -686h-258l84 686l-289 -686h-277l340 745l-174 621h265l143 -618l76 618h258l-76 -618l295 618h264l-326 -625zM1081 1632q0 -61 -46 -105t-107 -44q-50 0 -82.5 34.5t-32.5 84.5q0 60 45 105.5t105 45.5q51 0 84.5 -35t33.5 -86zM727 1632
q0 -60 -46 -104.5t-106 -44.5q-51 0 -83.5 34t-32.5 85q0 60 44.5 105.5t104.5 45.5q51 0 85 -35t34 -86z" />
    <glyph glyph-name="uni04DD" unicode="&#x4dd;" horiz-adv-x="1107" 
d="M1022 0h-266l-88 422l-54 -422h-239l53 422l-195 -422h-266l258 492l-141 423h256l96 -421l51 421h240l-51 -421l194 421h263l-240 -426zM928 1208q0 -61 -46.5 -105t-107.5 -44q-50 0 -82.5 34.5t-32.5 84.5q0 60 45 105.5t105 45.5q51 0 85 -35t34 -86zM573 1208
q0 -60 -45.5 -104.5t-105.5 -44.5q-51 0 -84 34t-33 85q0 60 45 105.5t105 45.5q51 0 84.5 -35t33.5 -86z" />
    <glyph glyph-name="uni04DE" unicode="&#x4de;" horiz-adv-x="811" 
d="M139 1036l33 275q111 75 246 75q165 0 264 -92q100 -93 100 -258q0 -140 -67 -229q-63 -82 -158 -113q71 -20 121 -73q70 -73 70 -195q0 -94 -42.5 -188.5t-105.5 -151.5q-118 -109 -307 -109q-152 0 -273 93l33 272q28 -41 86 -72q56 -30 131 -30q95 0 142 49
q23 24 36 60t13 69q0 81 -60 127q-46 33 -151 33h-23l31 245h41q99 0 152 39q61 42 61 129q0 71 -43 111q-39 39 -123 39q-70 0 -123 -33q-45 -27 -84 -72zM780 1632q0 -61 -46 -105t-107 -44q-50 0 -82.5 34.5t-32.5 84.5q0 60 45 105.5t105 45.5q51 0 84.5 -35t33.5 -86z
M426 1632q0 -60 -46 -104.5t-106 -44.5q-51 0 -83.5 34t-32.5 85q0 60 44.5 105.5t104.5 45.5q51 0 85 -35t34 -86z" />
    <glyph glyph-name="uni04DF" unicode="&#x4df;" horiz-adv-x="696" 
d="M502 475q53 -17 86 -53q47 -52 47 -135q0 -125 -88 -213q-92 -92 -248 -92q-105 0 -188 38q-69 32 -121 78l131 187q31 -35 59 -52q36 -22 84 -22q50 0 78 25q27 23 27 59q0 38 -33 57q-33 17 -92 17h-51l24 192h45q53 0 92 17q41 20 41 63q0 37 -26 57q-27 19 -70 19
q-42 0 -76 -19q-38 -20 -65 -51l-82 195q121 90 280 90q152 0 234 -82q65 -65 65 -162q0 -93 -51 -151q-43 -48 -102 -62zM713 1208q0 -61 -46.5 -105t-107.5 -44q-50 0 -82.5 34.5t-32.5 84.5q0 60 45 105.5t105 45.5q51 0 85 -35t34 -86zM358 1208q0 -60 -45.5 -104.5
t-105.5 -44.5q-51 0 -84 34t-33 85q0 60 45 105.5t105 45.5q51 0 84.5 -35t33.5 -86z" />
    <glyph glyph-name="uni04E2" unicode="&#x4e2;" horiz-adv-x="1026" 
d="M47 0l168 1366h266l-75 -618q-11 -82 -50 -205l424 823h250l-168 -1366h-266l78 625q3 25 12 69t21 91t12 49l-422 -834h-250zM938 1675l-20 -164h-578l20 164h578z" />
    <glyph glyph-name="uni04E3" unicode="&#x4e3;" horiz-adv-x="827" 
d="M135 915h242l-37 -305q-10 -112 -59 -260q32 62 54.5 106.5t30.5 61t13 25.5l194 372h228l-113 -915h-242l37 299q19 147 54 274q-41 -111 -103 -227l-184 -346h-227zM799 1251l-21 -164h-577l20 164h578z" />
    <glyph glyph-name="uni04E4" unicode="&#x4e4;" horiz-adv-x="1026" 
d="M47 0l168 1366h266l-75 -618q-11 -82 -50 -205l424 823h250l-168 -1366h-266l78 625q3 25 12 69t21 91t12 49l-422 -834h-250zM969 1632q0 -61 -46.5 -105t-107.5 -44q-50 0 -82.5 34.5t-32.5 84.5q0 60 45 105.5t105 45.5q51 0 85 -35t34 -86zM614 1632
q0 -60 -45.5 -104.5t-105.5 -44.5q-51 0 -84 34t-33 85q0 60 45 105.5t105 45.5q51 0 84.5 -35t33.5 -86z" />
    <glyph glyph-name="uni04E5" unicode="&#x4e5;" horiz-adv-x="827" 
d="M135 915h242l-37 -305q-10 -112 -59 -260q32 62 54.5 106.5t30.5 61t13 25.5l194 372h228l-113 -915h-242l37 299q19 147 54 274q-41 -111 -103 -227l-184 -346h-227zM805 1208q0 -61 -46.5 -105t-107.5 -44q-50 0 -82 34.5t-32 84.5q0 60 44.5 105.5t104.5 45.5
q51 0 85 -35t34 -86zM451 1208q0 -60 -46 -104.5t-106 -44.5q-51 0 -84 34t-33 85q0 60 45 105.5t105 45.5q51 0 85 -35t34 -86z" />
    <glyph glyph-name="uni04E6" unicode="&#x4e6;" horiz-adv-x="1093" 
d="M1059 889q0 -276 -72 -481q-30 -87 -76.5 -162t-108.5 -136.5t-144.5 -97t-174.5 -35.5q-98 0 -185.5 53.5t-137.5 139.5q-72 122 -72 324q0 207 45 372q26 102 70.5 191t108.5 165t155 120t197 44q80 0 146 -28.5t111.5 -76.5t77 -112.5t46 -135t14.5 -144.5zM774 874
q0 41 -6 81.5t-20 84.5t-45 71.5t-74 27.5q-44 0 -83 -31t-64.5 -76.5t-46 -104t-30.5 -105.5t-16 -89q-16 -101 -16 -231q0 -40 6 -80.5t20.5 -84.5t45 -71.5t73.5 -27.5q45 0 84 31t64.5 76t45.5 103.5t30 105t16 89.5q16 101 16 231zM1010 1632q0 -61 -46.5 -105
t-107.5 -44q-50 0 -82.5 34.5t-32.5 84.5q0 60 45 105.5t105 45.5q51 0 85 -35t34 -86zM655 1632q0 -60 -45.5 -104.5t-105.5 -44.5q-51 0 -84 34t-33 85q0 60 45 105.5t105 45.5q51 0 84.5 -35t33.5 -86z" />
    <glyph glyph-name="uni04E7" unicode="&#x4e7;" horiz-adv-x="790" 
d="M743 592q0 -82 -11.5 -162t-40.5 -163t-73 -144.5t-116.5 -101t-163.5 -39.5q-66 0 -117 21t-83.5 56t-53 85t-29 103t-8.5 115q0 97 23.5 193t70.5 182.5t128.5 140.5t185.5 54q144 0 216 -95.5t72 -244.5zM485 567q0 135 -59 135q-34 0 -60.5 -42t-39.5 -103t-19 -113
t-6 -86q0 -147 64 -147q35 0 60.5 43.5t37.5 108t17 116t5 88.5zM784 1208q0 -61 -46 -105t-107 -44q-50 0 -82.5 34.5t-32.5 84.5q0 60 45 105.5t105 45.5q51 0 84.5 -35t33.5 -86zM430 1208q0 -60 -45.5 -104.5t-105.5 -44.5q-51 0 -84 34t-33 85q0 60 44.5 105.5
t104.5 45.5q51 0 85 -35t34 -86z" />
    <glyph glyph-name="uni04E8" unicode="&#x4e8;" horiz-adv-x="1093" 
d="M664 1386q149 0 249 -96q146 -137 146 -424q0 -138 -22.5 -269.5t-81.5 -265t-148 -218.5q-141 -136 -320 -136q-158 0 -264 111q-135 145 -135 412q0 221 60.5 420.5t185.5 324.5q141 141 330 141zM406 831h368q3 207 -61 271q-32 37 -86 37q-52 0 -99 -47
q-38 -38 -73 -114t-49 -147zM745 575h-370q-13 -197 49 -284q39 -53 94 -53q58 0 105 47q42 40 76.5 124t45.5 166z" />
    <glyph glyph-name="uni04E9" unicode="&#x4e9;" horiz-adv-x="790" 
d="M455 932q122 0 198 -76q90 -90 90 -274q0 -135 -37 -271.5t-114 -220.5q-100 -108 -260 -108q-126 0 -199 81q-86 96 -86 291q0 133 40.5 262.5t123.5 212.5q103 103 244 103zM326 561h159q0 66 -5 98t-21 46q-12 12 -33 12q-22 0 -41 -19q-43 -41 -59 -137zM467 373
h-166q0 -129 31 -160q14 -14 33 -14q25 0 45 20q39 41 57 154z" />
    <glyph glyph-name="uni04EA" unicode="&#x4ea;" horiz-adv-x="1093" 
d="M664 1386q149 0 249 -96q146 -137 146 -424q0 -138 -22.5 -269.5t-81.5 -265t-148 -218.5q-141 -136 -320 -136q-158 0 -264 111q-135 145 -135 412q0 221 60.5 420.5t185.5 324.5q141 141 330 141zM406 831h368q3 207 -61 271q-32 37 -86 37q-52 0 -99 -47
q-38 -38 -73 -114t-49 -147zM745 575h-370q-13 -197 49 -284q39 -53 94 -53q58 0 105 47q42 40 76.5 124t45.5 166zM1010 1632q0 -61 -46.5 -105t-107.5 -44q-50 0 -82.5 34.5t-32.5 84.5q0 60 45 105.5t105 45.5q51 0 85 -35t34 -86zM655 1632q0 -60 -45.5 -104.5
t-105.5 -44.5q-51 0 -84 34t-33 85q0 60 45 105.5t105 45.5q51 0 84.5 -35t33.5 -86z" />
    <glyph glyph-name="uni04EB" unicode="&#x4eb;" horiz-adv-x="790" 
d="M455 932q122 0 198 -76q90 -90 90 -274q0 -135 -37 -271.5t-114 -220.5q-100 -108 -260 -108q-126 0 -199 81q-86 96 -86 291q0 133 40.5 262.5t123.5 212.5q103 103 244 103zM326 561h159q0 66 -5 98t-21 46q-12 12 -33 12q-22 0 -41 -19q-43 -41 -59 -137zM467 373
h-166q0 -129 31 -160q14 -14 33 -14q25 0 45 20q39 41 57 154zM784 1208q0 -61 -46 -105t-107 -44q-50 0 -82.5 34.5t-32.5 84.5q0 60 45 105.5t105 45.5q51 0 84.5 -35t33.5 -86zM430 1208q0 -60 -45.5 -104.5t-105.5 -44.5q-51 0 -84 34t-33 85q0 60 44.5 105.5
t104.5 45.5q51 0 85 -35t34 -86z" />
    <glyph glyph-name="uni04EE" unicode="&#x4ee;" horiz-adv-x="905" 
d="M123 1366h283l67 -338q4 -19 11.5 -58t11.5 -60.5t9 -61t9 -82.5q40 132 84 254l127 346h291l-582 -1366h-270l196 471zM897 1675l-20 -164h-578l20 164h578z" />
    <glyph glyph-name="uni04EF" unicode="&#x4ef;" horiz-adv-x="735" 
d="M797 915l-545 -1337h-246l191 440l-152 897h252l45 -333q16 -121 18 -189l183 522h254zM745 1251l-20 -164h-578l21 164h577z" />
    <glyph glyph-name="uni04F0" unicode="&#x4f0;" horiz-adv-x="905" 
d="M123 1366h283l67 -338q4 -19 11.5 -58t11.5 -60.5t9 -61t9 -82.5q40 132 84 254l127 346h291l-582 -1366h-270l196 471zM897 1632q0 -61 -46.5 -105t-107.5 -44q-50 0 -82 34.5t-32 84.5q0 60 44.5 105.5t104.5 45.5q51 0 85 -35t34 -86zM543 1632q0 -60 -46 -104.5
t-106 -44.5q-51 0 -84 34t-33 85q0 60 45 105.5t105 45.5q51 0 85 -35t34 -86z" />
    <glyph glyph-name="uni04F1" unicode="&#x4f1;" horiz-adv-x="735" 
d="M797 915l-545 -1337h-246l191 440l-152 897h252l45 -333q16 -121 18 -189l183 522h254zM745 1208q0 -61 -46 -105t-107 -44q-50 0 -82.5 34.5t-32.5 84.5q0 60 45 105.5t105 45.5q51 0 84.5 -35t33.5 -86zM391 1208q0 -60 -45.5 -104.5t-105.5 -44.5q-51 0 -84 34t-33 85
q0 60 44.5 105.5t104.5 45.5q51 0 85 -35t34 -86z" />
    <glyph glyph-name="uni04F2" unicode="&#x4f2;" horiz-adv-x="905" 
d="M123 1366h283l67 -338q4 -19 11.5 -58t11.5 -60.5t9 -61t9 -82.5q40 132 84 254l127 346h291l-582 -1366h-270l196 471zM909 1733l-202 -250l-105 73l152 263zM633 1733l-205 -250l-104 73l151 263z" />
    <glyph glyph-name="uni04F3" unicode="&#x4f3;" horiz-adv-x="735" 
d="M797 915l-545 -1337h-246l191 440l-152 897h252l45 -333q16 -121 18 -189l183 522h254zM772 1309l-203 -250l-104 74l151 262zM496 1309l-205 -250l-105 74l152 262z" />
    <glyph glyph-name="uni04F4" unicode="&#x4f4;" horiz-adv-x="958" 
d="M528 0l74 598q-74 -23 -151 -23q-168 0 -256 84q-72 70 -72 189q0 57 12 151l45 367h266l-40 -338q-9 -65 -9 -86q0 -56 33 -84q34 -27 94 -27q55 0 109 21l63 514h267l-168 -1366h-267zM897 1632q0 -61 -46.5 -105t-107.5 -44q-50 0 -82 34.5t-32 84.5q0 60 44.5 105.5
t104.5 45.5q51 0 85 -35t34 -86zM543 1632q0 -60 -46 -104.5t-106 -44.5q-51 0 -84 34t-33 85q0 60 45 105.5t105 45.5q51 0 85 -35t34 -86z" />
    <glyph glyph-name="uni04F5" unicode="&#x4f5;" horiz-adv-x="784" 
d="M391 0l47 377q-58 -21 -121 -21q-128 0 -190 62q-55 55 -55 151q0 35 8 97l31 249h249l-32 -253q0 -2 -1 -12t-1 -15q0 -33 16 -49q20 -17 57 -17q29 0 64 15l41 331h254l-113 -915h-254zM770 1208q0 -61 -46.5 -105t-107.5 -44q-50 0 -82 34.5t-32 84.5q0 60 44.5 105.5
t104.5 45.5q51 0 85 -35t34 -86zM416 1208q0 -60 -46 -104.5t-106 -44.5q-51 0 -84 34t-33 85q0 60 45 105.5t105 45.5q51 0 85 -35t34 -86z" />
    <glyph glyph-name="uni04F8" unicode="&#x4f8;" horiz-adv-x="1282" 
d="M1118 0h-266l168 1366h266zM215 1366h266l-65 -535h2q201 0 309 -108q102 -102 102 -270q0 -96 -30.5 -181t-87.5 -143q-126 -129 -383 -129h-281zM387 598l-45 -365h8q93 0 146 41q67 53 67 164q0 76 -43 117q-45 43 -133 43zM1071 1632q0 -61 -46 -105t-107 -44
q-50 0 -82.5 34.5t-32.5 84.5q0 60 44.5 105.5t104.5 45.5q51 0 85 -35t34 -86zM717 1632q0 -60 -46 -104.5t-106 -44.5q-51 0 -83.5 34t-32.5 85q0 60 44.5 105.5t104.5 45.5q51 0 85 -35t34 -86z" />
    <glyph glyph-name="uni04F9" unicode="&#x4f9;" horiz-adv-x="1116" 
d="M977 0h-254l113 915h254zM135 915h254l-41 -335h17q150 0 229 -52q104 -70 104 -211q0 -149 -100 -237q-91 -80 -250 -80h-325zM299 180h12q67 0 103 33q35 32 35 94q0 50 -31 72q-26 20 -88 20h-4zM932 1208q0 -61 -46.5 -105t-107.5 -44q-50 0 -82 34.5t-32 84.5
q0 60 44.5 105.5t104.5 45.5q51 0 85 -35t34 -86zM578 1208q0 -60 -46 -104.5t-106 -44.5q-51 0 -84 34t-33 85q0 60 45 105.5t105 45.5q51 0 85 -35t34 -86z" />
    <glyph glyph-name="uni1E9E" unicode="&#x1e9e;" horiz-adv-x="901" 
d="M438 1024l-125 -1024h-266l123 1006q20 184 141 290q103 90 248 90q138 0 221 -69q42 -35 67 -93t25 -120q0 -64 -12 -137l-168 -187q49 -29 82 -69q49 -59 49 -174q0 -124 -33.5 -244.5t-107.5 -204.5q-86 -98 -233 -98q-14 0 -39 4t-29 6l29 229q36 0 55 11
q29 14 51 59q41 87 41 217q0 71 -27 100q-23 26 -71 29l22 180l123 150q10 45 10 84q0 54 -20 84q-20 20 -51 20q-47 0 -72 -39q-26 -38 -33 -100z" />
    <glyph glyph-name="uni2010" unicode="&#x2010;" horiz-adv-x="548" 
d="M436 391h-344l29 221h344z" />
    <glyph glyph-name="uni2011" unicode="&#x2011;" horiz-adv-x="548" 
d="M436 391h-344l29 221h344z" />
    <glyph glyph-name="figuredash" unicode="&#x2012;" horiz-adv-x="1175" 
d="M1024 590h-889l25 205h889z" />
    <glyph glyph-name="endash" unicode="&#x2013;" horiz-adv-x="1175" 
d="M1024 399h-889l25 205h889z" />
    <glyph glyph-name="emdash" unicode="&#x2014;" horiz-adv-x="1679" 
d="M1552 604l-24 -205h-1393l25 205h1392z" />
    <glyph glyph-name="afii00208" unicode="&#x2015;" horiz-adv-x="1679" 
d="M1552 604l-24 -205h-1393l25 205h1392z" />
    <glyph glyph-name="quoteleft" unicode="&#x2018;" horiz-adv-x="561" 
d="M125 907l342 553h180l-250 -553h-272z" />
    <glyph glyph-name="quoteright" unicode="&#x2019;" horiz-adv-x="561" 
d="M629 1460l-336 -553h-178l245 553h269z" />
    <glyph glyph-name="quotesinglbase" unicode="&#x201a;" horiz-adv-x="552" 
d="M485 248l-335 -553h-179l246 553h268z" />
    <glyph glyph-name="quotedblleft" unicode="&#x201c;" horiz-adv-x="899" 
d="M125 907l342 553h180l-252 -553h-270zM463 907l340 553h180l-250 -553h-270z" />
    <glyph glyph-name="quotedblright" unicode="&#x201d;" horiz-adv-x="899" 
d="M965 1460l-336 -553h-178l245 553h269zM629 1460l-336 -553h-178l245 553h269z" />
    <glyph glyph-name="quotedblbase" unicode="&#x201e;" horiz-adv-x="888" 
d="M471 248l-336 -553h-178l246 553h268zM821 248l-336 -553h-178l246 553h268z" />
    <glyph glyph-name="dagger" unicode="&#x2020;" horiz-adv-x="884" 
d="M848 899h-227l-160 -1294h-256l160 1294h-228l29 240h227l45 354h256l-45 -354h228z" />
    <glyph glyph-name="daggerdbl" unicode="&#x2021;" horiz-adv-x="886" 
d="M772 205h-227l-74 -600h-256l74 600h-228l31 239h227l56 455h-228l29 240h227l46 354h256l-46 -354h228l-29 -240h-227l-56 -455h228z" />
    <glyph glyph-name="bullet" unicode="&#x2022;" horiz-adv-x="2048" 
d="M1335 696q0 -118 -82 -202t-200 -84q-116 0 -198.5 85t-82.5 201q0 118 82.5 202.5t200.5 84.5q116 0 198 -85t82 -202z" />
    <glyph glyph-name="ellipsis" unicode="&#x2026;" horiz-adv-x="1513" 
d="M1382 180q0 -72 -54 -126t-126 -54q-58 0 -98.5 41t-40.5 100q0 71 55 126t125 55q60 0 99.5 -41t39.5 -101zM879 180q0 -72 -54.5 -126t-126.5 -54q-60 0 -99.5 40.5t-39.5 100.5q0 72 54 126.5t126 54.5q60 0 100 -41t40 -101zM375 180q0 -72 -55 -126t-127 -54
q-59 0 -98.5 41t-39.5 100q0 72 54.5 126.5t126.5 54.5q60 0 99.5 -41t39.5 -101z" />
    <glyph glyph-name="perthousand" unicode="&#x2030;" horiz-adv-x="2131" 
d="M698 1124q0 -56 -10 -114t-34.5 -120t-60.5 -109.5t-94 -78t-130 -30.5q-115 0 -176.5 80.5t-61.5 191.5q0 71 20.5 144t59.5 138t106 106.5t150 41.5q60 0 106.5 -22t72.5 -59.5t39 -80t13 -88.5zM483 1102q0 7 -1 17.5t-5 28.5t-14 30t-25 12q-26 0 -46 -32t-29 -77
t-13 -79.5t-4 -53.5q0 -90 45 -90q26 0 45.5 32.5t28.5 78t13.5 80.5t4.5 53zM1233 1366l-760 -1366h-178l764 1366h174zM1399 438q0 -56 -10 -114t-34.5 -120t-61 -109.5t-94.5 -78t-130 -30.5q-115 0 -176.5 80.5t-61.5 191.5q0 71 20.5 144t59.5 138t106 106.5t150 41.5
q116 0 174 -75t58 -175zM1184 416q0 7 -1 17.5t-5 28.5t-14 30t-25 12q-26 0 -46 -32t-29 -77t-13 -79.5t-4 -53.5q0 -90 45 -90q26 0 45.5 32.5t28.5 78t13.5 80.5t4.5 53zM2060 438q0 -56 -10 -114t-34.5 -120t-60.5 -109.5t-94 -78t-130 -30.5q-115 0 -176.5 80.5
t-61.5 191.5q0 71 20.5 144t59.5 138t106 106.5t150 41.5q60 0 106.5 -22t72.5 -59.5t39 -80t13 -88.5zM1845 416q0 7 -1 17.5t-5 28.5t-14 30t-25 12q-26 0 -46 -32t-29 -77t-13 -79.5t-4 -53.5q0 -90 45 -90q26 0 45.5 32.5t28.5 78t13.5 80.5t4.5 53z" />
    <glyph glyph-name="guilsinglleft" unicode="&#x2039;" horiz-adv-x="489" 
d="M473 831l-225 -352l141 -344l-145 -78l-183 422l285 422z" />
    <glyph glyph-name="guilsinglright" unicode="&#x203a;" horiz-adv-x="489" 
d="M430 479l-285 -422l-125 78l224 344l-140 352l146 70z" />
    <glyph glyph-name="fraction" unicode="&#x2044;" horiz-adv-x="294" 
d="M643 1366l-809 -1366h-156l809 1366h156z" />
    <glyph glyph-name="Euro" unicode="&#x20ac;" horiz-adv-x="886" 
d="M813 317l-39 -282q-96 -49 -207 -49q-172 0 -272 108q-71 75 -104 189.5t-33 224.5h-181l76 139h111l18 113h-166l76 139h127q29 99 82 189t119 151q147 141 366 141q93 0 172 -39l-38 -284q-63 65 -150 65q-88 0 -162 -71q-54 -52 -98 -152h397l-76 -139h-362
q-13 -50 -20 -113h323l-76 -139h-252q0 -53 16 -107.5t42 -87.5q48 -67 137 -67q98 0 174 71z" />
    <glyph glyph-name="uni20B4" unicode="&#x20b4;" horiz-adv-x="886" 
d="M250 1057l33 264q127 65 237 65q75 0 135 -18.5t109 -71.5q80 -87 80 -225q0 -98 -53 -172h110l-16 -139h-209l-119 -113h313l-18 -139h-418q-72 -70 -72 -166q0 -49 29 -78q33 -33 98 -33q116 0 224 74l-31 -258q-111 -70 -262 -70q-157 0 -242 89q-86 99 -86 227
q0 118 82 215h-129l18 139h220l118 113h-323l16 139h426q55 51 55 135q0 48 -28 78q-33 33 -86 33q-57 0 -114.5 -27.5t-96.5 -60.5z" />
    <glyph glyph-name="uni20B6" unicode="&#x20b6;" horiz-adv-x="886" 
d="M592 1366q53 0 79.5 -1.5t65.5 -12t74 -31.5q74 -45 108.5 -125.5t34.5 -175.5q1 -213 -145.5 -336t-370.5 -106l-16 -129h225l-16 -140h-225l-39 -309h-267l39 309h-131l17 140h131l18 129h-131l20 184h130l75 604h324zM459 762h20q108 0 159.5 54t51.5 165
q0 87 -30 126.5t-105 39.5h-47z" />
    <glyph glyph-name="uni20B6" unicode="&#x20cf;" horiz-adv-x="886" 
d="M592 1366q53 0 79.5 -1.5t65.5 -12t74 -31.5q74 -45 108.5 -125.5t34.5 -175.5q1 -213 -145.5 -336t-370.5 -106l-16 -129h225l-16 -140h-225l-39 -309h-267l39 309h-131l17 140h131l18 129h-131l20 184h130l75 604h324zM459 762h20q108 0 159.5 54t51.5 165
q0 87 -30 126.5t-105 39.5h-47z" />
    <glyph glyph-name="uni20B6" unicode="&#x20ce;" horiz-adv-x="886" 
d="M592 1366q53 0 79.5 -1.5t65.5 -12t74 -31.5q74 -45 108.5 -125.5t34.5 -175.5q1 -213 -145.5 -336t-370.5 -106l-16 -129h225l-16 -140h-225l-39 -309h-267l39 309h-131l17 140h131l18 129h-131l20 184h130l75 604h324zM459 762h20q108 0 159.5 54t51.5 165
q0 87 -30 126.5t-105 39.5h-47z" />
    <glyph glyph-name="uni20B6" unicode="&#x20cd;" horiz-adv-x="886" 
d="M592 1366q53 0 79.5 -1.5t65.5 -12t74 -31.5q74 -45 108.5 -125.5t34.5 -175.5q1 -213 -145.5 -336t-370.5 -106l-16 -129h225l-16 -140h-225l-39 -309h-267l39 309h-131l17 140h131l18 129h-131l20 184h130l75 604h324zM459 762h20q108 0 159.5 54t51.5 165
q0 87 -30 126.5t-105 39.5h-47z" />
    <glyph glyph-name="uni20B6" unicode="&#x20cc;" horiz-adv-x="886" 
d="M592 1366q53 0 79.5 -1.5t65.5 -12t74 -31.5q74 -45 108.5 -125.5t34.5 -175.5q1 -213 -145.5 -336t-370.5 -106l-16 -129h225l-16 -140h-225l-39 -309h-267l39 309h-131l17 140h131l18 129h-131l20 184h130l75 604h324zM459 762h20q108 0 159.5 54t51.5 165
q0 87 -30 126.5t-105 39.5h-47z" />
    <glyph glyph-name="uni20B6" unicode="&#x20cb;" horiz-adv-x="886" 
d="M592 1366q53 0 79.5 -1.5t65.5 -12t74 -31.5q74 -45 108.5 -125.5t34.5 -175.5q1 -213 -145.5 -336t-370.5 -106l-16 -129h225l-16 -140h-225l-39 -309h-267l39 309h-131l17 140h131l18 129h-131l20 184h130l75 604h324zM459 762h20q108 0 159.5 54t51.5 165
q0 87 -30 126.5t-105 39.5h-47z" />
    <glyph glyph-name="uni20B6" unicode="&#x20ca;" horiz-adv-x="886" 
d="M592 1366q53 0 79.5 -1.5t65.5 -12t74 -31.5q74 -45 108.5 -125.5t34.5 -175.5q1 -213 -145.5 -336t-370.5 -106l-16 -129h225l-16 -140h-225l-39 -309h-267l39 309h-131l17 140h131l18 129h-131l20 184h130l75 604h324zM459 762h20q108 0 159.5 54t51.5 165
q0 87 -30 126.5t-105 39.5h-47z" />
    <glyph glyph-name="uni20B6" unicode="&#x20c9;" horiz-adv-x="886" 
d="M592 1366q53 0 79.5 -1.5t65.5 -12t74 -31.5q74 -45 108.5 -125.5t34.5 -175.5q1 -213 -145.5 -336t-370.5 -106l-16 -129h225l-16 -140h-225l-39 -309h-267l39 309h-131l17 140h131l18 129h-131l20 184h130l75 604h324zM459 762h20q108 0 159.5 54t51.5 165
q0 87 -30 126.5t-105 39.5h-47z" />
    <glyph glyph-name="uni20B6" unicode="&#x20c8;" horiz-adv-x="886" 
d="M592 1366q53 0 79.5 -1.5t65.5 -12t74 -31.5q74 -45 108.5 -125.5t34.5 -175.5q1 -213 -145.5 -336t-370.5 -106l-16 -129h225l-16 -140h-225l-39 -309h-267l39 309h-131l17 140h131l18 129h-131l20 184h130l75 604h324zM459 762h20q108 0 159.5 54t51.5 165
q0 87 -30 126.5t-105 39.5h-47z" />
    <glyph glyph-name="uni20B6" unicode="&#x20c7;" horiz-adv-x="886" 
d="M592 1366q53 0 79.5 -1.5t65.5 -12t74 -31.5q74 -45 108.5 -125.5t34.5 -175.5q1 -213 -145.5 -336t-370.5 -106l-16 -129h225l-16 -140h-225l-39 -309h-267l39 309h-131l17 140h131l18 129h-131l20 184h130l75 604h324zM459 762h20q108 0 159.5 54t51.5 165
q0 87 -30 126.5t-105 39.5h-47z" />
    <glyph glyph-name="uni20B6" unicode="&#x20c6;" horiz-adv-x="886" 
d="M592 1366q53 0 79.5 -1.5t65.5 -12t74 -31.5q74 -45 108.5 -125.5t34.5 -175.5q1 -213 -145.5 -336t-370.5 -106l-16 -129h225l-16 -140h-225l-39 -309h-267l39 309h-131l17 140h131l18 129h-131l20 184h130l75 604h324zM459 762h20q108 0 159.5 54t51.5 165
q0 87 -30 126.5t-105 39.5h-47z" />
    <glyph glyph-name="uni20B6" unicode="&#x20c5;" horiz-adv-x="886" 
d="M592 1366q53 0 79.5 -1.5t65.5 -12t74 -31.5q74 -45 108.5 -125.5t34.5 -175.5q1 -213 -145.5 -336t-370.5 -106l-16 -129h225l-16 -140h-225l-39 -309h-267l39 309h-131l17 140h131l18 129h-131l20 184h130l75 604h324zM459 762h20q108 0 159.5 54t51.5 165
q0 87 -30 126.5t-105 39.5h-47z" />
    <glyph glyph-name="uni20B6" unicode="&#x20c4;" horiz-adv-x="886" 
d="M592 1366q53 0 79.5 -1.5t65.5 -12t74 -31.5q74 -45 108.5 -125.5t34.5 -175.5q1 -213 -145.5 -336t-370.5 -106l-16 -129h225l-16 -140h-225l-39 -309h-267l39 309h-131l17 140h131l18 129h-131l20 184h130l75 604h324zM459 762h20q108 0 159.5 54t51.5 165
q0 87 -30 126.5t-105 39.5h-47z" />
    <glyph glyph-name="uni20B6" unicode="&#x20c3;" horiz-adv-x="886" 
d="M592 1366q53 0 79.5 -1.5t65.5 -12t74 -31.5q74 -45 108.5 -125.5t34.5 -175.5q1 -213 -145.5 -336t-370.5 -106l-16 -129h225l-16 -140h-225l-39 -309h-267l39 309h-131l17 140h131l18 129h-131l20 184h130l75 604h324zM459 762h20q108 0 159.5 54t51.5 165
q0 87 -30 126.5t-105 39.5h-47z" />
    <glyph glyph-name="uni20B6" unicode="&#x20c2;" horiz-adv-x="886" 
d="M592 1366q53 0 79.5 -1.5t65.5 -12t74 -31.5q74 -45 108.5 -125.5t34.5 -175.5q1 -213 -145.5 -336t-370.5 -106l-16 -129h225l-16 -140h-225l-39 -309h-267l39 309h-131l17 140h131l18 129h-131l20 184h130l75 604h324zM459 762h20q108 0 159.5 54t51.5 165
q0 87 -30 126.5t-105 39.5h-47z" />
    <glyph glyph-name="uni20B6" unicode="&#x20c1;" horiz-adv-x="886" 
d="M592 1366q53 0 79.5 -1.5t65.5 -12t74 -31.5q74 -45 108.5 -125.5t34.5 -175.5q1 -213 -145.5 -336t-370.5 -106l-16 -129h225l-16 -140h-225l-39 -309h-267l39 309h-131l17 140h131l18 129h-131l20 184h130l75 604h324zM459 762h20q108 0 159.5 54t51.5 165
q0 87 -30 126.5t-105 39.5h-47z" />
    <glyph glyph-name="uni20B6" unicode="&#x20c0;" horiz-adv-x="886" 
d="M592 1366q53 0 79.5 -1.5t65.5 -12t74 -31.5q74 -45 108.5 -125.5t34.5 -175.5q1 -213 -145.5 -336t-370.5 -106l-16 -129h225l-16 -140h-225l-39 -309h-267l39 309h-131l17 140h131l18 129h-131l20 184h130l75 604h324zM459 762h20q108 0 159.5 54t51.5 165
q0 87 -30 126.5t-105 39.5h-47z" />
    <glyph glyph-name="uni20B6" unicode="&#x20bf;" horiz-adv-x="886" 
d="M592 1366q53 0 79.5 -1.5t65.5 -12t74 -31.5q74 -45 108.5 -125.5t34.5 -175.5q1 -213 -145.5 -336t-370.5 -106l-16 -129h225l-16 -140h-225l-39 -309h-267l39 309h-131l17 140h131l18 129h-131l20 184h130l75 604h324zM459 762h20q108 0 159.5 54t51.5 165
q0 87 -30 126.5t-105 39.5h-47z" />
    <glyph glyph-name="uni20B6" unicode="&#x20be;" horiz-adv-x="886" 
d="M592 1366q53 0 79.5 -1.5t65.5 -12t74 -31.5q74 -45 108.5 -125.5t34.5 -175.5q1 -213 -145.5 -336t-370.5 -106l-16 -129h225l-16 -140h-225l-39 -309h-267l39 309h-131l17 140h131l18 129h-131l20 184h130l75 604h324zM459 762h20q108 0 159.5 54t51.5 165
q0 87 -30 126.5t-105 39.5h-47z" />
    <glyph glyph-name="uni20B6" unicode="&#x20bd;" horiz-adv-x="886" 
d="M592 1366q53 0 79.5 -1.5t65.5 -12t74 -31.5q74 -45 108.5 -125.5t34.5 -175.5q1 -213 -145.5 -336t-370.5 -106l-16 -129h225l-16 -140h-225l-39 -309h-267l39 309h-131l17 140h131l18 129h-131l20 184h130l75 604h324zM459 762h20q108 0 159.5 54t51.5 165
q0 87 -30 126.5t-105 39.5h-47z" />
    <glyph glyph-name="uni20B6" unicode="&#x20bc;" horiz-adv-x="886" 
d="M592 1366q53 0 79.5 -1.5t65.5 -12t74 -31.5q74 -45 108.5 -125.5t34.5 -175.5q1 -213 -145.5 -336t-370.5 -106l-16 -129h225l-16 -140h-225l-39 -309h-267l39 309h-131l17 140h131l18 129h-131l20 184h130l75 604h324zM459 762h20q108 0 159.5 54t51.5 165
q0 87 -30 126.5t-105 39.5h-47z" />
    <glyph glyph-name="uni20B6" unicode="&#x20bb;" horiz-adv-x="886" 
d="M592 1366q53 0 79.5 -1.5t65.5 -12t74 -31.5q74 -45 108.5 -125.5t34.5 -175.5q1 -213 -145.5 -336t-370.5 -106l-16 -129h225l-16 -140h-225l-39 -309h-267l39 309h-131l17 140h131l18 129h-131l20 184h130l75 604h324zM459 762h20q108 0 159.5 54t51.5 165
q0 87 -30 126.5t-105 39.5h-47z" />
    <glyph glyph-name="uni20B6" unicode="&#x20ba;" horiz-adv-x="886" 
d="M592 1366q53 0 79.5 -1.5t65.5 -12t74 -31.5q74 -45 108.5 -125.5t34.5 -175.5q1 -213 -145.5 -336t-370.5 -106l-16 -129h225l-16 -140h-225l-39 -309h-267l39 309h-131l17 140h131l18 129h-131l20 184h130l75 604h324zM459 762h20q108 0 159.5 54t51.5 165
q0 87 -30 126.5t-105 39.5h-47z" />
    <glyph glyph-name="uni20B6" unicode="&#x20b9;" horiz-adv-x="886" 
d="M592 1366q53 0 79.5 -1.5t65.5 -12t74 -31.5q74 -45 108.5 -125.5t34.5 -175.5q1 -213 -145.5 -336t-370.5 -106l-16 -129h225l-16 -140h-225l-39 -309h-267l39 309h-131l17 140h131l18 129h-131l20 184h130l75 604h324zM459 762h20q108 0 159.5 54t51.5 165
q0 87 -30 126.5t-105 39.5h-47z" />
    <glyph glyph-name="uni20B6" unicode="&#x20b7;" horiz-adv-x="886" 
d="M592 1366q53 0 79.5 -1.5t65.5 -12t74 -31.5q74 -45 108.5 -125.5t34.5 -175.5q1 -213 -145.5 -336t-370.5 -106l-16 -129h225l-16 -140h-225l-39 -309h-267l39 309h-131l17 140h131l18 129h-131l20 184h130l75 604h324zM459 762h20q108 0 159.5 54t51.5 165
q0 87 -30 126.5t-105 39.5h-47z" />
    <glyph glyph-name="uni20B8" unicode="&#x20b8;" horiz-adv-x="886" 
d="M862 1079l-28 -229h-209l-105 -850h-266l104 850h-208l28 229h684zM872 1178h-684l25 188h684z" />
    <glyph glyph-name="afii61352" unicode="&#x2116;" horiz-adv-x="1603" 
d="M1049 1366l-168 -1366h-250l-230 823q0 -117 -8 -176l-80 -647h-266l168 1366h252l229 -825q-2 33 -2 98q0 59 4 90l80 637h271zM1614 1151q0 -75 -15.5 -143t-48 -129.5t-92 -98.5t-139.5 -37q-114 0 -166.5 73t-52.5 192q0 69 18.5 134.5t53.5 121t93.5 89t131.5 33.5
q103 0 160 -65t57 -170zM1534 629l-18 -164h-445l19 164h444zM1413 1126q0 91 -37 91q-23 0 -40 -25.5t-25 -63t-11.5 -68.5t-3.5 -54q0 -93 41 -93q21 0 37 26t24 63.5t11.5 69.5t3.5 54z" />
    <glyph glyph-name="uni2117" unicode="&#x2117;" horiz-adv-x="1560" 
d="M604 1096h201q149 0 215 -64q63 -63 63 -178q0 -118 -61 -174q-62 -62 -195 -62h-39v-321h-184v799zM788 758h13q60 0 82 24q26 26 26 78t-22 74t-70 22h-29v-198zM1518 682q0 -292 -207 -502q-208 -211 -504 -211t-504 211q-207 210 -207 502t207 502q208 211 504 211
t504 -211q207 -210 207 -502zM807 1272q-225 0 -387 -156q-91 -88 -137.5 -201t-46.5 -231q0 -119 46.5 -232.5t137.5 -201.5q162 -156 387 -156t387 156q91 88 137.5 201.5t46.5 232.5q0 118 -46.5 231t-137.5 201q-162 156 -387 156z" />
    <glyph glyph-name="trademark" unicode="&#x2122;" horiz-adv-x="1214" 
d="M1225 1366l-8 -778h-181l23 471l-150 -471h-135l-43 461l-78 -461h-188l170 778h225l23 -416l110 416h232zM543 1366l-21 -156h-127l-78 -622h-176l78 622h-127l19 156h432z" />
    <glyph glyph-name="partialdiff" unicode="&#x2202;" 
d="M119 1143l33 219q184 -21 324.5 -69t256.5 -148q129 -113 194.5 -268t65.5 -332q0 -117 -32 -218t-92.5 -178.5t-156.5 -122t-216 -44.5q-128 0 -237 61.5t-172.5 169t-63.5 236.5q0 184 120.5 311t302.5 127q153 0 254 -101q-40 86 -71 123q-86 107 -221.5 164
t-288.5 70zM500 674h-21q-18 0 -63 -17q-63 -27 -98 -86t-35 -129q0 -97 61.5 -165t157.5 -68t156.5 69t60.5 166t-61 163.5t-158 66.5z" />
    <glyph glyph-name="product" unicode="&#x220f;" horiz-adv-x="1492" 
d="M1417 -512h-586v227h164v1594h-485v-1594h162v-227h-586v227h170v1594h-170v227h1331v-227h-166v-1594h166v-227z" />
    <glyph glyph-name="summation" unicode="&#x2211;" horiz-adv-x="1366" 
d="M1288 -512h-1239v254l500 805l-500 737v252h1221v-500h-228l-24 273h-684l512 -762l-512 -832h702l15 279h237v-506z" />
    <glyph glyph-name="minus" unicode="&#x2212;" 
d="M985 578h-889v235h889v-235z" />
    <glyph glyph-name="uni2215" unicode="&#x2215;" horiz-adv-x="962" 
d="M1075 1493l-977 -1888h-225l983 1888h219z" />
    <glyph glyph-name="uni2219" unicode="&#x2219;" horiz-adv-x="571" 
d="M508 707q0 -92 -70 -161t-162 -69q-76 0 -128 51.5t-52 128.5q0 92 70 163t162 71q79 0 129.5 -52.5t50.5 -131.5z" />
    <glyph glyph-name="radical" unicode="&#x221a;" horiz-adv-x="1366" 
d="M1446 1466h-369l-350 -1466h-334l-121 561h-190v227h397l43 -184q7 -27 11.5 -56t7.5 -63.5t5 -56t4 -64t3 -57.5h20q18 263 99 606l186 781h588v-228z" />
    <glyph glyph-name="infinity" unicode="&#x221e;" horiz-adv-x="1366" 
d="M1360 696q0 -146 -92.5 -240t-237.5 -94q-176 0 -313 168q-145 -165 -324 -165q-145 0 -237.5 93t-92.5 238q0 142 93.5 236t236.5 94q170 0 312 -166q63 76 145.5 121t175.5 45q147 0 240.5 -91.5t93.5 -238.5zM1100 696q0 43 -34.5 74t-78.5 31q-32 0 -62.5 -18.5
t-47.5 -37.5t-41 -51q75 -104 153 -104q45 0 78 30.5t33 75.5zM586 694q-35 48 -70.5 76.5t-81.5 28.5q-45 0 -77.5 -30t-32.5 -75t32.5 -74.5t77.5 -29.5q81 0 152 104z" />
    <glyph glyph-name="integral" unicode="&#x222b;" 
d="M924 1516l-47 -226q-65 21 -113 21q-117 0 -117 -144v-1134q0 -16 1 -68.5t0.5 -78.5t-4 -73.5t-10.5 -78t-21 -66t-35 -61.5q-95 -119 -283 -119q-84 0 -182 20l45 226q65 -21 112 -21q32 0 54.5 9.5t34.5 23t18.5 38t8 45t1.5 52.5v103v1142q0 119 23 197
q32 108 121 160.5t208 52.5q63 0 185 -20z" />
    <glyph glyph-name="approxequal" unicode="&#x2248;" 
d="M893 1071l143 -84q-23 -48 -43 -82.5t-49.5 -72t-61 -60.5t-75 -38t-94.5 -15q-66 0 -191.5 52t-187.5 52q-58 0 -90 -31t-64 -96l-139 92q15 37 26.5 61.5t29 56.5t34 53t40 43.5t48.5 35t58 21t71 8.5q70 0 198 -52t195 -52q55 0 87.5 26.5t64.5 81.5zM893 664l143 -84
q-30 -61 -56 -103t-64.5 -83t-89 -62t-113.5 -21q-65 0 -194 53.5t-185 53.5q-57 0 -90 -33.5t-64 -95.5l-139 92q22 52 38.5 85.5t44 74t56.5 63.5t72.5 39t95.5 16q73 0 204.5 -52t188.5 -52q52 0 87 28t65 81z" />
    <glyph glyph-name="notequal" unicode="&#x2260;" 
d="M979 362h-494l-100 -200h-199l99 200h-193v228h295l72 141h-367v227h471l111 222h198l-108 -222h215v-227h-320l-71 -141h391v-228z" />
    <glyph glyph-name="lessequal" unicode="&#x2264;" 
d="M956 299l-886 422v213l886 422v-236l-620 -293l620 -292v-236zM956 12h-886v228h886v-228z" />
    <glyph glyph-name="greaterequal" unicode="&#x2265;" 
d="M983 721l-889 -422v236l621 292l-619 293l-2 236l889 -424v-211zM983 12h-889v228h889v-228z" />
    <glyph glyph-name="dotmath" unicode="&#x22c5;" horiz-adv-x="571" 
d="M508 707q0 -92 -70 -161t-162 -69q-76 0 -128 51.5t-52 128.5q0 92 70 163t162 71q79 0 129.5 -52.5t50.5 -131.5z" />
    <glyph glyph-name="lozenge" unicode="&#x25ca;" horiz-adv-x="1366" 
d="M1241 684l-532 -737l-531 737l531 735zM946 684l-237 324l-236 -324l236 -326z" />
    <glyph glyph-name="openbullet" unicode="&#x25e6;" 
d="M897 1047q0 -128 -92.5 -218t-220.5 -90t-221 90t-93 218t92.5 217.5t221.5 89.5q128 0 220.5 -89.5t92.5 -217.5zM745 1047q0 66 -47.5 112.5t-113.5 46.5q-67 0 -114.5 -46t-47.5 -113t47.5 -112.5t114.5 -45.5q65 0 113 46.5t48 111.5z" />
    <glyph glyph-name="uniF400" unicode="&#xf400;" horiz-adv-x="4" 
d="M-80 1309l-260 -250l-115 74l205 262z" />
    <glyph glyph-name="uniF401" unicode="&#xf401;" horiz-adv-x="4" 
d="M-442 1530l192 262l166 -102l-233 -234z" />
    <glyph glyph-name="uniF406" unicode="&#xf406;" 
d="M752 1716h135q-17 -99 -88 -170q-79 -76 -209 -76q-112 0 -172 62q-64 64 -64 184h135q3 -35 27 -59q29 -27 90 -27q75 0 107 27q26 20 39 59z" />
    <glyph glyph-name="uniF407" unicode="&#xf407;" horiz-adv-x="1028" 
d="M618 -158l-223 -262l-123 74l162 260z" />
    <glyph glyph-name="uniF408" unicode="&#xf408;" 
d="M856 1595l-123 -112l-135 127l-172 -127l-84 127l281 205z" />
    <glyph glyph-name="uniF409" unicode="&#xf409;" horiz-adv-x="395" 
d="M459 -94l-178 -344h-144l109 344h213z" />
    <glyph glyph-name="uniF40A" unicode="&#xf40a;" horiz-adv-x="409" 
d="M473 1366l-205 -405h-143l135 405h213z" />
    <glyph glyph-name="uniF40B" unicode="&#xf40b;" 
d="M737 1634q0 -61 -46 -106t-107 -45q-51 0 -84 34t-33 85q0 61 45 107t106 46q51 0 85 -35t34 -86z" />
    <glyph glyph-name="uniF40C" unicode="&#xf40c;" horiz-adv-x="1030" 
d="M416 1659q0 82 57 139t139 57t139.5 -57t57.5 -139t-57.5 -139.5t-139.5 -57.5t-139 57.5t-57 139.5zM528 1659q0 -37 23.5 -60.5t60.5 -23.5t60.5 23.5t23.5 60.5t-23.5 60.5t-60.5 23.5t-60.5 -23.5t-23.5 -60.5z" />
    <glyph glyph-name="uniF40D" unicode="&#xf40d;" 
d="M772 1733l131 -9q-11 -40 -20 -67t-26.5 -63t-37.5 -57.5t-51.5 -37.5t-69.5 -16q-44 0 -113 31.5t-96 31.5q-45 0 -63 -57h-131q12 51 23.5 85.5t34 74.5t58 61t83.5 21q45 0 109 -35t97 -35q10 0 18 1.5t15 6.5t11 7.5t9 12t6.5 12.5t6.5 16t6 16z" />
    <glyph glyph-name="uniF40E" unicode="&#xf40e;" 
d="M717 -199l-47 -145q-41 -35 -99 -35q-63 0 -110 39.5t-47 101.5q0 130 178 238h119q-27 -18 -44.5 -31t-41 -35t-35.5 -46.5t-12 -49.5q0 -31 21 -51t52 -20q32 0 66 34z" />
    <glyph glyph-name="uniF4C6" unicode="&#xf4c6;" horiz-adv-x="958" 
d="M180 1366h266l-40 -338q-9 -65 -9 -86q0 -56 33 -84q34 -27 94 -27q55 0 109 21l63 514h267l-166 -1346q-14 -122 -43.5 -205.5t-98.5 -146.5q-97 -90 -239 -90q-112 0 -189 43l33 270q18 -30 51.5 -52.5t79.5 -22.5q49 0 86 32q17 17 28.5 47.5t15.5 55t9 69.5l72 578
q-74 -23 -151 -23q-168 0 -256 84q-72 70 -72 189q0 57 12 151z" />
    <glyph glyph-name="uniF4C7" unicode="&#xf4c7;" horiz-adv-x="784" 
d="M438 377q-58 -21 -121 -21q-128 0 -190 62q-55 55 -55 151q0 35 8 97l31 249h249l-32 -253q0 -2 -1 -12t-1 -15q0 -33 16 -49q20 -17 57 -17q29 0 64 15l41 331h254l-127 -1034q-18 -145 -92 -223q-78 -80 -217 -80q-64 0 -129 23l28 225q25 -19 62 -19t63 23
q30 28 39 121z" />
    <glyph glyph-name="uniF4CC" unicode="&#xf4cc;" horiz-adv-x="905" 
d="M123 1366h283l67 -338q4 -19 11.5 -58t11.5 -60.5t9 -61t9 -82.5q40 132 84 254l127 346h291l-582 -1366h-270l196 471zM465 1530l192 262l166 -102l-233 -234z" />
    <glyph glyph-name="uniF4CD" unicode="&#xf4cd;" horiz-adv-x="735" 
d="M797 915l-545 -1337h-246l191 440l-152 897h252l45 -333q16 -121 18 -189l183 522h254zM731 1309l-260 -250l-115 74l205 262z" />
    <glyph glyph-name="dollar.fitted" unicode="&#xf5f5;" horiz-adv-x="933" 
d="M907 1217l-166 -162q-43 51 -87 76.5t-105 25.5q-75 0 -122.5 -44t-47.5 -118q0 -23 8 -42.5t18 -32.5t30 -26t33 -20t38 -18q55 -26 82 -39t72.5 -38t68.5 -43.5t53 -49t44.5 -61t25 -71.5t10.5 -89q0 -176 -109.5 -315t-277.5 -173l-20 -163h-148l21 163
q-98 16 -170 51.5t-138 108.5l150 201q66 -70 117.5 -102.5t128.5 -32.5q83 0 137.5 54.5t54.5 137.5q0 34 -11.5 60t-39.5 48t-50.5 34.5t-68.5 35.5q-43 21 -68.5 34t-63.5 36t-60.5 41.5t-49.5 47t-41 57t-24 66.5t-10 81q0 177 112.5 303.5t266.5 146.5l18 152h148
l-19 -152q70 -10 139 -53t121 -116z" />
    <glyph glyph-name="Euro.fitted" unicode="&#xf5f6;" horiz-adv-x="1040" 
d="M854 317l-39 -282q-96 -49 -207 -49q-172 0 -272 108q-71 75 -104 189.5t-33 224.5h-181l76 139h111l18 113h-166l76 139h127q29 99 82 189t119 151q147 141 366 141q93 0 172 -39l-38 -284q-63 65 -150 65q-88 0 -162 -71q-54 -52 -98 -152h397l-76 -139h-362
q-15 -57 -21 -113h324l-76 -139h-252q0 -53 16 -107.5t42 -87.5q48 -67 137 -67q98 0 174 71z" />
    <glyph glyph-name="cent.fitted" unicode="&#xf5f7;" horiz-adv-x="585" 
d="M559 1135l-29 -230q-35 27 -63 27q-45 0 -81 -35.5t-56 -88.5t-30.5 -104.5t-10.5 -91.5q0 -168 110 -168q37 0 78 23l-28 -229q-63 -33 -99 -35l-20 -156h-148l23 164q-51 15 -92 70q-42 49 -65 121t-23 143q0 85 16.5 176t49.5 179t91 155.5t133 93.5l25 188h147
l-20 -176q49 -8 92 -26z" />
    <glyph glyph-name="sterling.fitted" unicode="&#xf5f8;" horiz-adv-x="970" 
d="M922 1053l-238 -68q4 24 4 55q0 68 -31 99q-26 26 -77 26q-61 0 -95 -39q-41 -48 -41 -145q0 -26 3 -56t6 -47.5t11 -62t11 -61.5h230l-21 -164h-190q14 -47 14 -90q0 -73 -28 -135.5t-64 -104.5q49 -10 114 -43q60 -31 111 -31q76 0 125 72l137 -111q-51 -80 -102 -118
q-69 -52 -164 -52q-69 0 -178 37q-5 2 -38 13.5t-46 15.5t-41 9t-53 5q-76 0 -160 -57l-88 145q92 65 168 88q61 95 61 216q0 76 -26 141h-175l21 164h123q-27 109 -27 215q0 197 119 311q108 106 301 106q166 0 250 -86q76 -79 76 -206q0 -27 -2 -41z" />
    </font>
</defs>
</svg>
